<?xml version="1.0" standalone="no"?>
<!DOCTYPE svg PUBLIC "-//W3C//DTD SVG 1.1//EN" "http://www.w3.org/Graphics/SVG/1.1/DTD/svg11.dtd" >
<svg xmlns="http://www.w3.org/2000/svg" xmlns:xlink="http://www.w3.org/1999/xlink" version="1.1">
<metadata>
Created by FontForge 20170731 at Wed Mar 23 13:04:22 2016
 By Aleksey,,,
Copyright (c) 2015 by Mariya Pigoulevskaya. All rights reserved.
</metadata>
<defs>
<font id="Erbaum-Regular" horiz-adv-x="694" vert-adv-y="1000" >
  <font-face 
    font-family="Erbaum"
    font-weight="400"
    font-stretch="normal"
    units-per-em="1000"
    panose-1="0 0 5 0 0 0 0 0 0 0"
    ascent="800"
    descent="-200"
    x-height="569"
    cap-height="709"
    bbox="-585 -310 1634 1055"
    underline-thickness="50"
    underline-position="-200"
    unicode-range="U+0020-25CA"
  />
<missing-glyph horiz-adv-x="497" vert-adv-y="993" 
d="M407 764v-993h-315v993h315zM331 697h-164v-32h64v-37h-65v-33h165v33h-66v37h66v32zM265 569h-99v-103h165v34h-66v69zM231 536v-36h-32v36h32zM331 439h-165v-32h65v-37h-65v-33h99v70h66v32zM331 380h-33v-66h-132v-34h165v100zM331 259h-100v-56h34v23h33v-47h-99v80
h-33v-113h165v113zM331 87h-165v-112h165v112zM298 54v-47h-99v47h99zM331 -48h-165v-33h69l-69 -47v-32h165v32h-102l70 47h32v33z" />
    <glyph glyph-name=".notdef" horiz-adv-x="497" vert-adv-y="993" 
d="M407 764v-993h-315v993h315zM331 697h-164v-32h64v-37h-65v-33h165v33h-66v37h66v32zM265 569h-99v-103h165v34h-66v69zM231 536v-36h-32v36h32zM331 439h-165v-32h65v-37h-65v-33h99v70h66v32zM331 380h-33v-66h-132v-34h165v100zM331 259h-100v-56h34v23h33v-47h-99v80
h-33v-113h165v113zM331 87h-165v-112h165v112zM298 54v-47h-99v47h99zM331 -48h-165v-33h69l-69 -47v-32h165v32h-102l70 47h32v33z" />
    <glyph glyph-name=".null" horiz-adv-x="0" vert-adv-y="0" 
 />
    <glyph glyph-name="nonmarkingreturn" horiz-adv-x="333" 
 />
    <glyph glyph-name="space" unicode=" " horiz-adv-x="271" vert-adv-y="993" 
 />
    <glyph glyph-name="exclam" unicode="!" horiz-adv-x="308" vert-adv-y="993" 
d="M101 233l-9 252v224h125v-224l-9 -252h-107zM153 -10q-48 0 -65 15t-17 57v12q0 42 17 57t65 15h2q48 0 65 -15t17 -57v-12q0 -42 -17 -57t-65 -15h-2z" />
    <glyph glyph-name="quotedbl" unicode="&#x22;" horiz-adv-x="475" vert-adv-y="993" 
d="M71 412v297h125l-22 -297h-103zM279 412v297h125l-23 -297h-102z" />
    <glyph glyph-name="numbersign" unicode="#" horiz-adv-x="880" vert-adv-y="993" 
d="M787 444h-126l-34 -164h127l-22 -107h-127l-35 -173h-122l35 173h-164l-35 -173h-122l35 173h-126l22 107h126l34 164h-127l23 108h126l32 157h122l-32 -157h164l32 157h122l-32 -157h126zM505 280l34 164h-164l-34 -164h164z" />
    <glyph glyph-name="dollar" unicode="$" horiz-adv-x="745" vert-adv-y="993" 
d="M488 401q94 -13 131.5 -50t37.5 -116v-66q0 -92 -45.5 -135.5t-142.5 -43.5h-36v-100h-125v100h-31q-97 0 -143 43.5t-46 134.5q0 8 1 11l124 15v-7q0 -50 22 -70t77 -20h122q55 0 76.5 20t21.5 71v17q0 41 -19 57.5t-78 24.5l-173 25q-94 14 -132 50.5t-38 114.5v62
q0 92 46 136t142 44h31v100h125v-100h29q97 0 142.5 -43.5t45.5 -134.5v-11l-125 -15v7q0 50 -21.5 69.5t-76.5 19.5h-113q-56 0 -78 -20t-22 -71v-12q0 -42 18.5 -57.5t79.5 -24.5z" />
    <glyph glyph-name="percent" unicode="%" horiz-adv-x="1229" vert-adv-y="993" 
d="M187 252q-116 0 -116 112v243q0 112 116 112h165q115 0 115 -112v-243q0 -112 -115 -112h-165zM430 0l260 709h109l-260 -709h-109zM230 332h79q36 0 49 12t13 45v192q0 33 -13 45.5t-49 12.5h-79q-36 0 -49.5 -12.5t-13.5 -45.5v-192q0 -33 13.5 -45t49.5 -12zM877 -10
q-115 0 -115 112v243q0 111 115 111h165q116 0 116 -111v-243q0 -112 -116 -112h-165zM920 70h78q37 0 50 12t13 45v192q0 33 -13 45.5t-50 12.5h-78q-36 0 -49 -12.5t-13 -45.5v-192q0 -32 13 -44.5t49 -12.5z" />
    <glyph glyph-name="ampersand" unicode="&#x26;" horiz-adv-x="792" vert-adv-y="993" 
d="M747 414v-107h-95v-139q0 -91 -46 -134.5t-142 -43.5h-193q-97 0 -142.5 43.5t-45.5 135.5v48q0 62 20.5 98t69.5 55q-42 23 -60 54t-18 77v38q0 92 45.5 136t142.5 44h176q97 0 142.5 -43.5t45.5 -134.5v-11l-125 -15v7q0 50 -21.5 69.5t-76.5 19.5h-106
q-55 0 -76.5 -20t-21.5 -71v-23q0 -48 20.5 -65.5t77.5 -17.5h429zM527 187v120h-221q-55 0 -76.5 -19.5t-21.5 -69.5v-30q0 -51 21.5 -71t76.5 -20h122q55 0 77 20t22 70z" />
    <glyph glyph-name="quotesingle" unicode="'" horiz-adv-x="267" vert-adv-y="993" 
d="M71 412v297h125l-22 -297h-103z" />
    <glyph glyph-name="parenleft" unicode="(" horiz-adv-x="448" vert-adv-y="993" 
d="M377 667h-82q-55 0 -77 -20t-22 -71v-616q0 -51 22 -71t77 -20h82v-108h-117q-97 0 -143 44t-46 136v654q0 92 46 135.5t143 43.5h117v-107z" />
    <glyph glyph-name="parenright" unicode=")" horiz-adv-x="448" vert-adv-y="993" 
d="M71 667v107h118q97 0 142.5 -43.5t45.5 -135.5v-654q0 -92 -45.5 -136t-142.5 -44h-118v108h83q55 0 76.5 20t21.5 71v616q0 51 -21.5 71t-76.5 20h-83z" />
    <glyph glyph-name="asterisk" unicode="*" horiz-adv-x="579" vert-adv-y="993" 
d="M508 570l-163 -36l120 -115l-89 -73l-86 143l-86 -143l-90 73l121 115l-164 36l39 108l142 -73l-20 159h115l-20 -159l142 73z" />
    <glyph glyph-name="plus" unicode="+" horiz-adv-x="643" vert-adv-y="993" 
d="M572 383v-108h-196v-196h-109v196h-196v108h196v196h109v-196h196z" />
    <glyph glyph-name="comma" unicode="," horiz-adv-x="308" vert-adv-y="993" 
d="M155 146q48 0 65 -15t17 -57v-12v-1q0 -90 -32.5 -149.5t-108.5 -112.5l-46 66q73 61 85 125q-37 3 -50.5 18.5t-13.5 53.5v12q0 42 17 57t65 15h2z" />
    <glyph glyph-name="hyphen" unicode="-" horiz-adv-x="642" vert-adv-y="993" 
d="M71 275v108h500v-108h-500z" />
    <glyph glyph-name="period" unicode="." horiz-adv-x="308" vert-adv-y="993" 
d="M153 -10q-48 0 -65 15t-17 57v12q0 42 17 57t65 15h2q48 0 65 -15t17 -57v-12q0 -42 -17 -57t-65 -15h-2z" />
    <glyph glyph-name="slash" unicode="/" horiz-adv-x="536" vert-adv-y="993" 
d="M71 0l268 764h126l-268 -764h-126z" />
    <glyph glyph-name="zero" unicode="0" horiz-adv-x="764" vert-adv-y="993" 
d="M477 719q97 0 142.5 -44t45.5 -136v-370q0 -92 -45.5 -135.5t-142.5 -43.5h-190q-97 0 -143 43.5t-46 135.5v370q0 92 46 136t143 44h190zM540 520q0 51 -21.5 71t-76.5 20h-120q-55 0 -77 -20t-22 -71v-332q0 -51 22 -71t77 -20h120q55 0 76.5 20t21.5 71v332z" />
    <glyph glyph-name="one" unicode="1" horiz-adv-x="638" vert-adv-y="993" 
d="M410 107h175v-107h-486v107h186v464l-156 -103l-58 98l219 143h120v-602z" />
    <glyph glyph-name="two" unicode="2" horiz-adv-x="722" vert-adv-y="993" 
d="M200 107h442v-107h-567v195q0 72 33.5 104.5t135.5 61.5l159 43q71 19 89 34.5t18 56.5v25q0 51 -22 71t-77 20h-104q-55 0 -76.5 -19.5t-21.5 -69.5v-7l-124 15q-1 3 -1 11q0 91 45.5 134.5t142.5 43.5h174q97 0 143 -44t46 -136v-83q0 -70 -35 -102t-143 -61l-158 -43
q-65 -18 -82 -33t-17 -56v-54z" />
    <glyph glyph-name="three" unicode="3" horiz-adv-x="701" vert-adv-y="993" 
d="M556 370q49 -19 69.5 -55t20.5 -98v-48q0 -92 -45.5 -135.5t-142.5 -43.5h-193q-97 0 -142.5 43.5t-45.5 134.5q0 8 1 11l124 15v-7q0 -50 21.5 -70t76.5 -20h123q55 0 76.5 20t21.5 71v30q0 50 -21.5 69.5t-76.5 19.5h-138v107h125q58 0 78.5 17.5t20.5 65.5v23
q0 51 -22 71t-77 20h-105q-55 0 -77 -19.5t-22 -69.5v-7l-124 15q-1 3 -1 11q0 91 46 134.5t143 43.5h176q96 0 142 -44t46 -136v-38q0 -46 -18 -77t-60 -54z" />
    <glyph glyph-name="four" unicode="4" horiz-adv-x="718" vert-adv-y="993" 
d="M672 246v-107h-124v-139h-125v139h-377v103l146 467h129l-143 -463h245l1 260h125l-1 -260h124z" />
    <glyph glyph-name="five" unicode="5" horiz-adv-x="744" vert-adv-y="993" 
d="M464 443q97 0 142.5 -44t45.5 -136v-94q0 -92 -45.5 -135.5t-142.5 -43.5h-190q-97 0 -143 43.5t-46 134.5q0 8 1 11l124 15v-7q0 -50 22 -70t77 -20h120q55 0 76.5 20t21.5 71v56q0 51 -21.5 71.5t-76.5 20.5h-114q-49 0 -70.5 -15t-26.5 -51l-123 18l36 421h490v-108
h-376l-16 -189q31 31 102 31h133z" />
    <glyph glyph-name="six" unicode="6" horiz-adv-x="764" vert-adv-y="993" 
d="M477 456q97 0 142.5 -43.5t45.5 -135.5v-107q0 -92 -45.5 -135.5t-142.5 -43.5h-190q-97 0 -143 43.5t-46 135.5v369q0 92 46 136t143 44h188q97 0 142.5 -43.5t45.5 -134.5v-11l-125 -15v7q0 50 -21.5 69.5t-76.5 19.5h-118q-55 0 -77 -20t-22 -71v-101q33 37 108 37
h146zM540 189v69q0 51 -21.5 71t-76.5 20h-120q-55 0 -77 -20t-22 -71v-69q0 -51 22 -71t77 -20h120q55 0 76.5 20t21.5 71z" />
    <glyph glyph-name="seven" unicode="7" horiz-adv-x="629" vert-adv-y="993" 
d="M38 709h553v-103l-307 -606h-139l304 601h-411v108z" />
    <glyph glyph-name="eight" unicode="8" horiz-adv-x="677" vert-adv-y="993" 
d="M535 367q47 -19 67 -54.5t20 -96.5v-47q0 -91 -46 -135t-142 -44h-191q-97 0 -142.5 43.5t-45.5 135.5v47q0 61 20 96.5t67 54.5q-41 21 -57.5 51t-16.5 81v40q0 92 45 136t139 44h172q94 0 139.5 -44t45.5 -136v-40q0 -51 -16.5 -81t-57.5 -51zM193 520v-24
q0 -49 20.5 -66t77.5 -17h94q57 0 78 17.5t21 65.5v24q0 51 -22 71t-77 20h-94q-55 0 -76.5 -20t-21.5 -71zM497 188v28q0 50 -21.5 69.5t-77.5 19.5h-120q-55 0 -76.5 -19.5t-21.5 -69.5v-28q0 -51 21.5 -71t76.5 -20h120q55 0 77 20t22 71z" />
    <glyph glyph-name="nine" unicode="9" horiz-adv-x="764" vert-adv-y="993" 
d="M477 719q97 0 142.5 -44t45.5 -136v-369q0 -92 -45.5 -135.5t-142.5 -43.5h-188q-97 0 -143 43.5t-46 134.5q0 7 1 10l124 15v-6q0 -50 22 -70t77 -20h118q55 0 76.5 20t21.5 71v101q-31 -37 -107 -37h-146q-97 0 -143 43.5t-46 135.5v107q0 92 46 136t143 44h190z
M442 360q55 0 76.5 20t21.5 71v69q0 51 -21.5 71t-76.5 20h-120q-55 0 -77 -20t-22 -71v-69q0 -51 22 -71t77 -20h120z" />
    <glyph glyph-name="colon" unicode=":" horiz-adv-x="308" vert-adv-y="993" 
d="M153 377q-48 0 -65 14.5t-17 57.5v11q0 43 17 58t65 15h2q48 0 65 -15t17 -58v-11q0 -43 -17 -57.5t-65 -14.5h-2zM153 -10q-48 0 -65 15t-17 57v12q0 42 17 57t65 15h2q48 0 65 -15t17 -57v-12q0 -42 -17 -57t-65 -15h-2z" />
    <glyph glyph-name="semicolon" unicode=";" horiz-adv-x="308" vert-adv-y="993" 
d="M155 533q48 0 65 -15t17 -58v-11q0 -43 -17 -57.5t-65 -14.5h-2q-48 0 -65 14.5t-17 57.5v11q0 43 17 58t65 15h2zM155 146q48 0 65 -15t17 -57v-12v-1q0 -90 -32.5 -149.5t-108.5 -112.5l-46 66q73 61 85 125q-37 3 -50.5 18.5t-13.5 53.5v12q0 42 17 57t65 15h2z" />
    <glyph glyph-name="less" unicode="&#x3c;" horiz-adv-x="612" vert-adv-y="993" 
d="M541 556v-112l-344 -121l344 -122v-112l-470 167v133z" />
    <glyph glyph-name="equal" unicode="=" horiz-adv-x="642" vert-adv-y="993" 
d="M71 375v108h500v-108h-500zM71 152v107h500v-107h-500z" />
    <glyph glyph-name="greater" unicode="&#x3e;" horiz-adv-x="612" vert-adv-y="993" 
d="M71 556l470 -167v-133l-470 -167v112l344 122l-344 121v112z" />
    <glyph glyph-name="question" unicode="?" horiz-adv-x="672" vert-adv-y="993" 
d="M424 719q97 0 142.5 -44t45.5 -136v-50q0 -92 -45.5 -136t-142.5 -44h-43l-3 -76h-108l-7 175h126q55 0 76.5 20t21.5 71v21q0 51 -21.5 71t-76.5 20h-106q-55 0 -76.5 -19.5t-21.5 -69.5v-7l-125 15v11q0 91 45.5 134.5t142.5 43.5h176zM325 146q48 0 65 -15t17 -57v-12
q0 -42 -17 -57t-65 -15h-2q-49 0 -65.5 15t-16.5 57v12q0 42 16.5 57t65.5 15h2z" />
    <glyph glyph-name="at" unicode="@" horiz-adv-x="1245" vert-adv-y="993" 
d="M972 803q95 0 136.5 -39t41.5 -127v-508q0 -74 -34 -106.5t-111 -32.5h-110q-102 0 -131 60q-29 -60 -124 -60h-124q-82 0 -121 37t-39 114v286q0 78 39 115t121 37h124q94 0 125 -61l9 51h102l-7 -108v-314q0 -36 13 -48.5t51 -12.5h34q37 0 50.5 12.5t13.5 48.5v472
q0 50 -21.5 69.5t-77.5 19.5h-621q-55 0 -75.5 -19.5t-20.5 -69.5v-673q0 -50 20.5 -69.5t75.5 -19.5h624v-96h-662q-95 0 -136.5 39t-41.5 128v709q0 88 41.5 127t136.5 39h699zM670 86q43 0 61.5 17.5t18.5 57.5v247q0 40 -18.5 57.5t-61.5 17.5h-115q-43 0 -61.5 -17.5
t-18.5 -57.5v-247q0 -40 18.5 -57.5t61.5 -17.5h115z" />
    <glyph glyph-name="A" unicode="A" horiz-adv-x="759" vert-adv-y="993" 
d="M585 0l-63 188h-285l-63 -188h-128l243 709h181l244 -709h-129zM274 295h212l-106 315z" />
    <glyph glyph-name="B" unicode="B" horiz-adv-x="711" vert-adv-y="993" 
d="M563 369q50 -19 71.5 -54.5t21.5 -96.5v-38q0 -92 -46 -136t-142 -44h-362v709h343q97 0 142.5 -44t45.5 -136v-27q0 -47 -17 -78t-57 -55zM512 510q0 51 -21.5 71t-76.5 20h-183v-188h183q57 0 77.5 17.5t20.5 65.5v14zM531 198v21q0 51 -21.5 70.5t-77.5 19.5h-201
v-202h201q55 0 77 20.5t22 70.5z" />
    <glyph glyph-name="C" unicode="C" horiz-adv-x="745" vert-adv-y="993" 
d="M284 -10q-97 0 -143 43.5t-46 135.5v370q0 92 46 136t143 44h190q97 0 142.5 -43.5t45.5 -134.5v-11l-125 -15v7q0 50 -21.5 69.5t-76.5 19.5h-120q-55 0 -77 -20t-22 -71v-332q0 -51 22 -71t77 -20h120q55 0 76.5 20t21.5 70v7l125 -15v-11q0 -91 -45.5 -134.5
t-142.5 -43.5h-190z" />
    <glyph glyph-name="D" unicode="D" horiz-adv-x="745" vert-adv-y="993" 
d="M462 709q96 0 142 -44t46 -136v-350q0 -91 -46 -135t-142 -44h-357v709h357zM525 198v312q0 51 -22 71t-77 20h-196v-494h196q55 0 77 20t22 71z" />
    <glyph glyph-name="E" unicode="E" horiz-adv-x="660" vert-adv-y="993" 
d="M603 601h-373v-183h331v-107h-331v-204h373v-107h-498v709h498v-108z" />
    <glyph glyph-name="F" unicode="F" horiz-adv-x="660" vert-adv-y="993" 
d="M603 601h-373v-201h331v-108h-331v-292h-125v709h498v-108z" />
    <glyph glyph-name="G" unicode="G" horiz-adv-x="758" vert-adv-y="993" 
d="M662 530l-125 -15v7q0 50 -21.5 69.5t-76.5 19.5h-120q-55 0 -77 -20t-22 -71v-332q0 -51 22 -71t77 -20h120q55 0 76.5 20t21.5 70v95h-191v107h316v-221q0 -91 -45.5 -134.5t-142.5 -43.5h-190q-97 0 -143 43.5t-46 135.5v370q0 92 46 136t143 44h190q97 0 142.5 -43.5
t45.5 -134.5v-11z" />
    <glyph glyph-name="H" unicode="H" horiz-adv-x="776" vert-adv-y="993" 
d="M546 709h125v-709h-125v307h-316v-307h-125v709h125v-295h316v295z" />
    <glyph glyph-name="I" unicode="I" horiz-adv-x="336" vert-adv-y="993" 
d="M105 0v709h125v-709h-125z" />
    <glyph glyph-name="J" unicode="J" horiz-adv-x="625" vert-adv-y="993" 
d="M162 709h358v-540q0 -92 -46 -135.5t-143 -43.5h-89q-96 0 -142 43.5t-46 134.5q0 8 1 11l124 15v-7q0 -50 22 -70t77 -20h18q55 0 77 20t22 71v413h-233v108z" />
    <glyph glyph-name="K" unicode="K" horiz-adv-x="751" vert-adv-y="993" 
d="M558 0l-236 307h-92v-307h-125v709h125v-295h91l217 295h147l-254 -348l274 -361h-147z" />
    <glyph glyph-name="L" unicode="L" horiz-adv-x="634" vert-adv-y="993" 
d="M230 107h358v-107h-483v709h125v-602z" />
    <glyph glyph-name="M" unicode="M" horiz-adv-x="908" vert-adv-y="993" 
d="M679 709h123v-709h-125v504l-200 -309h-48l-201 311v-506h-125v709h124l226 -350z" />
    <glyph glyph-name="N" unicode="N" horiz-adv-x="775" vert-adv-y="993" 
d="M547 709h125v-709h-123l-321 506v-506h-125v709h124l320 -504v504z" />
    <glyph glyph-name="O" unicode="O" horiz-adv-x="758" vert-adv-y="993" 
d="M474 719q97 0 142.5 -44t45.5 -136v-370q0 -92 -45.5 -135.5t-142.5 -43.5h-190q-97 0 -143 43.5t-46 135.5v370q0 92 46 136t143 44h190zM537 520q0 51 -21.5 71t-76.5 20h-120q-55 0 -77 -20t-22 -71v-332q0 -51 22 -71t77 -20h120q55 0 76.5 20t21.5 71v332z" />
    <glyph glyph-name="P" unicode="P" horiz-adv-x="703" vert-adv-y="993" 
d="M460 709q97 0 142.5 -44t45.5 -136v-82q0 -92 -45.5 -136t-142.5 -44h-230v-267h-125v709h355zM523 466v44q0 51 -21.5 71t-76.5 20h-195v-226h195q55 0 76.5 20t21.5 71z" />
    <glyph glyph-name="Q" unicode="Q" horiz-adv-x="758" vert-adv-y="993" 
d="M662 169q0 -123 -86 -162l86 -128h-144l-74 111h-160q-97 0 -143 43.5t-46 135.5v370q0 92 46 136t143 44h190q97 0 142.5 -44t45.5 -136v-370zM220 188q0 -51 22 -71t77 -20h120q55 0 76.5 20t21.5 71v332q0 51 -21.5 71t-76.5 20h-120q-55 0 -77 -20t-22 -71v-332z" />
    <glyph glyph-name="R" unicode="R" horiz-adv-x="757" vert-adv-y="993" 
d="M564 0l-213 273h-121v-273h-125v709h357q96 0 142 -44t46 -136v-77q0 -161 -148 -177l209 -275h-147zM230 601v-220h196q56 0 77.5 19.5t21.5 70.5v39q0 51 -22 71t-77 20h-196z" />
    <glyph glyph-name="S" unicode="S" horiz-adv-x="745" vert-adv-y="993" 
d="M277 -10q-97 0 -143 43.5t-46 134.5q0 8 1 11l124 15v-7q0 -50 22 -70t77 -20h122q55 0 76.5 20t21.5 71v17q0 41 -19 57.5t-78 24.5l-173 25q-94 14 -132 50.5t-38 114.5v62q0 92 46 136t142 44h185q97 0 142.5 -43.5t45.5 -134.5v-11l-125 -15v7q0 50 -21.5 69.5
t-76.5 19.5h-113q-56 0 -78 -20t-22 -71v-12q0 -42 18.5 -57.5t79.5 -24.5l173 -25q94 -13 131.5 -50t37.5 -116v-66q0 -92 -45.5 -135.5t-142.5 -43.5h-192z" />
    <glyph glyph-name="T" unicode="T" horiz-adv-x="666" vert-adv-y="993" 
d="M620 709v-108h-225v-601h-125v601h-224v108h574z" />
    <glyph glyph-name="U" unicode="U" horiz-adv-x="762" vert-adv-y="993" 
d="M658 709v-540q0 -92 -45.5 -135.5t-142.5 -43.5h-176q-97 0 -143 43.5t-46 135.5v540h125v-521q0 -51 22 -71t77 -20h106q55 0 76.5 20t21.5 71v521h125z" />
    <glyph glyph-name="V" unicode="V" horiz-adv-x="744" vert-adv-y="993" 
d="M570 709h129l-241 -709h-172l-240 709h128l198 -593z" />
    <glyph glyph-name="W" unicode="W" horiz-adv-x="1098" vert-adv-y="993" 
d="M926 709h127l-187 -709h-172l-145 583l-144 -583h-172l-187 709h126l147 -592l146 592h168l147 -592z" />
    <glyph glyph-name="X" unicode="X" horiz-adv-x="752" vert-adv-y="993" 
d="M707 0h-148l-183 268l-183 -268h-147l243 361l-230 348h147l170 -254l170 254h148l-231 -349z" />
    <glyph glyph-name="Y" unicode="Y" horiz-adv-x="749" vert-adv-y="993" 
d="M704 709l-267 -463v-246h-125v246l-266 463h139l191 -328l188 328h140z" />
    <glyph glyph-name="Z" unicode="Z" horiz-adv-x="673" vert-adv-y="993" 
d="M222 107h392v-107h-554v103l388 498h-371v108h532v-103z" />
    <glyph glyph-name="bracketleft" unicode="[" horiz-adv-x="448" vert-adv-y="993" 
d="M377 657h-181v-778h181v-108h-306v993h306v-107z" />
    <glyph glyph-name="backslash" unicode="\" horiz-adv-x="539" vert-adv-y="993" 
d="M468 0h-126l-268 764h125z" />
    <glyph glyph-name="bracketright" unicode="]" horiz-adv-x="448" vert-adv-y="993" 
d="M71 764h306v-993h-306v108h181v778h-181v107z" />
    <glyph glyph-name="asciicircum" unicode="^" horiz-adv-x="565" vert-adv-y="993" 
d="M494 446h-116l-95 211l-96 -211h-116l145 318h134z" />
    <glyph glyph-name="underscore" unicode="_" horiz-adv-x="642" vert-adv-y="993" 
d="M71 -132v107h500v-107h-500z" />
    <glyph glyph-name="grave" unicode="`" horiz-adv-x="600" vert-adv-y="993" 
d="M346 650l-275 120l36 89l275 -120z" />
    <glyph glyph-name="a" unicode="a" vert-adv-y="559" 
d="M601 0h-102l-7 41q-34 -51 -127 -51h-119q-82 0 -121 37t-39 115v52q0 75 38.5 110t121.5 35h188q29 0 40 -7v76q0 40 -18.5 57.5t-61.5 17.5h-104q-43 0 -61.5 -17t-18.5 -57v-6l-119 11v13q0 77 39 114.5t120 37.5h184q81 0 120 -37.5t39 -114.5v-320zM394 86
q44 0 62 16.5t18 55.5v81q-8 4 -29 4h-160q-43 0 -61 -16.5t-18 -55.5v-13q0 -39 18 -55.5t61 -16.5h109z" />
    <glyph glyph-name="b" unicode="b" horiz-adv-x="704" vert-adv-y="993" 
d="M456 579q81 0 120 -37t39 -115v-286q0 -77 -39 -114t-120 -37h-125q-95 0 -125 61l-9 -51h-102l8 107v657h119v-222q33 37 109 37h125zM496 161v247q0 40 -18.5 57.5t-61.5 17.5h-114q-43 0 -61.5 -17.5t-18.5 -57.5v-247q0 -40 18.5 -57.5t61.5 -17.5h114
q43 0 61.5 17.5t18.5 57.5z" />
    <glyph glyph-name="c" unicode="c" horiz-adv-x="673" vert-adv-y="993" 
d="M248 -10q-82 0 -121 37t-39 114v286q0 78 39 115t121 37h185q81 0 120.5 -37t39.5 -115q0 -9 -1 -13l-119 -11v6q0 40 -18.5 57t-61.5 17h-106q-43 0 -61 -17.5t-18 -57.5v-247q0 -41 18 -58t61 -17h106q43 0 61.5 17t18.5 56v7l119 -11q1 -5 1 -14q0 -77 -39.5 -114
t-120.5 -37h-185z" />
    <glyph glyph-name="d" unicode="d" horiz-adv-x="704" vert-adv-y="993" 
d="M608 0h-102l-9 50q-16 -31 -44.5 -45.5t-79.5 -14.5h-125q-82 0 -121 37t-39 114v286q0 78 39 115t121 37h125q76 0 109 -37v222h119v-657zM402 86q43 0 61.5 17.5t18.5 57.5v247q0 40 -18.5 57.5t-61.5 17.5h-115q-43 0 -61 -17.5t-18 -57.5v-247q0 -41 18 -58t61 -17
h115z" />
    <glyph glyph-name="e" unicode="e" horiz-adv-x="682" vert-adv-y="993" 
d="M597 249h-391v-89q0 -40 18.5 -57t61.5 -17h112q42 0 61 17t19 57v6l118 -11q1 -4 1 -13q0 -78 -39 -115t-121 -37h-191q-81 0 -120 37t-39 115v285q0 77 39 114.5t120 37.5h191q82 0 121 -37.5t39 -114.5v-178zM286 483q-43 0 -61.5 -17.5t-18.5 -57.5v-63h272v63
q0 40 -18.5 57.5t-61.5 17.5h-112z" />
    <glyph glyph-name="f" unicode="f" horiz-adv-x="525" vert-adv-y="993" 
d="M377 679q-43 0 -61.5 -17.5t-18.5 -57.5v-35h173v-96h-173v-473h-120v473h-139v96h139v54q0 77 39.5 114t120.5 37h133v-95h-93z" />
    <glyph glyph-name="g" unicode="g" horiz-adv-x="704" vert-adv-y="559" 
d="M506 569h102l-7 -108v-548q0 -78 -39 -115t-121 -37h-193q-82 0 -121 37t-39 115q0 9 1 13l119 11v-6q0 -40 18.5 -57t60.5 -17h115q43 0 61.5 17.5t18.5 57.5v95q-33 -37 -109 -37h-125q-82 0 -121 37t-39 114v286q0 78 39 115t121 37h125q51 0 79.5 -14.5t44.5 -45.5z
M402 86q43 0 61.5 17.5t18.5 57.5v247q0 40 -18.5 57.5t-61.5 17.5h-115q-43 0 -61 -17.5t-18 -57.5v-247q0 -41 18 -58t61 -17h115z" />
    <glyph glyph-name="h" unicode="h" horiz-adv-x="680" vert-adv-y="993" 
d="M430 579q82 0 121 -37t39 -115v-427h-119v408q0 40 -18.5 57.5t-61.5 17.5h-97q-43 0 -61 -17.5t-18 -57.5v-408h-120v764h120v-219q33 34 106 34h109z" />
    <glyph glyph-name="i" unicode="i" horiz-adv-x="510" vert-adv-y="993" 
d="M250 687q-45 0 -62.5 11.5t-17.5 41.5v13q0 31 17 42t63 11h1q46 0 63 -11t17 -42v-13q0 -30 -17.5 -41.5t-62.5 -11.5h-1zM332 96h143v-96h-406v96h143v377h-143v96h263v-473z" />
    <glyph glyph-name="j" unicode="j" horiz-adv-x="385" vert-adv-y="993" 
d="M210 687q-45 0 -62.5 11.5t-17.5 41.5v13q0 31 17 42t63 11h1q46 0 63 -11t17 -42v-13q0 -30 -17.5 -41.5t-62.5 -11.5h-1zM46 569h246v-656q0 -78 -39 -115t-121 -37h-142v96h103q43 0 61.5 17.5t18.5 57.5v541h-127v96z" />
    <glyph glyph-name="k" unicode="k" horiz-adv-x="652" vert-adv-y="993" 
d="M472 0l-188 248h-69v-248h-120v764h120v-420h68l174 225h145l-209 -272l223 -297h-144z" />
    <glyph glyph-name="l" unicode="l" horiz-adv-x="372" vert-adv-y="993" 
d="M294 86h42v-96h-81q-81 0 -120.5 37t-39.5 114v623h120v-603q0 -41 18 -58t61 -17z" />
    <glyph glyph-name="m" unicode="m" horiz-adv-x="977" vert-adv-y="993" 
d="M727 579q82 0 121 -37t39 -115v-427h-119v408q0 40 -18.5 57.5t-61.5 17.5h-54q-43 0 -61.5 -17.5t-18.5 -57.5v-408h-119v408q0 40 -18.5 57.5t-61.5 17.5h-53q-43 0 -61.5 -17.5t-18.5 -57.5v-408h-119v461l-8 108h102l8 -47q31 57 123 57h67q105 0 140 -63
q16 33 45 48t81 15h66z" />
    <glyph glyph-name="n" unicode="n" horiz-adv-x="684" vert-adv-y="993" 
d="M434 579q82 0 121 -37t39 -115v-427h-119v408q0 40 -18.5 57.5t-61.5 17.5h-93q-43 0 -61.5 -17.5t-18.5 -57.5v-408h-119v461l-8 108h102l8 -47q31 57 123 57h106z" />
    <glyph glyph-name="o" unicode="o" vert-adv-y="993" 
d="M248 -10q-82 0 -121 37t-39 114v286q0 78 39 115t121 37h198q81 0 120 -37t39 -115v-286q0 -77 -39 -114t-120 -37h-198zM287 86h119q43 0 61.5 17.5t18.5 57.5v247q0 40 -18.5 57.5t-61.5 17.5h-119q-43 0 -61 -17.5t-18 -57.5v-247q0 -41 18 -58t61 -17z" />
    <glyph glyph-name="p" unicode="p" horiz-adv-x="704" vert-adv-y="993" 
d="M456 579q81 0 120 -37t39 -115v-286q0 -77 -39 -114t-120 -37h-125q-76 0 -109 37v-256h-119v690l-8 108h102l9 -51q31 61 125 61h125zM496 161v247q0 40 -18.5 57.5t-61.5 17.5h-114q-43 0 -61.5 -17.5t-18.5 -57.5v-247q0 -40 18.5 -57.5t61.5 -17.5h114
q43 0 61.5 17.5t18.5 57.5z" />
    <glyph glyph-name="q" unicode="q" horiz-adv-x="704" vert-adv-y="993" 
d="M506 569h102l-7 -108v-690h-119v256q-33 -37 -109 -37h-125q-82 0 -121 37t-39 114v286q0 78 39 115t121 37h125q51 0 79.5 -14.5t44.5 -45.5zM402 86q43 0 61.5 17.5t18.5 57.5v247q0 40 -18.5 57.5t-61.5 17.5h-115q-43 0 -61 -17.5t-18 -57.5v-247q0 -41 18 -58
t61 -17h115z" />
    <glyph glyph-name="r" unicode="r" horiz-adv-x="678" vert-adv-y="993" 
d="M625 414l-119 -11v6q0 40 -18.5 57t-61.5 17h-19q-43 0 -61.5 -17.5t-18.5 -57.5v-312h202v-96h-464v96h143v365l-1 12h-142v96h238l9 -51q32 61 122 61h32q81 0 120 -37t39 -115v-13z" />
    <glyph glyph-name="s" unicode="s" horiz-adv-x="656" vert-adv-y="993" 
d="M234 -10q-83 0 -121.5 36t-38.5 113q0 10 1 13l118 11v-7q0 -39 19 -56t61 -17h114q40 0 57.5 16.5t17.5 53.5v10q0 32 -18 44t-80 21l-131 19q-87 13 -120.5 42.5t-33.5 93.5v43q0 79 39 116t121 37h180q82 0 120.5 -36t38.5 -113v-13l-119 -11v6q0 40 -18.5 57
t-61.5 17h-105q-40 0 -58 -16.5t-18 -53.5v-10q0 -29 17.5 -40.5t75.5 -20.5l130 -19q91 -13 126 -43t35 -96v-44q0 -79 -39 -116t-121 -37h-188z" />
    <glyph glyph-name="t" unicode="t" horiz-adv-x="543" vert-adv-y="993" 
d="M481 473h-201v-312q0 -40 18.5 -57.5t61.5 -17.5h121v-96h-161q-81 0 -120 37t-39 114v332h-125v96h125v108h119v-108h201v-96z" />
    <glyph glyph-name="u" unicode="u" horiz-adv-x="679" vert-adv-y="559" 
d="M583 0h-102l-9 50q-16 -31 -44.5 -45.5t-79.5 -14.5h-98q-81 0 -120.5 37t-39.5 114v428h119l1 -408q0 -41 18 -58t61 -17h88q43 0 61.5 17.5t18.5 57.5v408h119v-462z" />
    <glyph glyph-name="v" unicode="v" horiz-adv-x="616" vert-adv-y="993" 
d="M457 569h123l-191 -569h-162l-191 569h123l149 -464z" />
    <glyph glyph-name="w" unicode="w" horiz-adv-x="933" vert-adv-y="993" 
d="M778 569h119l-155 -569h-160l-115 462l-116 -462h-160l-155 569h119l117 -460l116 460h157l117 -460z" />
    <glyph glyph-name="x" unicode="x" horiz-adv-x="647" vert-adv-y="993" 
d="M612 0h-141l-147 206l-148 -206h-140l210 290l-205 279h141l142 -198l141 198h141l-204 -279z" />
    <glyph glyph-name="y" unicode="y" horiz-adv-x="616" vert-adv-y="993" 
d="M457 569h123l-225 -667q-29 -88 -59 -114.5t-103 -26.5h-134v96h96q40 0 54 10.5t29 52.5l26 80h-37l-191 569h123l149 -462z" />
    <glyph glyph-name="z" unicode="z" horiz-adv-x="604" vert-adv-y="993" 
d="M212 96h334v-96h-488v89l328 384h-315v96h469v-89z" />
    <glyph glyph-name="braceleft" unicode="{" horiz-adv-x="568" vert-adv-y="993" 
d="M316 400q0 -52 -17.5 -83t-57.5 -49q40 -18 57.5 -49t17.5 -83v-176q0 -51 22 -71t77 -20h82v-108h-118q-96 0 -142 44t-46 136v210q0 35 -13.5 49t-46.5 14h-60v108h60q33 0 46.5 14t13.5 49v210q0 92 46 135.5t142 43.5h118v-107h-82q-55 0 -77 -20t-22 -71v-176z" />
    <glyph glyph-name="bar" unicode="|" horiz-adv-x="267" vert-adv-y="993" 
d="M71 -229v993h125v-993h-125z" />
    <glyph glyph-name="braceright" unicode="}" horiz-adv-x="568" vert-adv-y="993" 
d="M437 322h60v-108h-60q-32 0 -46 -14.5t-14 -48.5v-210q0 -92 -45.5 -136t-142.5 -44h-118v108h83q55 0 76.5 20t21.5 71v176q0 52 17.5 83t57.5 49q-40 18 -57.5 49t-17.5 83v176q0 51 -21.5 71t-76.5 20h-83v107h118q97 0 142.5 -43.5t45.5 -135.5v-210q0 -34 14 -48.5
t46 -14.5z" />
    <glyph glyph-name="asciitilde" unicode="~" horiz-adv-x="600" vert-adv-y="993" 
d="M50 275l83 28q66 23 129 -8l74 -38q63 -32 131 -9l83 28v108l-83 -28q-67 -23 -129 8l-74 38q-64 33 -131 9l-83 -28v-108z" />
    <glyph glyph-name="exclamdown" unicode="&#xa1;" horiz-adv-x="308" vert-adv-y="993" 
d="M153 579h2q48 0 65 -15t17 -58v-11q0 -43 -17 -57.5t-65 -14.5h-2q-48 0 -65 14.5t-17 57.5v11q0 43 17 58t65 15zM101 336h107l9 -253v-223h-125v223z" />
    <glyph glyph-name="cent" unicode="&#xa2;" horiz-adv-x="673" vert-adv-y="993" 
d="M473 166l119 -11q1 -5 1 -14q0 -77 -39.5 -114t-120.5 -37h-36v-100h-125v100h-24q-82 0 -121 37t-39 114v286q0 78 39 115t121 37h24v100h125v-100h36q81 0 120.5 -37t39.5 -115q0 -9 -1 -13l-119 -11v6q0 40 -18.5 57t-61.5 17h-106q-43 0 -61 -17.5t-18 -57.5v-247
q0 -41 18 -58t61 -17h106q43 0 61.5 17t18.5 56v7z" />
    <glyph glyph-name="sterling" unicode="&#xa3;" horiz-adv-x="802" vert-adv-y="993" 
d="M711 530l-125 -15v7q0 50 -21.5 69.5t-76.5 19.5h-104q-55 0 -77 -20t-22 -71v-130h279v-107h-279v-176h426v-107h-665v107h114v176h-114v107h114v149q0 92 46 136t143 44h174q97 0 142.5 -43.5t45.5 -134.5v-11z" />
    <glyph glyph-name="currency" unicode="&#xa4;" horiz-adv-x="750" vert-adv-y="993" 
d="M614 270q0 -38 -9 -65l90 -87l-88 -88l-92 95q-27 -6 -61 -6h-158q-34 0 -60 6l-92 -95l-89 88l91 87q-9 29 -9 65v117q0 37 9 64l-91 88l89 89l91 -96q25 7 61 7h158q36 0 61 -7l92 96l88 -89l-90 -87q9 -29 9 -65v-117zM414 215q43 0 61.5 17t18.5 57v79
q0 40 -18.5 57.5t-61.5 17.5h-78q-43 0 -61.5 -17.5t-18.5 -57.5v-79q0 -40 18.5 -57t61.5 -17h78z" />
    <glyph glyph-name="yen" unicode="&#xa5;" horiz-adv-x="749" vert-adv-y="993" 
d="M704 709l-226 -391h110v-83h-151v-68h151v-82h-151v-85h-125v85h-150v82h150v68h-150v83h109l-225 391h139l191 -328l188 328h140z" />
    <glyph glyph-name="brokenbar" unicode="&#xa6;" horiz-adv-x="267" vert-adv-y="993" 
d="M71 353v411h125v-411h-125zM196 183v-412h-125v412h125z" />
    <glyph glyph-name="section" unicode="&#xa7;" horiz-adv-x="658" vert-adv-y="993" 
d="M587 320q0 -78 -38 -115q24 -28 24 -84v-42q0 -79 -38.5 -116t-120.5 -37h-180q-83 0 -121.5 36t-38.5 113q0 10 1 13l119 11v-7q0 -39 18.5 -56t60.5 -17h105q40 0 58 16.5t18 53.5v9q0 29 -17.5 41t-74.5 20l-131 19q-91 14 -125.5 44t-34.5 96v62q0 80 38 115
q-24 28 -24 84v43q0 78 39 115t121 37h179q83 0 121.5 -36t38.5 -112q0 -10 -1 -14l-118 -11v7q0 40 -19 57t-61 17h-105q-40 0 -58 -16.5t-18 -53.5v-10q0 -29 17.5 -41t74.5 -20l131 -19q91 -13 125.5 -43t34.5 -96v-63zM289 277l115 -17q34 2 49 18.5t15 51.5v29
q0 32 -18 44t-80 21l-110 16q-37 -1 -53.5 -17.5t-16.5 -51.5v-30q0 -31 18.5 -43t80.5 -21z" />
    <glyph glyph-name="dieresis" unicode="&#xa8;" horiz-adv-x="600" vert-adv-y="993" 
d="M141 687q-38 0 -54 11.5t-16 41.5v13q0 31 15.5 42t54.5 11h1q39 0 54.5 -11t15.5 -42v-13q0 -30 -16 -41.5t-54 -11.5h-1zM370 687q-38 0 -54 11.5t-16 41.5v13q0 31 15.5 42t54.5 11h1q39 0 54.5 -11t15.5 -42v-13q0 -30 -16 -41.5t-54 -11.5h-1z" />
    <glyph glyph-name="copyright" unicode="&#xa9;" horiz-adv-x="682" vert-adv-y="993" 
d="M341 234q-119 0 -194.5 75.5t-75.5 194.5t75.5 194.5t194.5 75.5t194.5 -75.5t75.5 -194.5t-75.5 -194.5t-194.5 -75.5zM341 279q99 0 160.5 62.5t61.5 162.5t-61.5 162.5t-160.5 62.5q-98 0 -159.5 -62.5t-61.5 -162.5t61.5 -162.5t159.5 -62.5zM297 361q-78 0 -78 74
v138q0 74 78 74h90q77 0 77 -74v-6l-61 -6v4q0 17 -8.5 24.5t-28.5 7.5h-48q-22 0 -30 -7t-8 -27v-118q0 -20 8 -27t30 -7h48q20 0 28.5 7.5t8.5 24.5v4l61 -6v-6q0 -74 -77 -74h-90z" />
    <glyph glyph-name="guillemotleft" unicode="&#xab;" horiz-adv-x="629" vert-adv-y="993" 
d="M329 476l-120 -193l120 -194h-139l-119 193l119 194h139zM558 476l-120 -193l120 -194h-139l-119 193l119 194h139z" />
    <glyph glyph-name="logicalnot" unicode="&#xac;" horiz-adv-x="642" vert-adv-y="993" 
d="M71 408h500v-223h-133v115h-367v108z" />
    <glyph glyph-name="registered" unicode="&#xae;" horiz-adv-x="682" vert-adv-y="993" 
d="M341 774q119 0 194.5 -75.5t75.5 -194.5t-75.5 -194.5t-194.5 -75.5t-194.5 75.5t-75.5 194.5t75.5 194.5t194.5 75.5zM341 279q99 0 160.5 62.5t61.5 162.5t-61.5 162.5t-160.5 62.5q-98 0 -159.5 -62.5t-61.5 -162.5t61.5 -162.5t159.5 -62.5zM459 540q0 -57 -50 -68
l73 -98h-73l-73 96h-42v-96h-61v265h151q75 0 75 -70v-29zM294 589v-69h66q22 0 30 7.5t8 26.5v1q0 20 -8 27t-30 7h-66z" />
    <glyph glyph-name="macron" unicode="&#xaf;" horiz-adv-x="600" vert-adv-y="993" 
d="M71 798h349v-95h-349v95z" />
    <glyph glyph-name="degree" unicode="&#xb0;" horiz-adv-x="457" vert-adv-y="993" 
d="M237 774q77 0 113 -32t36 -101v-15q0 -70 -36 -102t-113 -32h-17q-77 0 -113 32t-36 102v15q0 69 36 101t113 32h17zM300 629v9q0 36 -15 50t-53 14h-7q-39 0 -54 -14t-15 -50v-9q0 -36 15 -50t54 -14h7q38 0 53 14t15 50z" />
    <glyph glyph-name="plusminus" unicode="&#xb1;" horiz-adv-x="643" vert-adv-y="993" 
d="M376 461h196v-107h-196v-118h-109v118h-196v107h196v118h109v-118zM71 74v107h501v-107h-501z" />
    <glyph glyph-name="uni00B2" unicode="&#xb2;" horiz-adv-x="538" vert-adv-y="993" 
d="M185 415h282v-80h-396v126q0 45 22 66t87 39l117 32q46 12 57.5 20.5t11.5 28.5v7q0 33 -13.5 45.5t-49.5 12.5h-70q-37 0 -50 -12.5t-13 -46.5v-4l-96 12v19q0 111 114 111h159q115 0 115 -112v-52q0 -50 -24.5 -71t-108.5 -44l-95 -26q-31 -8 -40 -17t-9 -33v-21z" />
    <glyph glyph-name="uni00B3" unicode="&#xb3;" horiz-adv-x="538" vert-adv-y="993" 
d="M409 563q32 -13 45 -34.5t13 -58.5v-33q0 -112 -115 -112h-165q-116 0 -116 112q0 15 1 18l95 12v-5q0 -33 13.5 -45t49.5 -12h78q36 0 49.5 12.5t13.5 45.5v2q0 32 -14 44t-51 12h-81v80h73q38 0 51 10t13 40v3q0 33 -13.5 45.5t-50.5 12.5h-65q-36 0 -49.5 -12
t-13.5 -45v-5l-96 11v19q0 111 115 111h154q115 0 115 -112v-31q0 -33 -10.5 -52t-38.5 -33z" />
    <glyph glyph-name="acute" unicode="&#xb4;" horiz-adv-x="600" vert-adv-y="993" 
d="M107 650l-36 89l275 120l36 -89z" />
    <glyph glyph-name="paragraph" unicode="&#xb6;" horiz-adv-x="738" vert-adv-y="993" 
d="M232 709h435v-938h-125v830h-185v-830h-125v551q-84 -1 -122.5 35.5t-38.5 117.5v80q0 81 38.5 117.5t122.5 36.5z" />
    <glyph glyph-name="periodcentered" unicode="&#xb7;" horiz-adv-x="308" vert-adv-y="993" 
d="M153 216q-48 0 -65 14.5t-17 57.5v11q0 43 17 58t65 15h2q48 0 65 -15t17 -58v-11q0 -43 -17 -57.5t-65 -14.5h-2z" />
    <glyph glyph-name="cedilla" unicode="&#xb8;" horiz-adv-x="600" vert-adv-y="993" 
d="M205 -51q56 0 81 -22.5t25 -72.5v-6q0 -49 -25.5 -72t-80.5 -23h-134v66h95q29 0 39 6.5t10 24.5v2q0 18 -10 25t-39 7h-95v28l43 94l100 -6l-23 -51h14z" />
    <glyph glyph-name="uni00B9" unicode="&#xb9;" horiz-adv-x="499" vert-adv-y="993" 
d="M313 415h115v-80h-332v80h121v262l-102 -68l-44 74l149 98h93v-366z" />
    <glyph glyph-name="guillemotright" unicode="&#xbb;" horiz-adv-x="623" vert-adv-y="993" 
d="M204 476l119 -194l-119 -193h-139l120 194l-120 193h139zM433 476l119 -194l-119 -193h-139l120 194l-120 193h139z" />
    <glyph glyph-name="onequarter" unicode="&#xbc;" horiz-adv-x="1188" vert-adv-y="993" 
d="M651 709h109l-261 -709h-108zM96 295h121v262l-102 -68l-44 74l149 98h93v-366h115v-80h-332v80zM1116 170v-79h-83v-91h-96v91h-259v77l75 278h97l-75 -276h162v164h96v-164h83z" />
    <glyph glyph-name="onehalf" unicode="&#xbd;" horiz-adv-x="1189" vert-adv-y="993" 
d="M651 709h109l-261 -709h-108zM96 295h121v262l-102 -68l-44 74l149 98h93v-366h115v-80h-332v80zM836 80h282v-80h-396v126q0 45 22 66t87 39l117 32q46 12 57.5 20.5t11.5 28.5v7q0 33 -13.5 45.5t-49.5 12.5h-70q-37 0 -50 -12.5t-13 -46.5v-4l-96 12v19q0 111 114 111
h159q115 0 115 -112v-52q0 -50 -24.5 -71t-108.5 -44l-95 -26q-31 -8 -40 -17t-9 -33v-21z" />
    <glyph glyph-name="threequarters" unicode="&#xbe;" horiz-adv-x="1227" vert-adv-y="993" 
d="M690 709h109l-261 -709h-108zM467 317q0 -112 -115 -112h-165q-116 0 -116 112q0 15 1 18l95 12v-5q0 -33 13.5 -45t49.5 -12h78q36 0 49.5 12.5t13.5 45.5v2q0 32 -14 44t-51 12h-81v80h73q38 0 51 10t13 40v3q0 33 -13.5 45.5t-50.5 12.5h-65q-36 0 -49.5 -12
t-13.5 -45v-5l-96 11v19q0 111 115 111h154q115 0 115 -112v-31q0 -33 -10.5 -52t-38.5 -33q32 -13 45 -34.5t13 -58.5v-33zM1155 170v-79h-83v-91h-96v91h-259v77l75 278h97l-75 -276h162v164h96v-164h83z" />
    <glyph glyph-name="questiondown" unicode="&#xbf;" horiz-adv-x="672" vert-adv-y="993" 
d="M347 423q-48 0 -65 14.5t-17 57.5v11q0 43 17 58t65 15h2q49 0 65.5 -15t16.5 -58v-11q0 -43 -16.5 -57.5t-65.5 -14.5h-2zM487 54l125 -15v-11q0 -91 -45.5 -134.5t-142.5 -43.5h-176q-97 0 -142.5 43.5t-45.5 135.5v51q0 92 45.5 135.5t142.5 43.5h43l3 77h107l8 -175
h-126q-55 0 -76.5 -20t-21.5 -71v-22q0 -51 21.5 -71t76.5 -20h106q55 0 76.5 20t21.5 70v7z" />
    <glyph glyph-name="Agrave" unicode="&#xc0;" horiz-adv-x="759" vert-adv-y="993" 
d="M495 879l-36 -89l-275 120l36 89zM585 0l-63 188h-285l-63 -188h-128l243 709h181l244 -709h-129zM274 295h212l-106 315z" />
    <glyph glyph-name="Aacute" unicode="&#xc1;" horiz-adv-x="759" vert-adv-y="993" 
d="M575 910l-275 -120l-36 89l275 120zM585 0l-63 188h-285l-63 -188h-128l243 709h181l244 -709h-129zM274 295h212l-106 315z" />
    <glyph glyph-name="Acircumflex" unicode="&#xc2;" horiz-adv-x="759" vert-adv-y="993" 
d="M382 887l-191 -88l-36 89l227 100l227 -100l-35 -89zM585 0l-63 188h-285l-63 -188h-128l243 709h181l244 -709h-129zM274 295h212l-106 315z" />
    <glyph glyph-name="Atilde" unicode="&#xc3;" horiz-adv-x="759" vert-adv-y="993" 
d="M472 818q-29 0 -93 23t-91 23q-31 0 -93 -21v96q60 20 93 20q29 0 93 -23t91 -23q24 0 93 21v-96q-60 -20 -93 -20zM585 0l-63 188h-285l-63 -188h-128l243 709h181l244 -709h-129zM274 295h212l-106 315z" />
    <glyph glyph-name="Adieresis" unicode="&#xc4;" horiz-adv-x="759" vert-adv-y="993" 
d="M265 827q-38 0 -54 11.5t-16 41.5v13q0 31 15.5 42t54.5 11h1q39 0 54.5 -11t15.5 -42v-13q0 -30 -16 -41.5t-54 -11.5h-1zM494 827q-38 0 -54 11.5t-16 41.5v13q0 31 15.5 42t54.5 11h1q39 0 54.5 -11t15.5 -42v-13q0 -30 -16 -41.5t-54 -11.5h-1zM585 0l-63 188h-285
l-63 -188h-128l243 709h181l244 -709h-129zM274 295h212l-106 315z" />
    <glyph glyph-name="Aring" unicode="&#xc5;" horiz-adv-x="759" vert-adv-y="993" 
d="M372 768q-68 0 -100 28.5t-32 90.5v13q0 62 32 90.5t100 28.5h15q68 0 100 -28.5t32 -90.5v-13q0 -62 -32 -90.5t-100 -28.5h-15zM316 897v-8q0 -32 13.5 -44t47.5 -12h6q34 0 47 12.5t13 43.5v8q0 32 -13 44.5t-47 12.5h-6q-35 0 -48 -12.5t-13 -44.5zM585 0l-63 188
h-285l-63 -188h-128l243 709h181l244 -709h-129zM274 295h212l-106 315z" />
    <glyph glyph-name="AE" unicode="&#xc6;" horiz-adv-x="998" vert-adv-y="993" 
d="M940 601h-372v-183h330v-107h-330v-204h372v-107h-497v188h-198l-71 -188h-128l268 709h626v-108zM285 295h158v306h-43z" />
    <glyph glyph-name="Ccedilla" unicode="&#xc7;" horiz-adv-x="745" vert-adv-y="993" 
d="M662 530l-125 -15v7q0 50 -21.5 69.5t-76.5 19.5h-120q-55 0 -77 -20t-22 -71v-332q0 -51 22 -71t77 -20h120q55 0 76.5 20t21.5 70v7l125 -15v-11q0 -91 -45.5 -134.5t-142.5 -43.5h-37l-18 -41h14q56 0 81 -22.5t25 -72.5v-6q0 -49 -25.5 -72t-80.5 -23h-134v66h95
q29 0 39 6.5t10 24.5v2q0 18 -10 25t-39 7h-95v28l36 78h-51q-97 0 -143 43.5t-46 135.5v370q0 92 46 136t143 44h190q97 0 142.5 -43.5t45.5 -134.5v-11z" />
    <glyph glyph-name="Egrave" unicode="&#xc8;" horiz-adv-x="660" vert-adv-y="993" 
d="M469 879l-36 -89l-275 120l36 89zM603 601h-373v-183h331v-107h-331v-204h373v-107h-498v709h498v-108z" />
    <glyph glyph-name="Eacute" unicode="&#xc9;" horiz-adv-x="660" vert-adv-y="993" 
d="M549 910l-275 -120l-36 89l275 120zM603 601h-373v-183h331v-107h-331v-204h373v-107h-498v709h498v-108z" />
    <glyph glyph-name="Ecircumflex" unicode="&#xca;" horiz-adv-x="660" vert-adv-y="993" 
d="M356 887l-191 -88l-36 89l227 100l227 -100l-35 -89zM603 601h-373v-183h331v-107h-331v-204h373v-107h-498v709h498v-108z" />
    <glyph glyph-name="Edieresis" unicode="&#xcb;" horiz-adv-x="660" vert-adv-y="993" 
d="M239 827q-38 0 -54 11.5t-16 41.5v13q0 31 15.5 42t54.5 11h1q39 0 54.5 -11t15.5 -42v-13q0 -30 -16 -41.5t-54 -11.5h-1zM468 827q-38 0 -54 11.5t-16 41.5v13q0 31 15.5 42t54.5 11h1q39 0 54.5 -11t15.5 -42v-13q0 -30 -16 -41.5t-54 -11.5h-1zM603 601h-373v-183
h331v-107h-331v-204h373v-107h-498v709h498v-108z" />
    <glyph glyph-name="Igrave" unicode="&#xcc;" horiz-adv-x="336" vert-adv-y="993" 
d="M247 790l-275 120l36 89l275 -120zM105 0v709h125v-709h-125z" />
    <glyph glyph-name="Iacute" unicode="&#xcd;" horiz-adv-x="336" vert-adv-y="993" 
d="M88 790l-36 89l275 120l36 -89zM105 0v709h125v-709h-125z" />
    <glyph glyph-name="Icircumflex" unicode="&#xce;" horiz-adv-x="336" vert-adv-y="993" 
d="M170 988l227 -100l-35 -89l-192 88l-191 -88l-36 89zM105 0v709h125v-709h-125z" />
    <glyph glyph-name="Idieresis" unicode="&#xcf;" horiz-adv-x="336" vert-adv-y="993" 
d="M53 827q-38 0 -54 11.5t-16 41.5v13q0 31 15.5 42t54.5 11h1q39 0 54.5 -11t15.5 -42v-13q0 -30 -16 -41.5t-54 -11.5h-1zM282 827q-38 0 -54 11.5t-16 41.5v13q0 31 15.5 42t54.5 11h1q39 0 54.5 -11t15.5 -42v-13q0 -30 -16 -41.5t-54 -11.5h-1zM105 0v709h125v-709
h-125z" />
    <glyph glyph-name="Eth" unicode="&#xd0;" horiz-adv-x="745" vert-adv-y="993" 
d="M462 709q96 0 142 -44t46 -136v-350q0 -91 -46 -135t-142 -44h-357v301h-76v107h76v301h357zM525 198v312q0 51 -22 71t-77 20h-196v-193h139v-107h-139v-194h196q55 0 77 20t22 71z" />
    <glyph glyph-name="Ntilde" unicode="&#xd1;" horiz-adv-x="775" vert-adv-y="993" 
d="M480 818q-29 0 -93 23t-91 23q-31 0 -93 -21v96q60 20 93 20q29 0 93 -23t91 -23q24 0 93 21v-96q-60 -20 -93 -20zM547 709h125v-709h-123l-321 506v-506h-125v709h124l320 -504v504z" />
    <glyph glyph-name="Ograve" unicode="&#xd2;" horiz-adv-x="758" vert-adv-y="993" 
d="M459 790l-275 120l36 89l275 -120zM474 719q97 0 142.5 -44t45.5 -136v-370q0 -92 -45.5 -135.5t-142.5 -43.5h-190q-97 0 -143 43.5t-46 135.5v370q0 92 46 136t143 44h190zM537 520q0 51 -21.5 71t-76.5 20h-120q-55 0 -77 -20t-22 -71v-332q0 -51 22 -71t77 -20h120
q55 0 76.5 20t21.5 71v332z" />
    <glyph glyph-name="Oacute" unicode="&#xd3;" horiz-adv-x="758" vert-adv-y="993" 
d="M300 790l-36 89l275 120l36 -89zM474 719q97 0 142.5 -44t45.5 -136v-370q0 -92 -45.5 -135.5t-142.5 -43.5h-190q-97 0 -143 43.5t-46 135.5v370q0 92 46 136t143 44h190zM537 520q0 51 -21.5 71t-76.5 20h-120q-55 0 -77 -20t-22 -71v-332q0 -51 22 -71t77 -20h120
q55 0 76.5 20t21.5 71v332z" />
    <glyph glyph-name="Ocircumflex" unicode="&#xd4;" horiz-adv-x="758" vert-adv-y="993" 
d="M382 887l-191 -88l-36 89l227 100l227 -100l-35 -89zM474 719q97 0 142.5 -44t45.5 -136v-370q0 -92 -45.5 -135.5t-142.5 -43.5h-190q-97 0 -143 43.5t-46 135.5v370q0 92 46 136t143 44h190zM537 188v332q0 51 -21.5 71t-76.5 20h-120q-55 0 -77 -20t-22 -71v-332
q0 -51 22 -71t77 -20h120q55 0 76.5 20t21.5 71z" />
    <glyph glyph-name="Otilde" unicode="&#xd5;" horiz-adv-x="758" vert-adv-y="993" 
d="M564 934v-96q-60 -20 -93 -20q-29 0 -93 23t-91 23q-31 0 -93 -21v96q60 20 93 20q29 0 93 -23t91 -23q24 0 93 21zM474 719q97 0 142.5 -44t45.5 -136v-370q0 -92 -45.5 -135.5t-142.5 -43.5h-190q-97 0 -143 43.5t-46 135.5v370q0 92 46 136t143 44h190zM537 520
q0 51 -21.5 71t-76.5 20h-120q-55 0 -77 -20t-22 -71v-332q0 -51 22 -71t77 -20h120q55 0 76.5 20t21.5 71v332z" />
    <glyph glyph-name="Odieresis" unicode="&#xd6;" horiz-adv-x="758" vert-adv-y="993" 
d="M264 827q-38 0 -54 11.5t-16 41.5v13q0 31 15.5 42t54.5 11h1q39 0 54.5 -11t15.5 -42v-13q0 -30 -16 -41.5t-54 -11.5h-1zM493 827q-38 0 -54 11.5t-16 41.5v13q0 31 15.5 42t54.5 11h1q39 0 54.5 -11t15.5 -42v-13q0 -30 -16 -41.5t-54 -11.5h-1zM474 719
q97 0 142.5 -44t45.5 -136v-370q0 -92 -45.5 -135.5t-142.5 -43.5h-190q-97 0 -143 43.5t-46 135.5v370q0 92 46 136t143 44h190zM537 520q0 51 -21.5 71t-76.5 20h-120q-55 0 -77 -20t-22 -71v-332q0 -51 22 -71t77 -20h120q55 0 76.5 20t21.5 71v332z" />
    <glyph glyph-name="multiply" unicode="&#xd7;" horiz-adv-x="572" vert-adv-y="993" 
d="M501 491l-139 -139l139 -139l-76 -76l-139 139l-139 -139l-76 76l139 139l-139 139l76 76l139 -139l139 139z" />
    <glyph glyph-name="Oslash" unicode="&#xd8;" horiz-adv-x="758" vert-adv-y="993" 
d="M584 698q78 -40 78 -159v-370q0 -92 -45.5 -135.5t-142.5 -43.5h-190q-32 0 -53 4l-47 -95h-64l56 111q-81 40 -81 159v370q0 92 46 136t143 44h190q33 0 54 -4l42 84h64zM220 188q0 -41 14 -62l241 483q-22 2 -36 2h-120q-55 0 -77 -20t-22 -71v-332zM537 188v332
q0 39 -12 60l-241 -481q20 -2 35 -2h120q55 0 76.5 20t21.5 71z" />
    <glyph glyph-name="Ugrave" unicode="&#xd9;" horiz-adv-x="762" vert-adv-y="993" 
d="M462 790l-275 120l36 89l275 -120zM658 709v-540q0 -92 -45.5 -135.5t-142.5 -43.5h-176q-97 0 -143 43.5t-46 135.5v540h125v-521q0 -51 22 -71t77 -20h106q55 0 76.5 20t21.5 71v521h125z" />
    <glyph glyph-name="Uacute" unicode="&#xda;" horiz-adv-x="762" vert-adv-y="993" 
d="M303 790l-36 89l275 120l36 -89zM658 709v-540q0 -92 -45.5 -135.5t-142.5 -43.5h-176q-97 0 -143 43.5t-46 135.5v540h125v-521q0 -51 22 -71t77 -20h106q55 0 76.5 20t21.5 71v521h125z" />
    <glyph glyph-name="Ucircumflex" unicode="&#xdb;" horiz-adv-x="762" vert-adv-y="993" 
d="M385 887l-191 -88l-36 89l227 100l227 -100l-35 -89zM533 709h125v-540q0 -92 -45.5 -135.5t-142.5 -43.5h-176q-97 0 -143 43.5t-46 135.5v540h125v-521q0 -51 22 -71t77 -20h106q55 0 76.5 20t21.5 71v521z" />
    <glyph glyph-name="Udieresis" unicode="&#xdc;" horiz-adv-x="762" vert-adv-y="993" 
d="M267 827q-38 0 -54 11.5t-16 41.5v13q0 31 15.5 42t54.5 11h1q39 0 54.5 -11t15.5 -42v-13q0 -30 -16 -41.5t-54 -11.5h-1zM496 827q-38 0 -54 11.5t-16 41.5v13q0 31 15.5 42t54.5 11h1q39 0 54.5 -11t15.5 -42v-13q0 -30 -16 -41.5t-54 -11.5h-1zM658 709v-540
q0 -92 -45.5 -135.5t-142.5 -43.5h-176q-97 0 -143 43.5t-46 135.5v540h125v-521q0 -51 22 -71t77 -20h106q55 0 76.5 20t21.5 71v521h125z" />
    <glyph glyph-name="Yacute" unicode="&#xdd;" horiz-adv-x="749" vert-adv-y="993" 
d="M570 910l-275 -120l-36 89l275 120zM704 709l-267 -463v-246h-125v246l-266 463h139l191 -328l188 328h140z" />
    <glyph glyph-name="Thorn" unicode="&#xde;" horiz-adv-x="703" vert-adv-y="993" 
d="M460 585q97 0 142.5 -43.5t45.5 -135.5v-83q0 -92 -45.5 -135.5t-142.5 -43.5h-230v-144h-125v709h125v-124h230zM523 342v45q0 51 -21.5 71t-76.5 20h-195v-227h195q55 0 76.5 20t21.5 71z" />
    <glyph glyph-name="germandbls" unicode="&#xdf;" horiz-adv-x="692" vert-adv-y="993" 
d="M555 400q36 -15 54.5 -43t18.5 -78v-129q0 -77 -39 -113.5t-121 -36.5h-196v96h157q43 0 61.5 16.5t18.5 56.5v107q0 39 -18.5 55.5t-61.5 16.5h-120v96h107q43 0 61 16.5t18 55.5v91q0 40 -17.5 56t-61.5 16h-122q-42 0 -60.5 -17t-18.5 -57v-605h-120v623
q0 77 39.5 114t120.5 37h206q79 0 116.5 -36t37.5 -112v-120q0 -69 -60 -106z" />
    <glyph glyph-name="agrave" unicode="&#xe0;" vert-adv-y="993" 
d="M460 738l-36 -89l-275 120l36 89zM601 0h-102l-7 41q-34 -51 -127 -51h-119q-82 0 -121 37t-39 115v52q0 75 38.5 110t121.5 35h188q29 0 40 -7v76q0 40 -18.5 57.5t-61.5 17.5h-104q-43 0 -61.5 -17t-18.5 -57v-6l-119 11v13q0 77 39 114.5t120 37.5h184q81 0 120 -37.5
t39 -114.5v-320zM394 86q44 0 62 16.5t18 55.5v81q-8 4 -29 4h-160q-43 0 -61 -16.5t-18 -55.5v-13q0 -39 18 -55.5t61 -16.5h109z" />
    <glyph glyph-name="aacute" unicode="&#xe1;" vert-adv-y="993" 
d="M540 769l-275 -120l-36 89l275 120zM601 0h-102l-7 41q-34 -51 -127 -51h-119q-82 0 -121 37t-39 115v52q0 75 38.5 110t121.5 35h188q29 0 40 -7v76q0 40 -18.5 57.5t-61.5 17.5h-104q-43 0 -61.5 -17t-18.5 -57v-6l-119 11v13q0 77 39 114.5t120 37.5h184
q81 0 120 -37.5t39 -114.5v-320zM394 86q44 0 62 16.5t18 55.5v81q-8 4 -29 4h-160q-43 0 -61 -16.5t-18 -55.5v-13q0 -39 18 -55.5t61 -16.5h109z" />
    <glyph glyph-name="acircumflex" unicode="&#xe2;" vert-adv-y="993" 
d="M348 746l-191 -88l-36 89l227 100l227 -100l-35 -89zM601 0h-102l-7 41q-34 -51 -127 -51h-119q-82 0 -121 37t-39 115v52q0 75 38.5 110t121.5 35h188q29 0 40 -7v76q0 40 -18.5 57.5t-61.5 17.5h-104q-43 0 -61.5 -17t-18.5 -57v-6l-119 11v13q0 77 39 114.5t120 37.5
h184q81 0 120 -37.5t39 -114.5v-320zM394 86q44 0 62 16.5t18 55.5v81q-8 4 -29 4h-160q-43 0 -61 -16.5t-18 -55.5v-13q0 -39 18 -55.5t61 -16.5h109z" />
    <glyph glyph-name="atilde" unicode="&#xe3;" vert-adv-y="993" 
d="M437 677q-29 0 -93 23t-91 23q-31 0 -93 -21v96q60 20 93 20q29 0 93 -23t91 -23q24 0 93 21v-96q-60 -20 -93 -20zM601 0h-102l-7 41q-34 -51 -127 -51h-119q-82 0 -121 37t-39 115v52q0 75 38.5 110t121.5 35h188q29 0 40 -7v76q0 40 -18.5 57.5t-61.5 17.5h-104
q-43 0 -61.5 -17t-18.5 -57v-6l-119 11v13q0 77 39 114.5t120 37.5h184q81 0 120 -37.5t39 -114.5v-320zM394 86q44 0 62 16.5t18 55.5v81q-8 4 -29 4h-160q-43 0 -61 -16.5t-18 -55.5v-13q0 -39 18 -55.5t61 -16.5h109z" />
    <glyph glyph-name="adieresis" unicode="&#xe4;" vert-adv-y="993" 
d="M230 686q-38 0 -54 11.5t-16 41.5v13q0 31 15.5 42t54.5 11h1q39 0 54.5 -11t15.5 -42v-13q0 -30 -16 -41.5t-54 -11.5h-1zM459 686q-38 0 -54 11.5t-16 41.5v13q0 31 15.5 42t54.5 11h1q39 0 54.5 -11t15.5 -42v-13q0 -30 -16 -41.5t-54 -11.5h-1zM601 0h-102l-7 41
q-34 -51 -127 -51h-119q-82 0 -121 37t-39 115v52q0 75 38.5 110t121.5 35h188q29 0 40 -7v76q0 40 -18.5 57.5t-61.5 17.5h-104q-43 0 -61.5 -17t-18.5 -57v-6l-119 11v13q0 77 39 114.5t120 37.5h184q81 0 120 -37.5t39 -114.5v-320zM394 86q44 0 62 16.5t18 55.5v81
q-8 4 -29 4h-160q-43 0 -61 -16.5t-18 -55.5v-13q0 -39 18 -55.5t61 -16.5h109z" />
    <glyph glyph-name="aring" unicode="&#xe5;" vert-adv-y="993" 
d="M337 627q-68 0 -100 28.5t-32 90.5v13q0 62 32 90.5t100 28.5h15q68 0 100 -28.5t32 -90.5v-13q0 -62 -32 -90.5t-100 -28.5h-15zM281 756v-8q0 -32 13.5 -44t47.5 -12h6q34 0 47 12t13 44v8q0 32 -13 44.5t-47 12.5h-6q-35 0 -48 -12.5t-13 -44.5zM601 0h-102l-7 41
q-34 -51 -127 -51h-119q-82 0 -121 37t-39 115v52q0 75 38.5 110t121.5 35h188q29 0 40 -7v76q0 40 -18.5 57.5t-61.5 17.5h-104q-43 0 -61.5 -17t-18.5 -57v-6l-119 11v13q0 77 39 114.5t120 37.5h184q81 0 120 -37.5t39 -114.5v-320zM394 86q44 0 62 16.5t18 55.5v81
q-8 4 -29 4h-160q-43 0 -61 -16.5t-18 -55.5v-13q0 -39 18 -55.5t61 -16.5h109z" />
    <glyph glyph-name="ae" unicode="&#xe6;" horiz-adv-x="1070" vert-adv-y="993" 
d="M984 249h-391v-89q0 -40 18.5 -57t61.5 -17h112q42 0 61 17t19 57v6l118 -11q1 -4 1 -13q0 -78 -39 -115t-121 -37h-191q-100 0 -137 58q-32 -58 -131 -58h-119q-82 0 -121 37t-39 115v52q0 75 38.5 110t121.5 35h188q29 0 40 -7v76q0 40 -18.5 57.5t-61.5 17.5h-104
q-43 0 -61.5 -17t-18.5 -57v-6l-119 11v13q0 77 39 114.5t120 37.5h184q63 0 100 -22q35 22 99 22h191q82 0 121 -37.5t39 -114.5v-178zM673 483q-43 0 -61.5 -17.5t-18.5 -57.5v-63h272v63q0 40 -18.5 57.5t-61.5 17.5h-112zM394 86q44 0 62 16.5t18 55.5v81q-8 4 -29 4
h-160q-43 0 -61 -16.5t-18 -55.5v-13q0 -39 18 -55.5t61 -16.5h109z" />
    <glyph glyph-name="ccedilla" unicode="&#xe7;" horiz-adv-x="673" vert-adv-y="993" 
d="M473 166l119 -11q1 -5 1 -14q0 -77 -39.5 -114t-120.5 -37h-35l-18 -41h14q56 0 81 -22.5t25 -72.5v-6q0 -49 -25.5 -72t-80.5 -23h-134v66h95q29 0 39 6.5t10 24.5v2q0 18 -10 25t-39 7h-95v28l36 78h-48q-82 0 -121 37t-39 114v286q0 78 39 115t121 37h185
q81 0 120.5 -37t39.5 -115q0 -9 -1 -13l-119 -11v6q0 40 -18.5 57t-61.5 17h-106q-43 0 -61 -17.5t-18 -57.5v-247q0 -41 18 -58t61 -17h106q43 0 61.5 17t18.5 56v7z" />
    <glyph glyph-name="egrave" unicode="&#xe8;" horiz-adv-x="682" vert-adv-y="993" 
d="M457 739l-36 -89l-275 120l36 89zM597 249h-391v-89q0 -40 18.5 -57t61.5 -17h112q42 0 61 17t19 57v6l118 -11q1 -4 1 -13q0 -78 -39 -115t-121 -37h-191q-81 0 -120 37t-39 115v285q0 77 39 114.5t120 37.5h191q82 0 121 -37.5t39 -114.5v-178zM286 483
q-43 0 -61.5 -17.5t-18.5 -57.5v-63h272v63q0 40 -18.5 57.5t-61.5 17.5h-112z" />
    <glyph glyph-name="eacute" unicode="&#xe9;" horiz-adv-x="682" vert-adv-y="993" 
d="M537 770l-275 -120l-36 89l275 120zM597 249h-391v-89q0 -40 18.5 -57t61.5 -17h112q42 0 61 17t19 57v6l118 -11q1 -4 1 -13q0 -78 -39 -115t-121 -37h-191q-81 0 -120 37t-39 115v285q0 77 39 114.5t120 37.5h191q82 0 121 -37.5t39 -114.5v-178zM286 483
q-43 0 -61.5 -17.5t-18.5 -57.5v-63h272v63q0 40 -18.5 57.5t-61.5 17.5h-112z" />
    <glyph glyph-name="ecircumflex" unicode="&#xea;" horiz-adv-x="682" vert-adv-y="993" 
d="M344 747l-191 -88l-36 89l227 100l227 -100l-35 -89zM597 249h-391v-89q0 -40 18.5 -57t61.5 -17h112q42 0 61 17t19 57v6l118 -11q1 -4 1 -13q0 -78 -39 -115t-121 -37h-191q-81 0 -120 37t-39 115v285q0 77 39 114.5t120 37.5h191q82 0 121 -37.5t39 -114.5v-178z
M286 483q-43 0 -61.5 -17.5t-18.5 -57.5v-63h272v63q0 40 -18.5 57.5t-61.5 17.5h-112z" />
    <glyph glyph-name="edieresis" unicode="&#xeb;" horiz-adv-x="682" vert-adv-y="993" 
d="M226 687q-38 0 -54 11.5t-16 41.5v13q0 31 15.5 42t54.5 11h1q39 0 54.5 -11t15.5 -42v-13q0 -30 -16 -41.5t-54 -11.5h-1zM455 687q-38 0 -54 11.5t-16 41.5v13q0 31 15.5 42t54.5 11h1q39 0 54.5 -11t15.5 -42v-13q0 -30 -16 -41.5t-54 -11.5h-1zM597 249h-391v-89
q0 -40 18.5 -57t61.5 -17h112q42 0 61 17t19 57v6l118 -11q1 -4 1 -13q0 -78 -39 -115t-121 -37h-191q-81 0 -120 37t-39 115v285q0 77 39 114.5t120 37.5h191q82 0 121 -37.5t39 -114.5v-178zM286 483q-43 0 -61.5 -17.5t-18.5 -57.5v-63h272v63q0 40 -18.5 57.5
t-61.5 17.5h-112z" />
    <glyph glyph-name="igrave" unicode="&#xec;" horiz-adv-x="510" vert-adv-y="993" 
d="M366 739l-36 -89l-275 120l36 89zM332 96h143v-96h-406v96h143v377h-143v96h263v-473z" />
    <glyph glyph-name="iacute" unicode="&#xed;" horiz-adv-x="510" vert-adv-y="993" 
d="M446 770l-275 -120l-36 89l275 120zM332 96h143v-96h-406v96h143v377h-143v96h263v-473z" />
    <glyph glyph-name="icircumflex" unicode="&#xee;" horiz-adv-x="510" vert-adv-y="993" 
d="M445 659l-192 88l-191 -88l-36 89l227 100l227 -100zM332 569v-473h143v-96h-406v96h143v377h-143v96h263z" />
    <glyph glyph-name="idieresis" unicode="&#xef;" horiz-adv-x="510" vert-adv-y="993" 
d="M135 687q-38 0 -54 11.5t-16 41.5v13q0 31 15.5 42t54.5 11h1q39 0 54.5 -11t15.5 -42v-13q0 -30 -16 -41.5t-54 -11.5h-1zM364 687q-38 0 -54 11.5t-16 41.5v13q0 31 15.5 42t54.5 11h1q39 0 54.5 -11t15.5 -42v-13q0 -30 -16 -41.5t-54 -11.5h-1zM332 96h143v-96h-406
v96h143v377h-143v96h263v-473z" />
    <glyph glyph-name="eth" unicode="&#xf0;" horiz-adv-x="689" vert-adv-y="993" 
d="M387 680q125 -21 169.5 -66.5t44.5 -151.5v-321q0 -77 -39 -114t-121 -37h-193q-82 0 -121 37t-39 114v156q0 77 39 114t121 37h125q76 0 109 -37v92q0 37 -18 53.5t-65 24.5l-43 7l-34 -99l-78 11l34 101l-157 27v96l189 -31l27 81l78 -10zM482 161v117q0 40 -18.5 57.5
t-61.5 17.5h-115q-43 0 -61 -17.5t-18 -57.5v-117q0 -41 18 -58t61 -17h115q43 0 61.5 17.5t18.5 57.5z" />
    <glyph glyph-name="ntilde" unicode="&#xf1;" horiz-adv-x="684" vert-adv-y="993" 
d="M437 678q-29 0 -93 23t-91 23q-31 0 -93 -21v96q60 20 93 20q29 0 93 -23t91 -23q24 0 93 21v-96q-60 -20 -93 -20zM434 579q82 0 121 -37t39 -115v-427h-119v408q0 40 -18.5 57.5t-61.5 17.5h-93q-43 0 -61.5 -17.5t-18.5 -57.5v-408h-119v461l-8 108h102l8 -47
q31 57 123 57h106z" />
    <glyph glyph-name="ograve" unicode="&#xf2;" vert-adv-y="993" 
d="M427 650l-275 120l36 89l275 -120zM248 -10q-82 0 -121 37t-39 114v286q0 78 39 115t121 37h198q81 0 120 -37t39 -115v-286q0 -77 -39 -114t-120 -37h-198zM287 86h119q43 0 61.5 17.5t18.5 57.5v247q0 40 -18.5 57.5t-61.5 17.5h-119q-43 0 -61 -17.5t-18 -57.5v-247
q0 -41 18 -58t61 -17z" />
    <glyph glyph-name="oacute" unicode="&#xf3;" vert-adv-y="993" 
d="M268 650l-36 89l275 120l36 -89zM248 -10q-82 0 -121 37t-39 114v286q0 78 39 115t121 37h198q81 0 120 -37t39 -115v-286q0 -77 -39 -114t-120 -37h-198zM287 86h119q43 0 61.5 17.5t18.5 57.5v247q0 40 -18.5 57.5t-61.5 17.5h-119q-43 0 -61 -17.5t-18 -57.5v-247
q0 -41 18 -58t61 -17z" />
    <glyph glyph-name="ocircumflex" unicode="&#xf4;" vert-adv-y="993" 
d="M350 747l-191 -88l-36 89l227 100l227 -100l-35 -89zM446 579q81 0 120 -37t39 -115v-286q0 -77 -39 -114t-120 -37h-198q-82 0 -121 37t-39 114v286q0 78 39 115t121 37h198zM486 161v247q0 40 -18.5 57.5t-61.5 17.5h-119q-43 0 -61 -17.5t-18 -57.5v-247q0 -41 18 -58
t61 -17h119q43 0 61.5 17.5t18.5 57.5z" />
    <glyph glyph-name="otilde" unicode="&#xf5;" vert-adv-y="993" 
d="M532 794v-96q-60 -20 -93 -20q-29 0 -93 23t-91 23q-31 0 -93 -21v96q60 20 93 20q29 0 93 -23t91 -23q24 0 93 21zM248 -10q-82 0 -121 37t-39 114v286q0 78 39 115t121 37h198q81 0 120 -37t39 -115v-286q0 -77 -39 -114t-120 -37h-198zM287 86h119q43 0 61.5 17.5
t18.5 57.5v247q0 40 -18.5 57.5t-61.5 17.5h-119q-43 0 -61 -17.5t-18 -57.5v-247q0 -41 18 -58t61 -17z" />
    <glyph glyph-name="odieresis" unicode="&#xf6;" vert-adv-y="993" 
d="M232 687q-38 0 -54 11.5t-16 41.5v13q0 31 15.5 42t54.5 11h1q39 0 54.5 -11t15.5 -42v-13q0 -30 -16 -41.5t-54 -11.5h-1zM461 687q-38 0 -54 11.5t-16 41.5v13q0 31 15.5 42t54.5 11h1q39 0 54.5 -11t15.5 -42v-13q0 -30 -16 -41.5t-54 -11.5h-1zM248 -10
q-82 0 -121 37t-39 114v286q0 78 39 115t121 37h198q81 0 120 -37t39 -115v-286q0 -77 -39 -114t-120 -37h-198zM287 86h119q43 0 61.5 17.5t18.5 57.5v247q0 40 -18.5 57.5t-61.5 17.5h-119q-43 0 -61 -17.5t-18 -57.5v-247q0 -41 18 -58t61 -17z" />
    <glyph glyph-name="divide" unicode="&#xf7;" horiz-adv-x="642" vert-adv-y="993" 
d="M321 451q-46 0 -63 11t-17 42v13q0 31 17.5 42t62.5 11h1q45 0 62.5 -11t17.5 -42v-13q0 -31 -17 -42t-63 -11h-1zM71 275v108h500v-108h-500zM321 88q-45 0 -62.5 11.5t-17.5 42.5v12q0 31 17 42t63 11h1q46 0 63 -11t17 -42v-12q0 -31 -17.5 -42.5t-62.5 -11.5h-1z" />
    <glyph glyph-name="oslash" unicode="&#xf8;" vert-adv-y="993" 
d="M521 568q84 -28 84 -141v-286q0 -77 -39 -114t-120 -37h-198h-15l-46 -91h-65l51 101q-85 29 -85 141v286q0 78 39 115t121 37h198h16l45 90h64zM208 161q0 -39 17 -56l189 378h-8h-119q-43 0 -61 -17.5t-18 -57.5v-247zM486 161v247q0 39 -17 56l-189 -378h7h119
q43 0 61.5 17.5t18.5 57.5z" />
    <glyph glyph-name="ugrave" unicode="&#xf9;" horiz-adv-x="679" vert-adv-y="993" 
d="M448 739l-36 -89l-275 120l36 89zM583 0h-102l-9 50q-16 -31 -44.5 -45.5t-79.5 -14.5h-98q-81 0 -120.5 37t-39.5 114v428h119l1 -408q0 -41 18 -58t61 -17h88q43 0 61.5 17.5t18.5 57.5v408h119v-462z" />
    <glyph glyph-name="uacute" unicode="&#xfa;" horiz-adv-x="679" vert-adv-y="993" 
d="M528 770l-275 -120l-36 89l275 120zM583 0h-102l-9 50q-16 -31 -44.5 -45.5t-79.5 -14.5h-98q-81 0 -120.5 37t-39.5 114v428h119l1 -408q0 -41 18 -58t61 -17h88q43 0 61.5 17.5t18.5 57.5v408h119v-462z" />
    <glyph glyph-name="ucircumflex" unicode="&#xfb;" horiz-adv-x="679" vert-adv-y="993" 
d="M335 747l-191 -88l-36 89l227 100l227 -100l-35 -89zM583 0h-102l-9 50q-16 -31 -44.5 -45.5t-79.5 -14.5h-98q-81 0 -120.5 37t-39.5 114v428h119l1 -408q0 -41 18 -58t61 -17h88q43 0 61.5 17.5t18.5 57.5v408h119v-462z" />
    <glyph glyph-name="udieresis" unicode="&#xfc;" horiz-adv-x="679" vert-adv-y="993" 
d="M217 687q-38 0 -54 11.5t-16 41.5v13q0 31 15.5 42t54.5 11h1q39 0 54.5 -11t15.5 -42v-13q0 -30 -16 -41.5t-54 -11.5h-1zM446 687q-38 0 -54 11.5t-16 41.5v13q0 31 15.5 42t54.5 11h1q39 0 54.5 -11t15.5 -42v-13q0 -30 -16 -41.5t-54 -11.5h-1zM583 0h-102l-9 50
q-16 -31 -44.5 -45.5t-79.5 -14.5h-98q-81 0 -120.5 37t-39.5 114v428h119l1 -408q0 -41 18 -58t61 -17h88q43 0 61.5 17.5t18.5 57.5v408h119v-462z" />
    <glyph glyph-name="yacute" unicode="&#xfd;" horiz-adv-x="616" vert-adv-y="993" 
d="M503 770l-275 -120l-36 89l275 120zM457 569h123l-225 -667q-29 -88 -59 -114.5t-103 -26.5h-134v96h96q40 0 54 10.5t29 52.5l26 80h-37l-191 569h123l149 -462z" />
    <glyph glyph-name="thorn" unicode="&#xfe;" horiz-adv-x="697" vert-adv-y="993" 
d="M449 579q81 0 120 -37t39 -115v-286q0 -77 -39 -114t-120 -37h-125q-76 0 -109 37v-256h-120v993h120v-222q33 37 109 37h125zM489 161v247q0 40 -18.5 57.5t-61.5 17.5h-115q-43 0 -61 -17.5t-18 -57.5v-247q0 -41 18 -58t61 -17h115q43 0 61.5 17.5t18.5 57.5z" />
    <glyph glyph-name="ydieresis" unicode="&#xff;" horiz-adv-x="616" vert-adv-y="993" 
d="M192 687q-38 0 -54 11.5t-16 41.5v13q0 31 15.5 42t54.5 11h1q39 0 54.5 -11t15.5 -42v-13q0 -30 -16 -41.5t-54 -11.5h-1zM421 687q-38 0 -54 11.5t-16 41.5v13q0 31 15.5 42t54.5 11h1q39 0 54.5 -11t15.5 -42v-13q0 -30 -16 -41.5t-54 -11.5h-1zM457 569h123
l-225 -667q-29 -88 -59 -114.5t-103 -26.5h-134v96h96q40 0 54 10.5t29 52.5l26 80h-37l-191 569h123l149 -462z" />
    <glyph glyph-name="Amacron" unicode="&#x100;" horiz-adv-x="759" vert-adv-y="993" 
d="M554 938v-95h-349v95h349zM585 0l-63 188h-285l-63 -188h-128l243 709h181l244 -709h-129zM274 295h212l-106 315z" />
    <glyph glyph-name="amacron" unicode="&#x101;" vert-adv-y="993" 
d="M519 797v-95h-349v95h349zM601 0h-102l-7 41q-34 -51 -127 -51h-119q-82 0 -121 37t-39 115v52q0 75 38.5 110t121.5 35h188q29 0 40 -7v76q0 40 -18.5 57.5t-61.5 17.5h-104q-43 0 -61.5 -17t-18.5 -57v-6l-119 11v13q0 77 39 114.5t120 37.5h184q81 0 120 -37.5
t39 -114.5v-320zM394 86q44 0 62 16.5t18 55.5v81q-8 4 -29 4h-160q-43 0 -61 -16.5t-18 -55.5v-13q0 -39 18 -55.5t61 -16.5h109z" />
    <glyph glyph-name="Abreve" unicode="&#x102;" horiz-adv-x="759" vert-adv-y="993" 
d="M309 786q-58 0 -84.5 25t-26.5 80v94h96v-68q0 -28 12 -39t42 -11h64q30 0 41.5 11t11.5 39v68h96v-94q0 -55 -26.5 -80t-84.5 -25h-141zM585 0l-63 188h-285l-63 -188h-128l243 709h181l244 -709h-129zM274 295h212l-106 315z" />
    <glyph glyph-name="abreve" unicode="&#x103;" vert-adv-y="993" 
d="M274 645q-58 0 -84.5 25t-26.5 80v94h96v-68q0 -28 12 -39t42 -11h64q30 0 41.5 11t11.5 39v68h96v-94q0 -55 -26.5 -80t-84.5 -25h-141zM601 0h-102l-7 41q-34 -51 -127 -51h-119q-82 0 -121 37t-39 115v52q0 75 38.5 110t121.5 35h188q29 0 40 -7v76q0 40 -18.5 57.5
t-61.5 17.5h-104q-43 0 -61.5 -17t-18.5 -57v-6l-119 11v13q0 77 39 114.5t120 37.5h184q81 0 120 -37.5t39 -114.5v-320zM394 86q44 0 62 16.5t18 55.5v81q-8 4 -29 4h-160q-43 0 -61 -16.5t-18 -55.5v-13q0 -39 18 -55.5t61 -16.5h109z" />
    <glyph glyph-name="Aogonek" unicode="&#x104;" horiz-adv-x="759" vert-adv-y="993" 
d="M714 0h-3q-86 -87 -103.5 -108t-17.5 -36q0 -24 36 -24h85v-79h-130q-55 0 -80 16.5t-25 52.5q0 31 22 60.5t107 117.5h-20l-63 188h-285l-63 -188h-128l243 709h181zM274 295h212l-106 315z" />
    <glyph glyph-name="aogonek" unicode="&#x105;" vert-adv-y="993" 
d="M480 -144q0 -24 36 -24h85v-79h-130q-55 0 -80 16.5t-25 52.5q0 30 22 60t110 121l-6 38q-34 -51 -127 -51h-119q-82 0 -121 37t-39 115v52q0 75 38.5 110t121.5 35h188q29 0 40 -7v76q0 40 -18.5 57.5t-61.5 17.5h-104q-43 0 -61.5 -17t-18.5 -57v-6l-119 11v13
q0 77 39 114.5t120 37.5h184q81 0 120 -37.5t39 -114.5v-320l8 -107q-86 -87 -103.5 -108t-17.5 -36zM394 86q44 0 62 16.5t18 55.5v81q-8 4 -29 4h-160q-43 0 -61 -16.5t-18 -55.5v-13q0 -39 18 -55.5t61 -16.5h109z" />
    <glyph glyph-name="Cacute" unicode="&#x106;" horiz-adv-x="745" vert-adv-y="993" 
d="M300 790l-36 89l275 120l36 -89zM284 -10q-97 0 -143 43.5t-46 135.5v370q0 92 46 136t143 44h190q97 0 142.5 -43.5t45.5 -134.5v-11l-125 -15v7q0 50 -21.5 69.5t-76.5 19.5h-120q-55 0 -77 -20t-22 -71v-332q0 -51 22 -71t77 -20h120q55 0 76.5 20t21.5 70v7l125 -15
v-11q0 -91 -45.5 -134.5t-142.5 -43.5h-190z" />
    <glyph glyph-name="cacute" unicode="&#x107;" horiz-adv-x="673" vert-adv-y="993" 
d="M261 650l-36 89l275 120l36 -89zM248 -10q-82 0 -121 37t-39 114v286q0 78 39 115t121 37h185q81 0 120.5 -37t39.5 -115q0 -9 -1 -13l-119 -11v6q0 40 -18.5 57t-61.5 17h-106q-43 0 -61 -17.5t-18 -57.5v-247q0 -41 18 -58t61 -17h106q43 0 61.5 17t18.5 56v7l119 -11
q1 -5 1 -14q0 -77 -39.5 -114t-120.5 -37h-185z" />
    <glyph glyph-name="Ccaron" unicode="&#x10c;" horiz-adv-x="745" vert-adv-y="993" 
d="M607 899l-227 -100l-227 100l36 89l191 -88l192 88zM662 530l-125 -15v7q0 50 -21.5 69.5t-76.5 19.5h-120q-55 0 -77 -20t-22 -71v-332q0 -51 22 -71t77 -20h120q55 0 76.5 20t21.5 70v7l125 -15v-11q0 -91 -45.5 -134.5t-142.5 -43.5h-190q-97 0 -143 43.5t-46 135.5
v370q0 92 46 136t143 44h190q97 0 142.5 -43.5t45.5 -134.5v-11z" />
    <glyph glyph-name="ccaron" unicode="&#x10d;" horiz-adv-x="673" vert-adv-y="993" 
d="M568 759l-227 -100l-227 100l36 89l191 -88l192 88zM473 166l119 -11q1 -5 1 -14q0 -77 -39.5 -114t-120.5 -37h-185q-82 0 -121 37t-39 114v286q0 78 39 115t121 37h185q81 0 120.5 -37t39.5 -115q0 -9 -1 -13l-119 -11v6q0 40 -18.5 57t-61.5 17h-106q-43 0 -61 -17.5
t-18 -57.5v-247q0 -41 18 -58t61 -17h106q43 0 61.5 17t18.5 56v7z" />
    <glyph glyph-name="Dcaron" unicode="&#x10e;" horiz-adv-x="745" vert-adv-y="993" 
d="M605 899l-227 -100l-227 100l36 89l191 -88l192 88zM462 709q96 0 142 -44t46 -136v-350q0 -91 -46 -135t-142 -44h-357v709h357zM525 198v312q0 51 -22 71t-77 20h-196v-494h196q55 0 77 20t22 71z" />
    <glyph glyph-name="dcaron" unicode="&#x10f;" horiz-adv-x="704" vert-adv-y="993" 
d="M601 764v-657l7 -107h-102l-9 50q-16 -31 -44.5 -45.5t-79.5 -14.5h-125q-82 0 -121 37t-39 114v286q0 78 39 115t121 37h125q76 0 109 -37v222h119zM773 719q45 0 62.5 -11.5t17.5 -42.5v-12q0 -67 -26 -102.5t-110 -84.5l-46 66q41 26 58 40.5t22 28.5q-34 1 -47 12.5
t-13 39.5v12q0 31 17.5 42.5t62.5 11.5h2zM402 86q43 0 61.5 17.5t18.5 57.5v247q0 40 -18.5 57.5t-61.5 17.5h-115q-43 0 -61 -17.5t-18 -57.5v-247q0 -41 18 -58t61 -17h115z" />
    <glyph glyph-name="Dcroat" unicode="&#x110;" horiz-adv-x="745" vert-adv-y="993" 
d="M462 709q96 0 142 -44t46 -136v-350q0 -91 -46 -135t-142 -44h-357v301h-76v107h76v301h357zM525 198v312q0 51 -22 71t-77 20h-196v-193h139v-107h-139v-194h196q55 0 77 20t22 71z" />
    <glyph glyph-name="dcroat" unicode="&#x111;" horiz-adv-x="704" vert-adv-y="993" 
d="M681 625h-80v-518l7 -107h-102l-9 50q-16 -31 -44.5 -45.5t-79.5 -14.5h-125q-82 0 -121 37t-39 114v286q0 78 39 115t121 37h125q76 0 109 -37v83h-115v83h115v56h119v-56h80v-83zM402 86q43 0 61.5 17.5t18.5 57.5v247q0 40 -18.5 57.5t-61.5 17.5h-115
q-43 0 -61 -17.5t-18 -57.5v-247q0 -41 18 -58t61 -17h115z" />
    <glyph glyph-name="Emacron" unicode="&#x112;" horiz-adv-x="660" vert-adv-y="993" 
d="M528 938v-95h-349v95h349zM603 601h-373v-183h331v-107h-331v-204h373v-107h-498v709h498v-108z" />
    <glyph glyph-name="emacron" unicode="&#x113;" horiz-adv-x="682" vert-adv-y="993" 
d="M516 798v-95h-349v95h349zM597 249h-391v-89q0 -40 18.5 -57t61.5 -17h112q42 0 61 17t19 57v6l118 -11q1 -4 1 -13q0 -78 -39 -115t-121 -37h-191q-81 0 -120 37t-39 115v285q0 77 39 114.5t120 37.5h191q82 0 121 -37.5t39 -114.5v-178zM286 483q-43 0 -61.5 -17.5
t-18.5 -57.5v-63h272v63q0 40 -18.5 57.5t-61.5 17.5h-112z" />
    <glyph glyph-name="Edotaccent" unicode="&#x116;" horiz-adv-x="660" vert-adv-y="993" 
d="M353 827q-45 0 -62.5 11t-17.5 42v13q0 31 17 42t63 11h1q46 0 63 -11t17 -42v-13q0 -31 -17.5 -42t-62.5 -11h-1zM603 601h-373v-183h331v-107h-331v-204h373v-107h-498v709h498v-108z" />
    <glyph glyph-name="edotaccent" unicode="&#x117;" horiz-adv-x="682" vert-adv-y="993" 
d="M341 687q-45 0 -62.5 11.5t-17.5 41.5v13q0 31 17 42t63 11h1q46 0 63 -11t17 -42v-13q0 -30 -17.5 -41.5t-62.5 -11.5h-1zM597 249h-391v-89q0 -40 18.5 -57t61.5 -17h112q42 0 61 17t19 57v6l118 -11q1 -4 1 -13q0 -78 -39 -115t-121 -37h-191q-81 0 -120 37t-39 115
v285q0 77 39 114.5t120 37.5h191q82 0 121 -37.5t39 -114.5v-178zM286 483q-43 0 -61.5 -17.5t-18.5 -57.5v-63h272v63q0 40 -18.5 57.5t-61.5 17.5h-112z" />
    <glyph glyph-name="Eogonek" unicode="&#x118;" horiz-adv-x="660" vert-adv-y="993" 
d="M603 601h-373v-183h331v-107h-331v-204h373v-107q-86 -87 -103.5 -108t-17.5 -36q0 -24 36 -24h85v-79h-130q-55 0 -80 16.5t-25 52.5q0 31 22 60.5t107 117.5h-392v709h498v-108z" />
    <glyph glyph-name="eogonek" unicode="&#x119;" horiz-adv-x="682" vert-adv-y="993" 
d="M597 249h-391v-89q0 -40 18.5 -57t61.5 -17h112q42 0 61 17t19 57v6l118 -11q1 -4 1 -13q0 -98 -62 -132l41 -3q-86 -87 -103.5 -108t-17.5 -36q0 -24 36 -24h85v-79h-130q-55 0 -80 16.5t-25 52.5q0 29 19.5 57t93.5 104h-17h-191q-81 0 -120 37t-39 115v285
q0 77 39 114.5t120 37.5h191q82 0 121 -37.5t39 -114.5v-178zM286 483q-43 0 -61.5 -17.5t-18.5 -57.5v-63h272v63q0 40 -18.5 57.5t-61.5 17.5h-112z" />
    <glyph glyph-name="Ecaron" unicode="&#x11a;" horiz-adv-x="660" vert-adv-y="993" 
d="M582 899l-227 -100l-227 100l36 89l191 -88l192 88zM603 601h-373v-183h331v-107h-331v-204h373v-107h-498v709h498v-108z" />
    <glyph glyph-name="ecaron" unicode="&#x11b;" horiz-adv-x="682" vert-adv-y="993" 
d="M569 759l-227 -100l-227 100l36 89l191 -88l192 88zM597 249h-391v-89q0 -40 18.5 -57t61.5 -17h112q42 0 61 17t19 57v6l118 -11q1 -4 1 -13q0 -78 -39 -115t-121 -37h-191q-81 0 -120 37t-39 115v285q0 77 39 114.5t120 37.5h191q82 0 121 -37.5t39 -114.5v-178z
M286 483q-43 0 -61.5 -17.5t-18.5 -57.5v-63h272v63q0 40 -18.5 57.5t-61.5 17.5h-112z" />
    <glyph glyph-name="Gcommaaccent" unicode="&#x122;" horiz-adv-x="758" vert-adv-y="993" 
d="M662 530l-125 -15v7q0 50 -21.5 69.5t-76.5 19.5h-120q-55 0 -77 -20t-22 -71v-332q0 -51 22 -71t77 -20h120q55 0 76.5 20t21.5 70v95h-191v107h316v-221q0 -91 -45.5 -134.5t-142.5 -43.5h-190q-97 0 -143 43.5t-46 135.5v370q0 92 46 136t143 44h190q97 0 142.5 -43.5
t45.5 -134.5v-11zM390 -57q46 0 63 -11t17 -42v-12q0 -67 -26 -103t-109 -85l-47 67q71 44 80 68q-33 2 -46.5 13.5t-13.5 39.5v12q0 31 17.5 42t63.5 11h1z" />
    <glyph glyph-name="gcommaaccent" unicode="&#x123;" horiz-adv-x="704" vert-adv-y="993" 
d="M337 687q-45 0 -62.5 11.5t-17.5 41.5v13q0 67 26 102.5t110 84.5l46 -66q-41 -26 -58 -40.5t-22 -28.5q34 -1 47 -12.5t13 -39.5v-13q0 -30 -17.5 -41.5t-62.5 -11.5h-2zM506 569h102l-7 -108v-548q0 -78 -39 -115t-121 -37h-193q-82 0 -121 37t-39 115q0 9 1 13l119 11
v-6q0 -40 18.5 -57t60.5 -17h115q43 0 61.5 17.5t18.5 57.5v95q-33 -37 -109 -37h-125q-82 0 -121 37t-39 114v286q0 78 39 115t121 37h125q51 0 79.5 -14.5t44.5 -45.5zM402 86q43 0 61.5 17.5t18.5 57.5v247q0 40 -18.5 57.5t-61.5 17.5h-115q-43 0 -61 -17.5t-18 -57.5
v-247q0 -41 18 -58t61 -17h115z" />
    <glyph glyph-name="Imacron" unicode="&#x12a;" horiz-adv-x="336" vert-adv-y="993" 
d="M-7 938h349v-95h-349v95zM105 0v709h125v-709h-125z" />
    <glyph glyph-name="imacron" unicode="&#x12b;" horiz-adv-x="510" vert-adv-y="993" 
d="M425 798v-95h-349v95h349zM332 96h143v-96h-406v96h143v377h-143v96h263v-473z" />
    <glyph glyph-name="Iogonek" unicode="&#x12e;" horiz-adv-x="336" vert-adv-y="993" 
d="M230 709v-709q-86 -87 -103.5 -108t-17.5 -36q0 -24 36 -24h85v-79h-130q-55 0 -80 16.5t-25 52.5q0 31 22 60.5t107 117.5h-19v709h125z" />
    <glyph glyph-name="iogonek" unicode="&#x12f;" horiz-adv-x="510" vert-adv-y="993" 
d="M250 687q-45 0 -62.5 11.5t-17.5 41.5v13q0 31 17 42t63 11h1q46 0 63 -11t17 -42v-13q0 -30 -17.5 -41.5t-62.5 -11.5h-1zM475 96v-96q-86 -87 -103.5 -108t-17.5 -36q0 -24 36 -24h85v-79h-130q-55 0 -80 16.5t-25 52.5q0 31 22 60.5t107 117.5h-300v96h143v377h-143
v96h263v-473h143z" />
    <glyph glyph-name="dotlessi" unicode="&#x131;" horiz-adv-x="510" vert-adv-y="993" 
d="M332 96h143v-96h-406v96h143v377h-143v96h263v-473z" />
    <glyph glyph-name="Kcommaaccent" unicode="&#x136;" horiz-adv-x="751" vert-adv-y="993" 
d="M431 361l274 -361h-147l-236 307h-92v-307h-125v709h125v-295h91l217 295h147zM386 -57q46 0 63 -11t17 -42v-12q0 -67 -26 -103t-109 -85l-47 67q71 44 80 68q-33 2 -46.5 13.5t-13.5 39.5v12q0 31 17.5 42t63.5 11h1z" />
    <glyph glyph-name="kcommaaccent" unicode="&#x137;" horiz-adv-x="652" vert-adv-y="993" 
d="M393 297l223 -297h-144l-188 248h-69v-248h-120v764h120v-420h68l174 225h145zM338 -57q46 0 63 -11t17 -42v-12q0 -67 -26 -103t-109 -85l-47 67q71 44 80 68q-33 2 -46.5 13.5t-13.5 39.5v12q0 31 17.5 42t63.5 11h1z" />
    <glyph glyph-name="Lacute" unicode="&#x139;" horiz-adv-x="634" vert-adv-y="993" 
d="M327 999l36 -89l-275 -120l-36 89zM230 107h358v-107h-483v709h125v-602z" />
    <glyph glyph-name="lacute" unicode="&#x13a;" horiz-adv-x="372" vert-adv-y="993" 
d="M75 846l-36 89l275 120l36 -89zM294 86h42v-96h-81q-81 0 -120.5 37t-39.5 114v623h120v-603q0 -41 18 -58t61 -17z" />
    <glyph glyph-name="Lcommaaccent" unicode="&#x13b;" horiz-adv-x="634" vert-adv-y="993" 
d="M230 107h358v-107h-483v709h125v-602zM328 -57q46 0 63 -11t17 -42v-12q0 -67 -26 -103t-109 -85l-47 67q71 44 80 68q-33 2 -46.5 13.5t-13.5 39.5v12q0 31 17.5 42t63.5 11h1z" />
    <glyph glyph-name="lcommaaccent" unicode="&#x13c;" horiz-adv-x="372" vert-adv-y="993" 
d="M294 86h42v-96h-81q-81 0 -120.5 37t-39.5 114v623h120v-603q0 -41 18 -58t61 -17zM227 -57q46 0 63 -11t17 -42v-12q0 -67 -26 -103t-109 -85l-47 67q71 44 80 68q-33 2 -46.5 13.5t-13.5 39.5v12q0 31 17.5 42t63.5 11h1z" />
    <glyph glyph-name="Lcaron" unicode="&#x13d;" horiz-adv-x="634" vert-adv-y="993" 
d="M379 532q41 26 58 40.5t22 28.5q-34 1 -47 12.5t-13 39.5v12q0 31 17.5 42.5t62.5 11.5h2q45 0 62.5 -11.5t17.5 -42.5v-12q0 -67 -26 -102.5t-110 -84.5zM230 107h358v-107h-483v709h125v-602z" />
    <glyph glyph-name="lcaron" unicode="&#x13e;" horiz-adv-x="372" vert-adv-y="993" 
d="M215 161q0 -41 18 -58t61 -17h42v-96h-81q-81 0 -120.5 37t-39.5 114v623h120v-603zM418 719q45 0 62.5 -11.5t17.5 -42.5v-12q0 -67 -26 -102.5t-110 -84.5l-46 66q41 26 58 40.5t22 28.5q-34 1 -47 12.5t-13 39.5v12q0 31 17.5 42.5t62.5 11.5h2z" />
    <glyph glyph-name="Lslash" unicode="&#x141;" horiz-adv-x="634" vert-adv-y="993" 
d="M230 107h358v-107h-483v262l-93 -57v108l93 57v339h125v-262l127 78v-108l-127 -78v-232z" />
    <glyph glyph-name="lslash" unicode="&#x142;" horiz-adv-x="372" vert-adv-y="993" 
d="M344 460l-129 -79v-220q0 -41 18 -58t61 -17h42v-96h-81q-81 0 -120.5 37t-39.5 114v166l-96 -59v108l96 59v349h120v-275l129 79v-108z" />
    <glyph glyph-name="Nacute" unicode="&#x143;" horiz-adv-x="775" vert-adv-y="993" 
d="M583 910l-275 -120l-36 89l275 120zM547 709h125v-709h-123l-321 506v-506h-125v709h124l320 -504v504z" />
    <glyph glyph-name="nacute" unicode="&#x144;" horiz-adv-x="684" vert-adv-y="993" 
d="M540 770l-275 -120l-36 89l275 120zM434 579q82 0 121 -37t39 -115v-427h-119v408q0 40 -18.5 57.5t-61.5 17.5h-93q-43 0 -61.5 -17.5t-18.5 -57.5v-408h-119v461l-8 108h102l8 -47q31 57 123 57h106z" />
    <glyph glyph-name="Ncommaaccent" unicode="&#x145;" horiz-adv-x="775" vert-adv-y="993" 
d="M547 709h125v-709h-123l-321 506v-506h-125v709h124l320 -504v504zM399 -57q46 0 63 -11t17 -42v-12q0 -67 -26 -103t-109 -85l-47 67q71 44 80 68q-33 2 -46.5 13.5t-13.5 39.5v12q0 31 17.5 42t63.5 11h1z" />
    <glyph glyph-name="ncommaaccent" unicode="&#x146;" horiz-adv-x="684" vert-adv-y="993" 
d="M434 579q82 0 121 -37t39 -115v-427h-119v408q0 40 -18.5 57.5t-61.5 17.5h-93q-43 0 -61.5 -17.5t-18.5 -57.5v-408h-119v461l-8 108h102l8 -47q31 57 123 57h106zM359 -57q46 0 63 -11t17 -42v-12q0 -67 -26 -103t-109 -85l-47 67q71 44 80 68q-33 2 -46.5 13.5
t-13.5 39.5v12q0 31 17.5 42t63.5 11h1z" />
    <glyph glyph-name="Ncaron" unicode="&#x147;" horiz-adv-x="775" vert-adv-y="993" 
d="M616 899l-227 -100l-227 100l36 89l191 -88l192 88zM547 709h125v-709h-123l-321 506v-506h-125v709h124l320 -504v504z" />
    <glyph glyph-name="ncaron" unicode="&#x148;" horiz-adv-x="684" vert-adv-y="993" 
d="M573 759l-227 -100l-227 100l36 89l191 -88l192 88zM434 579q82 0 121 -37t39 -115v-427h-119v408q0 40 -18.5 57.5t-61.5 17.5h-93q-43 0 -61.5 -17.5t-18.5 -57.5v-408h-119v461l-8 108h102l8 -47q31 57 123 57h106z" />
    <glyph glyph-name="Eng" unicode="&#x14a;" horiz-adv-x="773" vert-adv-y="993" 
d="M545 709h125v-796q0 -78 -39 -115t-121 -37h-142v96h103q43 0 61.5 17.5t18.5 57.5v68h-5l-318 506v-506h-125v709h124l318 -504v504z" />
    <glyph glyph-name="eng" unicode="&#x14b;" horiz-adv-x="684" vert-adv-y="993" 
d="M434 579q82 0 121 -37t39 -115v-514q0 -78 -39 -115t-121 -37h-142v96h103q43 0 61.5 17.5t18.5 57.5v476q0 40 -18.5 57.5t-61.5 17.5h-93q-43 0 -61.5 -17.5t-18.5 -57.5v-408h-119v461l-8 108h102l8 -47q31 57 123 57h106z" />
    <glyph glyph-name="Omacron" unicode="&#x14c;" horiz-adv-x="758" vert-adv-y="993" 
d="M205 938h349v-95h-349v95zM474 719q97 0 142.5 -44t45.5 -136v-370q0 -92 -45.5 -135.5t-142.5 -43.5h-190q-97 0 -143 43.5t-46 135.5v370q0 92 46 136t143 44h190zM537 520q0 51 -21.5 71t-76.5 20h-120q-55 0 -77 -20t-22 -71v-332q0 -51 22 -71t77 -20h120
q55 0 76.5 20t21.5 71v332z" />
    <glyph glyph-name="omacron" unicode="&#x14d;" vert-adv-y="993" 
d="M172 798h349v-95h-349v95zM248 -10q-82 0 -121 37t-39 114v286q0 78 39 115t121 37h198q81 0 120 -37t39 -115v-286q0 -77 -39 -114t-120 -37h-198zM287 86h119q43 0 61.5 17.5t18.5 57.5v247q0 40 -18.5 57.5t-61.5 17.5h-119q-43 0 -61 -17.5t-18 -57.5v-247
q0 -41 18 -58t61 -17z" />
    <glyph glyph-name="Ohungarumlaut" unicode="&#x150;" horiz-adv-x="758" vert-adv-y="993" 
d="M279 780l-82 51l110 173l82 -49zM490 780l-82 51l110 173l82 -49zM474 719q97 0 142.5 -44t45.5 -136v-370q0 -92 -45.5 -135.5t-142.5 -43.5h-190q-97 0 -143 43.5t-46 135.5v370q0 92 46 136t143 44h190zM537 520q0 51 -21.5 71t-76.5 20h-120q-55 0 -77 -20t-22 -71
v-332q0 -51 22 -71t77 -20h120q55 0 76.5 20t21.5 71v332z" />
    <glyph glyph-name="ohungarumlaut" unicode="&#x151;" vert-adv-y="993" 
d="M247 640l-82 51l110 173l82 -49zM458 640l-82 51l110 173l82 -49zM248 -10q-82 0 -121 37t-39 114v286q0 78 39 115t121 37h198q81 0 120 -37t39 -115v-286q0 -77 -39 -114t-120 -37h-198zM287 86h119q43 0 61.5 17.5t18.5 57.5v247q0 40 -18.5 57.5t-61.5 17.5h-119
q-43 0 -61 -17.5t-18 -57.5v-247q0 -41 18 -58t61 -17z" />
    <glyph glyph-name="OE" unicode="&#x152;" horiz-adv-x="1092" vert-adv-y="993" 
d="M662 601v-183h331v-107h-331v-204h373v-107h-480q-33 -10 -81 -10h-190q-97 0 -143 43.5t-46 135.5v370q0 92 46 136t143 44h190q48 0 81 -10h480v-108h-373zM439 97q55 0 76.5 20t21.5 71v332q0 51 -21.5 71t-76.5 20h-120q-55 0 -77 -20t-22 -71v-332q0 -51 22 -71
t77 -20h120z" />
    <glyph glyph-name="oe" unicode="&#x153;" horiz-adv-x="1081" vert-adv-y="993" 
d="M996 249h-391v-89q0 -40 18.5 -57t61.5 -17h112q43 0 61.5 17t18.5 57v6l118 -11q1 -4 1 -13q0 -78 -39 -115t-120 -37h-191q-63 0 -100 22q-37 -22 -100 -22h-198q-81 0 -120.5 37t-39.5 115v285q0 152 160 152h198q63 0 100 -22q37 22 100 22h191q81 0 120 -37.5
t39 -114.5v-178zM406 86q43 0 61.5 17t18.5 57v248q0 40 -18.5 57.5t-61.5 17.5h-119q-42 0 -60.5 -17.5t-18.5 -57.5v-248q0 -40 18.5 -57t60.5 -17h119zM685 483q-43 0 -61.5 -17.5t-18.5 -57.5v-63h272v63q0 40 -18.5 57.5t-61.5 17.5h-112z" />
    <glyph glyph-name="Racute" unicode="&#x154;" horiz-adv-x="757" vert-adv-y="993" 
d="M554 910l-275 -120l-36 89l275 120zM564 0l-213 273h-121v-273h-125v709h357q96 0 142 -44t46 -136v-77q0 -161 -148 -177l209 -275h-147zM230 601v-220h196q56 0 77.5 19.5t21.5 70.5v39q0 51 -22 71t-77 20h-196z" />
    <glyph glyph-name="racute" unicode="&#x155;" horiz-adv-x="678" vert-adv-y="993" 
d="M541 770l-275 -120l-36 89l275 120zM625 414l-119 -11v6q0 40 -18.5 57t-61.5 17h-19q-43 0 -61.5 -17.5t-18.5 -57.5v-312h202v-96h-464v96h143v365l-1 12h-142v96h238l9 -51q32 61 122 61h32q81 0 120 -37t39 -115v-13z" />
    <glyph glyph-name="Rcommaaccent" unicode="&#x156;" horiz-adv-x="757" vert-adv-y="993" 
d="M502 275l209 -275h-147l-213 273h-121v-273h-125v709h357q96 0 142 -44t46 -136v-77q0 -161 -148 -177zM230 601v-220h196q56 0 77.5 19.5t21.5 70.5v39q0 51 -22 71t-77 20h-196zM389 -57q46 0 63 -11t17 -42v-12q0 -67 -26 -103t-109 -85l-47 67q71 44 80 68
q-33 2 -46.5 13.5t-13.5 39.5v12q0 31 17.5 42t63.5 11h1z" />
    <glyph glyph-name="rcommaaccent" unicode="&#x157;" horiz-adv-x="678" vert-adv-y="993" 
d="M625 414l-119 -11v6q0 40 -18.5 57t-61.5 17h-19q-43 0 -61.5 -17.5t-18.5 -57.5v-312h202v-96h-464v96h143v365l-1 12h-142v96h238l9 -51q32 61 122 61h32q81 0 120 -37t39 -115v-13zM308 -57q46 0 63 -11t17 -42v-12q0 -67 -26 -103t-109 -85l-47 67q71 44 80 68
q-33 2 -46.5 13.5t-13.5 39.5v12q0 31 17.5 42t63.5 11h1z" />
    <glyph glyph-name="Rcaron" unicode="&#x158;" horiz-adv-x="757" vert-adv-y="993" 
d="M587 899l-227 -100l-227 100l36 89l191 -88l192 88zM564 0l-213 273h-121v-273h-125v709h357q96 0 142 -44t46 -136v-77q0 -161 -148 -177l209 -275h-147zM230 601v-220h196q56 0 77.5 19.5t21.5 70.5v39q0 51 -22 71t-77 20h-196z" />
    <glyph glyph-name="rcaron" unicode="&#x159;" horiz-adv-x="678" vert-adv-y="993" 
d="M573 759l-227 -100l-227 100l36 89l191 -88l192 88zM625 414l-119 -11v6q0 40 -18.5 57t-61.5 17h-19q-43 0 -61.5 -17.5t-18.5 -57.5v-312h202v-96h-464v96h143v365l-1 12h-142v96h238l9 -51q32 61 122 61h32q81 0 120 -37t39 -115v-13z" />
    <glyph glyph-name="Sacute" unicode="&#x15a;" horiz-adv-x="745" vert-adv-y="993" 
d="M293 790l-36 89l275 120l36 -89zM277 -10q-97 0 -143 43.5t-46 134.5q0 8 1 11l124 15v-7q0 -50 22 -70t77 -20h122q55 0 76.5 20t21.5 71v17q0 41 -19 57.5t-78 24.5l-173 25q-94 14 -132 50.5t-38 114.5v62q0 92 46 136t142 44h185q97 0 142.5 -43.5t45.5 -134.5v-11
l-125 -15v7q0 50 -21.5 69.5t-76.5 19.5h-113q-56 0 -78 -20t-22 -71v-12q0 -42 18.5 -57.5t79.5 -24.5l173 -25q94 -13 131.5 -50t37.5 -116v-66q0 -92 -45.5 -135.5t-142.5 -43.5h-192z" />
    <glyph glyph-name="sacute" unicode="&#x15b;" horiz-adv-x="656" vert-adv-y="993" 
d="M248 650l-36 89l275 120l36 -89zM234 -10q-83 0 -121.5 36t-38.5 113q0 10 1 13l118 11v-7q0 -39 19 -56t61 -17h114q40 0 57.5 16.5t17.5 53.5v10q0 32 -18 44t-80 21l-131 19q-87 13 -120.5 42.5t-33.5 93.5v43q0 79 39 116t121 37h180q82 0 120.5 -36t38.5 -113v-13
l-119 -11v6q0 40 -18.5 57t-61.5 17h-105q-40 0 -58 -16.5t-18 -53.5v-10q0 -29 17.5 -40.5t75.5 -20.5l130 -19q91 -13 126 -43t35 -96v-44q0 -79 -39 -116t-121 -37h-188z" />
    <glyph glyph-name="Scedilla" unicode="&#x15e;" horiz-adv-x="745" vert-adv-y="993" 
d="M488 401q94 -13 131.5 -50t37.5 -116v-66q0 -92 -45.5 -135.5t-142.5 -43.5h-39l-18 -41h14q56 0 81 -22.5t25 -72.5v-6q0 -49 -25.5 -72t-80.5 -23h-134v66h95q29 0 39 6.5t10 24.5v2q0 18 -10 25t-39 7h-95v28l36 78h-51q-97 0 -143 43.5t-46 134.5q0 8 1 11l124 15v-7
q0 -50 22 -70t77 -20h122q55 0 76.5 20t21.5 71v17q0 41 -19 57.5t-78 24.5l-173 25q-94 14 -132 50.5t-38 114.5v62q0 92 46 136t142 44h185q97 0 142.5 -43.5t45.5 -134.5v-11l-125 -15v7q0 50 -21.5 69.5t-76.5 19.5h-113q-56 0 -78 -20t-22 -71v-12q0 -42 18.5 -57.5
t79.5 -24.5z" />
    <glyph glyph-name="scedilla" unicode="&#x15f;" horiz-adv-x="656" vert-adv-y="993" 
d="M421 326q91 -13 126 -43t35 -96v-44q0 -79 -39 -116t-121 -37h-41l-18 -41h14q56 0 81 -22.5t25 -72.5v-6q0 -49 -25.5 -72t-80.5 -23h-134v66h95q29 0 39 6.5t10 24.5v2q0 18 -10 25t-39 7h-95v28l36 78h-45q-83 0 -121.5 36t-38.5 113q0 10 1 13l118 11v-7
q0 -39 19 -56t61 -17h114q40 0 57.5 16.5t17.5 53.5v10q0 32 -18 44t-80 21l-131 19q-87 13 -120.5 42.5t-33.5 93.5v43q0 79 39 116t121 37h180q82 0 120.5 -36t38.5 -113v-13l-119 -11v6q0 40 -18.5 57t-61.5 17h-105q-40 0 -58 -16.5t-18 -53.5v-10q0 -29 17.5 -40.5
t75.5 -20.5z" />
    <glyph glyph-name="Scaron" unicode="&#x160;" horiz-adv-x="745" vert-adv-y="993" 
d="M600 899l-227 -100l-227 100l36 89l191 -88l192 88zM488 401q94 -13 131.5 -50t37.5 -116v-66q0 -92 -45.5 -135.5t-142.5 -43.5h-192q-97 0 -143 43.5t-46 134.5q0 8 1 11l124 15v-7q0 -50 22 -70t77 -20h122q55 0 76.5 20t21.5 71v17q0 41 -19 57.5t-78 24.5l-173 25
q-94 14 -132 50.5t-38 114.5v62q0 92 46 136t142 44h185q97 0 142.5 -43.5t45.5 -134.5v-11l-125 -15v7q0 50 -21.5 69.5t-76.5 19.5h-113q-56 0 -78 -20t-22 -71v-12q0 -42 18.5 -57.5t79.5 -24.5z" />
    <glyph glyph-name="scaron" unicode="&#x161;" horiz-adv-x="656" vert-adv-y="993" 
d="M555 759l-227 -100l-227 100l36 89l191 -88l192 88zM421 326q91 -13 126 -43t35 -96v-44q0 -79 -39 -116t-121 -37h-188q-83 0 -121.5 36t-38.5 113q0 10 1 13l118 11v-7q0 -39 19 -56t61 -17h114q40 0 57.5 16.5t17.5 53.5v10q0 32 -18 44t-80 21l-131 19
q-87 13 -120.5 42.5t-33.5 93.5v43q0 79 39 116t121 37h180q82 0 120.5 -36t38.5 -113v-13l-119 -11v6q0 40 -18.5 57t-61.5 17h-105q-40 0 -58 -16.5t-18 -53.5v-10q0 -29 17.5 -40.5t75.5 -20.5z" />
    <glyph glyph-name="uni0162" unicode="&#x162;" horiz-adv-x="666" vert-adv-y="993" 
d="M395 601v-601l-23 -51h14q56 0 81 -22.5t25 -72.5v-6q0 -49 -25.5 -72t-80.5 -23h-134v66h95q29 0 39 6.5t10 24.5v2q0 18 -10 25t-39 7h-95v28l40 88h-22v601h-224v108h574v-108h-225z" />
    <glyph glyph-name="uni0163" unicode="&#x163;" horiz-adv-x="543" vert-adv-y="993" 
d="M481 473h-201v-312q0 -40 18.5 -57.5t61.5 -17.5h121v-96h-118l-18 -41h14q56 0 81 -22.5t25 -72.5v-6q0 -49 -25.5 -72t-80.5 -23h-134v66h95q29 0 39 6.5t10 24.5v2q0 18 -10 25t-39 7h-95v28l38 84q-102 22 -102 145v332h-125v96h125v108h119v-108h201v-96z" />
    <glyph glyph-name="Tcaron" unicode="&#x164;" horiz-adv-x="666" vert-adv-y="993" 
d="M560 899l-227 -100l-227 100l36 89l191 -88l192 88zM620 709v-108h-225v-601h-125v601h-224v108h574z" />
    <glyph glyph-name="tcaron" unicode="&#x165;" horiz-adv-x="543" vert-adv-y="993" 
d="M634 719q45 0 62.5 -11.5t17.5 -42.5v-12q0 -67 -25.5 -102.5t-109.5 -84.5l-47 66q41 26 58 40.5t22 28.5q-33 2 -46 13t-13 39v12q0 31 17.5 42.5t62.5 11.5h1zM280 677v-108h201v-96h-201v-312q0 -40 18.5 -57.5t61.5 -17.5h121v-96h-161q-81 0 -120 37t-39 114v332
h-125v96h125v108h119z" />
    <glyph glyph-name="Tbar" unicode="&#x166;" horiz-adv-x="666" vert-adv-y="993" 
d="M620 601h-225v-193h121v-107h-121v-301h-125v301h-121v107h121v193h-224v108h574v-108z" />
    <glyph glyph-name="tbar" unicode="&#x167;" horiz-adv-x="543" vert-adv-y="993" 
d="M481 473h-201v-106h201v-108h-201v-98q0 -40 18.5 -57.5t61.5 -17.5h121v-96h-161q-81 0 -120 37t-39 114v118h-125v108h125v106h-125v96h125v108h119v-108h201v-96z" />
    <glyph glyph-name="Umacron" unicode="&#x16a;" horiz-adv-x="762" vert-adv-y="993" 
d="M207 938h349v-95h-349v95zM658 709v-540q0 -92 -45.5 -135.5t-142.5 -43.5h-176q-97 0 -143 43.5t-46 135.5v540h125v-521q0 -51 22 -71t77 -20h106q55 0 76.5 20t21.5 71v521h125z" />
    <glyph glyph-name="umacron" unicode="&#x16b;" horiz-adv-x="679" vert-adv-y="993" 
d="M507 798v-95h-349v95h349zM583 0h-102l-9 50q-16 -31 -44.5 -45.5t-79.5 -14.5h-98q-81 0 -120.5 37t-39.5 114v428h119l1 -408q0 -41 18 -58t61 -17h88q43 0 61.5 17.5t18.5 57.5v408h119v-462z" />
    <glyph glyph-name="Uring" unicode="&#x16e;" horiz-adv-x="762" vert-adv-y="993" 
d="M389 1019q68 0 100 -28.5t32 -90.5v-13q0 -62 -32 -90.5t-100 -28.5h-15q-68 0 -100 28.5t-32 90.5v13q0 62 32 90.5t100 28.5h15zM445 889v8q0 32 -13 44.5t-47 12.5h-6q-35 0 -48 -12.5t-13 -44.5v-8q0 -32 13.5 -44t47.5 -12h6q34 0 47 12.5t13 43.5zM658 709v-540
q0 -92 -45.5 -135.5t-142.5 -43.5h-176q-97 0 -143 43.5t-46 135.5v540h125v-521q0 -51 22 -71t77 -20h106q55 0 76.5 20t21.5 71v521h125z" />
    <glyph glyph-name="uring" unicode="&#x16f;" horiz-adv-x="679" vert-adv-y="993" 
d="M325 628q-68 0 -100 28.5t-32 90.5v13q0 62 32 90.5t100 28.5h15q68 0 100 -28.5t32 -90.5v-13q0 -62 -32 -90.5t-100 -28.5h-15zM269 757v-8q0 -32 13.5 -44t47.5 -12h6q34 0 47 12.5t13 43.5v8q0 32 -13 44.5t-47 12.5h-6q-35 0 -48 -12.5t-13 -44.5zM583 0h-102l-9 50
q-16 -31 -44.5 -45.5t-79.5 -14.5h-98q-81 0 -120.5 37t-39.5 114v428h119l1 -408q0 -41 18 -58t61 -17h88q43 0 61.5 17.5t18.5 57.5v408h119v-462z" />
    <glyph glyph-name="Uhungarumlaut" unicode="&#x170;" horiz-adv-x="762" vert-adv-y="993" 
d="M282 780l-82 51l110 173l82 -49zM493 780l-82 51l110 173l82 -49zM658 709v-540q0 -92 -45.5 -135.5t-142.5 -43.5h-176q-97 0 -143 43.5t-46 135.5v540h125v-521q0 -51 22 -71t77 -20h106q55 0 76.5 20t21.5 71v521h125z" />
    <glyph glyph-name="uhungarumlaut" unicode="&#x171;" horiz-adv-x="679" vert-adv-y="993" 
d="M343 815l-110 -175l-82 51l110 173zM554 815l-110 -175l-82 51l110 173zM583 0h-102l-9 50q-16 -31 -44.5 -45.5t-79.5 -14.5h-98q-81 0 -120.5 37t-39.5 114v428h119l1 -408q0 -41 18 -58t61 -17h88q43 0 61.5 17.5t18.5 57.5v408h119v-462z" />
    <glyph glyph-name="Uogonek" unicode="&#x172;" horiz-adv-x="762" vert-adv-y="993" 
d="M533 709h125v-540q0 -138 -107 -169q-86 -87 -103.5 -108t-17.5 -36q0 -24 36 -24h85v-79h-130q-55 0 -80 16.5t-25 52.5q0 30 20.5 59t98.5 109h-141q-97 0 -143 43.5t-46 135.5v540h125v-521q0 -51 22 -71t77 -20h106q55 0 76.5 20t21.5 71v521z" />
    <glyph glyph-name="uogonek" unicode="&#x173;" horiz-adv-x="679" vert-adv-y="993" 
d="M462 -144q0 -24 36 -24h85v-79h-130q-55 0 -80 16.5t-25 52.5q0 30 22 60t110 121l-8 47q-16 -31 -44.5 -45.5t-79.5 -14.5h-98q-81 0 -120.5 37t-39.5 114v428h119l1 -408q0 -41 18 -58t61 -17h88q43 0 61.5 17.5t18.5 57.5v408h119v-462l7 -107q-86 -87 -103.5 -108
t-17.5 -36z" />
    <glyph glyph-name="Wcircumflex" unicode="&#x174;" horiz-adv-x="1098" vert-adv-y="993" 
d="M551 887l-191 -88l-36 89l227 100l227 -100l-35 -89zM926 709h127l-187 -709h-172l-145 583l-144 -583h-172l-187 709h126l147 -592l146 592h168l147 -592z" />
    <glyph glyph-name="wcircumflex" unicode="&#x175;" horiz-adv-x="933" vert-adv-y="993" 
d="M469 747l-191 -88l-36 89l227 100l227 -100l-35 -89zM778 569h119l-155 -569h-160l-115 462l-116 -462h-160l-155 569h119l117 -460l116 460h157l117 -460z" />
    <glyph glyph-name="Ycircumflex" unicode="&#x176;" horiz-adv-x="749" vert-adv-y="993" 
d="M377 887l-191 -88l-36 89l227 100l227 -100l-35 -89zM704 709l-267 -463v-246h-125v246l-266 463h139l191 -328l188 328h140z" />
    <glyph glyph-name="ycircumflex" unicode="&#x177;" horiz-adv-x="616" vert-adv-y="993" 
d="M310 747l-191 -88l-36 89l227 100l227 -100l-35 -89zM457 569h123l-225 -667q-29 -88 -59 -114.5t-103 -26.5h-134v96h96q40 0 54 10.5t29 52.5l26 80h-37l-191 569h123l149 -462z" />
    <glyph glyph-name="Ydieresis" unicode="&#x178;" horiz-adv-x="749" vert-adv-y="993" 
d="M260 827q-38 0 -54 11.5t-16 41.5v13q0 31 15.5 42t54.5 11h1q39 0 54.5 -11t15.5 -42v-13q0 -30 -16 -41.5t-54 -11.5h-1zM489 827q-38 0 -54 11.5t-16 41.5v13q0 31 15.5 42t54.5 11h1q39 0 54.5 -11t15.5 -42v-13q0 -30 -16 -41.5t-54 -11.5h-1zM704 709l-267 -463
v-246h-125v246l-266 463h139l191 -328l188 328h140z" />
    <glyph glyph-name="Zacute" unicode="&#x179;" horiz-adv-x="673" vert-adv-y="993" 
d="M539 910l-275 -120l-36 89l275 120zM222 107h392v-107h-554v103l388 498h-371v108h532v-103z" />
    <glyph glyph-name="zacute" unicode="&#x17a;" horiz-adv-x="604" vert-adv-y="993" 
d="M498 770l-275 -120l-36 89l275 120zM212 96h334v-96h-488v89l328 384h-315v96h469v-89z" />
    <glyph glyph-name="Zdotaccent" unicode="&#x17b;" horiz-adv-x="673" vert-adv-y="993" 
d="M343 827q-45 0 -62.5 11t-17.5 42v13q0 31 17 42t63 11h1q46 0 63 -11t17 -42v-13q0 -31 -17.5 -42t-62.5 -11h-1zM222 107h392v-107h-554v103l388 498h-371v108h532v-103z" />
    <glyph glyph-name="zdotaccent" unicode="&#x17c;" horiz-adv-x="604" vert-adv-y="993" 
d="M302 687q-45 0 -62.5 11.5t-17.5 41.5v13q0 31 17 42t63 11h1q46 0 63 -11t17 -42v-13q0 -30 -17.5 -41.5t-62.5 -11.5h-1zM212 96h334v-96h-488v89l328 384h-315v96h469v-89z" />
    <glyph glyph-name="Zcaron" unicode="&#x17d;" horiz-adv-x="673" vert-adv-y="993" 
d="M571 899l-227 -100l-227 100l36 89l191 -88l192 88zM222 107h392v-107h-554v103l388 498h-371v108h532v-103z" />
    <glyph glyph-name="zcaron" unicode="&#x17e;" horiz-adv-x="604" vert-adv-y="993" 
d="M530 759l-227 -100l-227 100l36 89l191 -88l192 88zM212 96h334v-96h-488v89l328 384h-315v96h469v-89z" />
    <glyph glyph-name="uni0237" unicode="&#x237;" horiz-adv-x="385" vert-adv-y="993" 
d="M46 569h246v-656q0 -78 -39 -115t-121 -37h-142v96h103q43 0 61.5 17.5t18.5 57.5v541h-127v96z" />
    <glyph glyph-name="circumflex" unicode="&#x2c6;" horiz-adv-x="600" vert-adv-y="993" 
d="M525 748l-35 -89l-192 88l-191 -88l-36 89l227 100z" />
    <glyph glyph-name="caron" unicode="&#x2c7;" horiz-adv-x="600" vert-adv-y="993" 
d="M490 848l35 -89l-227 -100l-227 100l36 89l191 -88z" />
    <glyph glyph-name="breve" unicode="&#x2d8;" horiz-adv-x="600" vert-adv-y="993" 
d="M338 845h96v-94q0 -55 -26.5 -80t-84.5 -25h-141q-58 0 -84.5 25t-26.5 80v94h96v-68q0 -28 12 -39t42 -11h64q30 0 41.5 11t11.5 39v68z" />
    <glyph glyph-name="dotaccent" unicode="&#x2d9;" horiz-adv-x="600" vert-adv-y="993" 
d="M151 687q-45 0 -62.5 11.5t-17.5 41.5v13q0 31 17 42t63 11h1q46 0 63 -11t17 -42v-13q0 -30 -17.5 -41.5t-62.5 -11.5h-1z" />
    <glyph glyph-name="ring" unicode="&#x2da;" horiz-adv-x="600" vert-adv-y="993" 
d="M218 879q68 0 100 -28.5t32 -90.5v-13q0 -62 -32 -90.5t-100 -28.5h-15q-68 0 -100 28.5t-32 90.5v13q0 62 32 90.5t100 28.5h15zM274 749v8q0 32 -13 44.5t-47 12.5h-6q-35 0 -48 -12.5t-13 -44.5v-8q0 -32 13.5 -44t47.5 -12h6q34 0 47 12.5t13 43.5z" />
    <glyph glyph-name="ogonek" unicode="&#x2db;" horiz-adv-x="600" vert-adv-y="993" 
d="M306 -247h-130q-55 0 -80 16.5t-25 52.5q0 31 23 61.5t114 124.5l98 -8q-86 -87 -103.5 -108t-17.5 -36q0 -24 36 -24h85v-79z" />
    <glyph glyph-name="tilde" unicode="&#x2dc;" horiz-adv-x="600" vert-adv-y="993" 
d="M441 794v-96q-60 -20 -93 -20q-29 0 -93 23t-91 23q-31 0 -93 -21v96q60 20 93 20q29 0 93 -23t91 -23q24 0 93 21z" />
    <glyph glyph-name="hungarumlaut" unicode="&#x2dd;" horiz-adv-x="600" vert-adv-y="993" 
d="M153 640l-82 51l110 173l82 -49zM364 640l-82 51l110 173l82 -49z" />
    <glyph glyph-name="gravecomb" unicode="&#x300;" horiz-adv-x="0" vert-adv-y="993" 
d="M-107 650l-275 120l36 89l275 -120z" />
    <glyph glyph-name="acutecomb" unicode="&#x301;" horiz-adv-x="0" vert-adv-y="993" 
d="M-346 650l-36 89l275 120l36 -89z" />
    <glyph glyph-name="uni0302" unicode="&#x302;" horiz-adv-x="0" vert-adv-y="993" 
d="M-71 748l-35 -89l-192 88l-191 -88l-36 89l227 100z" />
    <glyph glyph-name="tildecomb" unicode="&#x303;" horiz-adv-x="0" vert-adv-y="993" 
d="M-71 794v-96q-60 -20 -93 -20q-29 0 -93 23t-91 23q-31 0 -93 -21v96q60 20 93 20q29 0 93 -23t91 -23q24 0 93 21z" />
    <glyph glyph-name="uni0304" unicode="&#x304;" horiz-adv-x="0" vert-adv-y="993" 
d="M-420 798h349v-95h-349v95z" />
    <glyph glyph-name="uni0306" unicode="&#x306;" horiz-adv-x="0" vert-adv-y="993" 
d="M-167 845h96v-94q0 -55 -26.5 -80t-84.5 -25h-141q-58 0 -84.5 25t-26.5 80v94h96v-68q0 -28 12 -39t42 -11h64q30 0 41.5 11t11.5 39v68z" />
    <glyph glyph-name="uni0307" unicode="&#x307;" horiz-adv-x="0" vert-adv-y="993" 
d="M-153 687q-45 0 -62.5 11.5t-17.5 41.5v13q0 31 17 42t63 11h1q46 0 63 -11t17 -42v-13q0 -30 -17.5 -41.5t-62.5 -11.5h-1z" />
    <glyph glyph-name="uni0308" unicode="&#x308;" horiz-adv-x="0" vert-adv-y="993" 
d="M-371 687q-38 0 -54 11.5t-16 41.5v13q0 31 15.5 42t54.5 11h1q39 0 54.5 -11t15.5 -42v-13q0 -30 -16 -41.5t-54 -11.5h-1zM-142 687q-38 0 -54 11.5t-16 41.5v13q0 31 15.5 42t54.5 11h1q39 0 54.5 -11t15.5 -42v-13q0 -30 -16 -41.5t-54 -11.5h-1z" />
    <glyph glyph-name="uni030A" unicode="&#x30a;" horiz-adv-x="0" vert-adv-y="993" 
d="M-203 879q68 0 100 -28.5t32 -90.5v-13q0 -62 -32 -90.5t-100 -28.5h-15q-68 0 -100 28.5t-32 90.5v13q0 62 32 90.5t100 28.5h15zM-147 749v8q0 32 -13 44.5t-47 12.5h-6q-35 0 -48 -12.5t-13 -44.5v-8q0 -32 13.5 -44t47.5 -12h6q34 0 47 12.5t13 43.5z" />
    <glyph glyph-name="uni030B" unicode="&#x30b;" horiz-adv-x="0" vert-adv-y="993" 
d="M-392 640l-82 51l110 173l82 -49zM-181 640l-82 51l110 173l82 -49z" />
    <glyph glyph-name="uni030C" unicode="&#x30c;" horiz-adv-x="0" vert-adv-y="993" 
d="M-106 848l35 -89l-227 -100l-227 100l36 89l191 -88z" />
    <glyph glyph-name="uni0312" unicode="&#x312;" horiz-adv-x="0" vert-adv-y="993" 
d="M-151 805q34 -1 47 -12.5t13 -39.5v-13q0 -30 -17.5 -41.5t-62.5 -11.5h-2q-45 0 -62.5 11.5t-17.5 41.5v13q0 67 26 102.5t110 84.5l46 -66q-41 -26 -58 -40.5t-22 -28.5z" />
    <glyph glyph-name="uni0326" unicode="&#x326;" horiz-adv-x="0" vert-adv-y="993" 
d="M-151 -57q46 0 63 -11t17 -42v-12q0 -67 -26 -103t-109 -85l-47 67q71 44 80 68q-33 2 -46.5 13.5t-13.5 39.5v12q0 31 17.5 42t63.5 11h1z" />
    <glyph glyph-name="uni0327" unicode="&#x327;" horiz-adv-x="0" vert-adv-y="993" 
d="M-177 -51q56 0 81 -22.5t25 -72.5v-6q0 -49 -25.5 -72t-80.5 -23h-134v66h95q29 0 39 6.5t10 24.5v2q0 18 -10 25t-39 7h-95v28l43 94l100 -6l-23 -51h14z" />
    <glyph glyph-name="uni0328" unicode="&#x328;" horiz-adv-x="0" vert-adv-y="993" 
d="M-71 -247h-130q-55 0 -80 16.5t-25 52.5q0 31 23 61.5t114 124.5l98 -8q-86 -87 -103.5 -108t-17.5 -36q0 -24 36 -24h85v-79z" />
    <glyph glyph-name="uni0335" unicode="&#x335;" horiz-adv-x="0" vert-adv-y="993" 
d="M-349 239v107h278v-107h-278z" />
    <glyph glyph-name="uni0337" unicode="&#x337;" horiz-adv-x="0" vert-adv-y="993" 
d="M-416 304l345 212v-108l-345 -212v108z" />
    <glyph glyph-name="uni0338" unicode="&#x338;" horiz-adv-x="0" vert-adv-y="993" 
d="M-585 -100l450 900h64l-450 -900h-64z" />
    <glyph glyph-name="uni0401" unicode="&#x401;" horiz-adv-x="660" vert-adv-y="993" 
d="M239 827q-38 0 -54 11.5t-16 41.5v13q0 31 15.5 42t54.5 11h1q39 0 54.5 -11t15.5 -42v-13q0 -30 -16 -41.5t-54 -11.5h-1zM468 827q-38 0 -54 11.5t-16 41.5v13q0 31 15.5 42t54.5 11h1q39 0 54.5 -11t15.5 -42v-13q0 -30 -16 -41.5t-54 -11.5h-1zM603 601h-373v-183
h331v-107h-331v-204h373v-107h-498v709h498v-108z" />
    <glyph glyph-name="uni0404" unicode="&#x404;" horiz-adv-x="745" vert-adv-y="993" 
d="M662 530l-125 -15v7q0 50 -21.5 69.5t-76.5 19.5h-120q-55 0 -77 -20t-22 -71v-107h237v-107h-237v-118q0 -51 22 -71t77 -20h120q55 0 76.5 20t21.5 70v7l125 -15v-11q0 -91 -45.5 -134.5t-142.5 -43.5h-190q-97 0 -143 43.5t-46 135.5v370q0 92 46 136t143 44h190
q97 0 142.5 -43.5t45.5 -134.5v-11z" />
    <glyph glyph-name="uni0406" unicode="&#x406;" horiz-adv-x="336" vert-adv-y="993" 
d="M105 0v709h125v-709h-125z" />
    <glyph glyph-name="uni0407" unicode="&#x407;" horiz-adv-x="336" vert-adv-y="993" 
d="M53 827q-38 0 -54 11.5t-16 41.5v13q0 31 15.5 42t54.5 11h1q39 0 54.5 -11t15.5 -42v-13q0 -30 -16 -41.5t-54 -11.5h-1zM282 827q-38 0 -54 11.5t-16 41.5v13q0 31 15.5 42t54.5 11h1q39 0 54.5 -11t15.5 -42v-13q0 -30 -16 -41.5t-54 -11.5h-1zM105 0v709h125v-709
h-125z" />
    <glyph glyph-name="uni040E" unicode="&#x40e;" horiz-adv-x="749" vert-adv-y="993" 
d="M304 786q-58 0 -84.5 25t-26.5 80v94h96v-68q0 -28 12 -39t42 -11h64q30 0 41.5 11t11.5 39v68h96v-94q0 -55 -26.5 -80t-84.5 -25h-141zM565 709h139l-365 -709h-139l104 203l-258 506h139l190 -373z" />
    <glyph glyph-name="uni0410" unicode="&#x410;" horiz-adv-x="759" vert-adv-y="993" 
d="M585 0l-63 188h-285l-63 -188h-128l243 709h181l244 -709h-129zM274 295h212l-106 315z" />
    <glyph glyph-name="uni0411" unicode="&#x411;" horiz-adv-x="703" vert-adv-y="993" 
d="M460 428q97 0 142.5 -44t45.5 -136v-69q0 -92 -45.5 -135.5t-142.5 -43.5h-355v709h501v-108h-376v-173h230zM523 198v31q0 51 -21.5 71t-76.5 20h-195v-213h195q55 0 76.5 20t21.5 71z" />
    <glyph glyph-name="uni0412" unicode="&#x412;" horiz-adv-x="711" vert-adv-y="993" 
d="M563 369q50 -19 71.5 -54.5t21.5 -96.5v-38q0 -92 -46 -136t-142 -44h-362v709h343q97 0 142.5 -44t45.5 -136v-27q0 -47 -17 -78t-57 -55zM512 510q0 51 -21.5 71t-76.5 20h-183v-188h183q57 0 77.5 17.5t20.5 65.5v14zM531 198v21q0 51 -21.5 70.5t-77.5 19.5h-201
v-202h201q55 0 77 20.5t22 70.5z" />
    <glyph glyph-name="uni0413" unicode="&#x413;" horiz-adv-x="634" vert-adv-y="993" 
d="M588 709v-108h-358v-601h-125v709h483z" />
    <glyph glyph-name="uni0414" unicode="&#x414;" horiz-adv-x="852" vert-adv-y="993" 
d="M709 107h97v-267h-125v160h-510v-160h-125v267h94q30 65 42 124t28 213l29 265h468zM349 601l-16 -158q-16 -142 -28 -208t-34 -128h311v494h-233z" />
    <glyph glyph-name="uni0415" unicode="&#x415;" horiz-adv-x="660" vert-adv-y="993" 
d="M603 601h-373v-183h331v-107h-331v-204h373v-107h-498v709h498v-108z" />
    <glyph glyph-name="uni0416" unicode="&#x416;" horiz-adv-x="1128" vert-adv-y="993" 
d="M935 0l-235 307h-73v-307h-125v307h-73l-236 -307h-147l274 361l-254 348h146l218 -295h72v295h125v-295h72l217 295h147l-254 -348l274 -361h-148z" />
    <glyph glyph-name="uni0417" unicode="&#x417;" horiz-adv-x="707" vert-adv-y="993" 
d="M562 369q49 -19 69.5 -55t20.5 -98v-47q0 -91 -46 -135t-142 -44h-193q-97 0 -142.5 43.5t-45.5 134.5v11l125 15v-7q0 -50 21.5 -70t76.5 -20h122q55 0 77 20t22 71v28q0 51 -21.5 70.5t-77.5 19.5h-138v107h126q57 0 77.5 17.5t20.5 65.5v24q0 51 -21.5 71t-76.5 20
h-106q-55 0 -76.5 -19.5t-21.5 -69.5v-7l-124 15q-1 3 -1 11q0 91 45.5 134.5t142.5 43.5h176q97 0 142.5 -44t45.5 -136v-40q0 -46 -18 -76.5t-59 -53.5z" />
    <glyph glyph-name="uni0418" unicode="&#x418;" horiz-adv-x="773" vert-adv-y="993" 
d="M546 709h124v-709h-125v504l-318 -504h-124v709h125v-506z" />
    <glyph glyph-name="uni0419" unicode="&#x419;" horiz-adv-x="773" vert-adv-y="993" 
d="M316 786q-58 0 -84.5 25t-26.5 80v94h96v-68q0 -28 12 -39t42 -11h64q30 0 41.5 11t11.5 39v68h96v-94q0 -55 -26.5 -80t-84.5 -25h-141zM546 709h124v-709h-125v504l-318 -504h-124v709h125v-506z" />
    <glyph glyph-name="uni041A" unicode="&#x41a;" horiz-adv-x="751" vert-adv-y="993" 
d="M558 0l-236 307h-92v-307h-125v709h125v-295h91l217 295h147l-254 -348l274 -361h-147z" />
    <glyph glyph-name="uni041B" unicode="&#x41b;" horiz-adv-x="810" vert-adv-y="993" 
d="M224 709h480v-709h-125v601h-245l-50 -457q-9 -83 -46 -118.5t-114 -35.5h-78v96h38q41 0 58.5 16t21.5 59z" />
    <glyph glyph-name="uni041C" unicode="&#x41c;" horiz-adv-x="908" vert-adv-y="993" 
d="M679 709h123v-709h-125v504l-200 -309h-48l-201 311v-506h-125v709h124l226 -350z" />
    <glyph glyph-name="uni041D" unicode="&#x41d;" horiz-adv-x="776" vert-adv-y="993" 
d="M546 709h125v-709h-125v307h-316v-307h-125v709h125v-295h316v295z" />
    <glyph glyph-name="uni041E" unicode="&#x41e;" horiz-adv-x="758" vert-adv-y="993" 
d="M474 719q97 0 142.5 -44t45.5 -136v-370q0 -92 -45.5 -135.5t-142.5 -43.5h-190q-97 0 -143 43.5t-46 135.5v370q0 92 46 136t143 44h190zM537 520q0 51 -21.5 71t-76.5 20h-120q-55 0 -77 -20t-22 -71v-332q0 -51 22 -71t77 -20h120q55 0 76.5 20t21.5 71v332z" />
    <glyph glyph-name="uni041F" unicode="&#x41f;" horiz-adv-x="776" vert-adv-y="993" 
d="M671 709v-709h-125v601h-316v-601h-125v709h566z" />
    <glyph glyph-name="uni0420" unicode="&#x420;" horiz-adv-x="703" vert-adv-y="993" 
d="M460 709q97 0 142.5 -44t45.5 -136v-82q0 -92 -45.5 -136t-142.5 -44h-230v-267h-125v709h355zM523 466v44q0 51 -21.5 71t-76.5 20h-195v-226h195q55 0 76.5 20t21.5 71z" />
    <glyph glyph-name="uni0421" unicode="&#x421;" horiz-adv-x="745" vert-adv-y="993" 
d="M284 -10q-97 0 -143 43.5t-46 135.5v370q0 92 46 136t143 44h190q97 0 142.5 -43.5t45.5 -134.5v-11l-125 -15v7q0 50 -21.5 69.5t-76.5 19.5h-120q-55 0 -77 -20t-22 -71v-332q0 -51 22 -71t77 -20h120q55 0 76.5 20t21.5 70v7l125 -15v-11q0 -91 -45.5 -134.5
t-142.5 -43.5h-190z" />
    <glyph glyph-name="uni0422" unicode="&#x422;" horiz-adv-x="666" vert-adv-y="993" 
d="M620 709v-108h-225v-601h-125v601h-224v108h574z" />
    <glyph glyph-name="uni0423" unicode="&#x423;" horiz-adv-x="749" vert-adv-y="993" 
d="M565 709h139l-365 -709h-139l104 203l-258 506h139l190 -373z" />
    <glyph glyph-name="uni0424" unicode="&#x424;" horiz-adv-x="903" vert-adv-y="993" 
d="M659 628q97 0 143 -43.5t46 -135.5v-159q0 -92 -46 -135.5t-143 -43.5h-145v-111h-125v111h-146q-97 0 -142.5 43.5t-45.5 135.5v159q0 92 45.5 135.5t142.5 43.5h146v81h125v-81h145zM278 218h111v303h-111q-55 0 -76.5 -20t-21.5 -71v-121q0 -51 21.5 -71t76.5 -20z
M723 309v121q0 51 -22 71t-77 20h-110v-303h110q55 0 77 20t22 71z" />
    <glyph glyph-name="uni0425" unicode="&#x425;" horiz-adv-x="752" vert-adv-y="993" 
d="M707 0h-148l-183 268l-183 -268h-147l243 361l-230 348h147l170 -254l170 254h148l-231 -349z" />
    <glyph glyph-name="uni0426" unicode="&#x426;" horiz-adv-x="815" vert-adv-y="993" 
d="M672 107h97v-267h-125v160h-539v709h126l1 -602h313v602h126z" />
    <glyph glyph-name="uni0427" unicode="&#x427;" vert-adv-y="993" 
d="M464 709h125v-709h-125v283q-33 -34 -105 -34h-111q-193 0 -193 179v281h125v-262q0 -50 22.5 -70.5t77.5 -20.5h85q55 0 77 20t22 71v262z" />
    <glyph glyph-name="uni0428" unicode="&#x428;" horiz-adv-x="1117" vert-adv-y="993" 
d="M1011 709l1 -709h-907l1 709h126v-602h263l1 602h126v-602h263v602h126z" />
    <glyph glyph-name="uni0429" unicode="&#x429;" horiz-adv-x="1156" vert-adv-y="993" 
d="M1012 107h98v-267h-125v160h-880l1 709h126v-602h263l1 602h126v-602h263v602h126z" />
    <glyph glyph-name="uni042A" unicode="&#x42a;" horiz-adv-x="788" vert-adv-y="993" 
d="M545 432q96 0 142 -44t46 -136v-73q0 -91 -46 -135t-142 -44h-355v601h-144v108h269v-277h230zM608 198v35q0 51 -22 71.5t-77 20.5h-194v-218h194q55 0 77 20t22 71z" />
    <glyph glyph-name="uni042B" unicode="&#x42b;" horiz-adv-x="976" vert-adv-y="993" 
d="M460 432q97 0 142.5 -44t45.5 -136v-73q0 -92 -45.5 -135.5t-142.5 -43.5h-355v709h125v-277h230zM745 709h125v-709h-125v709zM523 198v35q0 51 -21.5 71.5t-76.5 20.5h-195v-218h195q55 0 76.5 20t21.5 71z" />
    <glyph glyph-name="uni042C" unicode="&#x42c;" horiz-adv-x="703" vert-adv-y="993" 
d="M460 432q97 0 142.5 -44t45.5 -136v-73q0 -92 -45.5 -135.5t-142.5 -43.5h-355v709h125v-277h230zM523 198v35q0 51 -21.5 71.5t-76.5 20.5h-195v-218h195q55 0 76.5 20t21.5 71z" />
    <glyph glyph-name="uni042D" unicode="&#x42d;" horiz-adv-x="745" vert-adv-y="993" 
d="M461 719q97 0 143 -44t46 -136v-370q0 -92 -46 -135.5t-143 -43.5h-190q-97 0 -142.5 43.5t-45.5 134.5v11l125 15v-7q0 -50 21.5 -70t76.5 -20h120q55 0 77 20t22 71v118h-237v107h237v107q0 51 -22 71t-77 20h-120q-55 0 -76.5 -19.5t-21.5 -69.5v-7l-125 15v11
q0 91 45.5 134.5t142.5 43.5h190z" />
    <glyph glyph-name="uni042E" unicode="&#x42e;" horiz-adv-x="1071" vert-adv-y="993" 
d="M787 719q97 0 142.5 -44t45.5 -136v-370q0 -92 -45.5 -135.5t-142.5 -43.5h-190q-97 0 -143 43.5t-46 135.5v138h-178v-307h-125v709h125v-295h178v125q0 92 46 136t143 44h190zM850 188v332q0 51 -21.5 71t-76.5 20h-120q-55 0 -77 -20t-22 -71v-332q0 -51 22 -71
t77 -20h120q55 0 76.5 20t21.5 71z" />
    <glyph glyph-name="uni042F" unicode="&#x42f;" horiz-adv-x="757" vert-adv-y="993" 
d="M295 709h357v-709h-125v273h-121l-213 -273h-147l209 275q-148 16 -148 177v77q0 92 46 136t142 44zM331 381h196v220h-196q-55 0 -77 -20t-22 -71v-39q0 -51 21.5 -70.5t77.5 -19.5z" />
    <glyph glyph-name="uni0430" unicode="&#x430;" vert-adv-y="993" 
d="M601 0h-102l-7 41q-34 -51 -127 -51h-119q-82 0 -121 37t-39 115v52q0 75 38.5 110t121.5 35h188q29 0 40 -7v76q0 40 -18.5 57.5t-61.5 17.5h-104q-43 0 -61.5 -17t-18.5 -57v-6l-119 11v13q0 77 39 114.5t120 37.5h184q81 0 120 -37.5t39 -114.5v-320zM394 86
q44 0 62 16.5t18 55.5v81q-8 4 -29 4h-160q-43 0 -61 -16.5t-18 -55.5v-13q0 -39 18 -55.5t61 -16.5h109z" />
    <glyph glyph-name="uni0431" unicode="&#x431;" horiz-adv-x="689" vert-adv-y="993" 
d="M441 522q82 0 121 -37t39 -115v-229q0 -77 -39 -114t-121 -37h-193q-82 0 -121 37t-39 114v371q0 107 46 152.5t173 66.5l261 43v-96l-278 -46q-47 -8 -64.5 -24.5t-17.5 -54.5v-68q33 37 109 37h124zM482 161v190q0 40 -18.5 57.5t-61.5 17.5h-115q-43 0 -61 -17.5
t-18 -57.5v-190q0 -41 18 -58t61 -17h115q43 0 61.5 17.5t18.5 57.5z" />
    <glyph glyph-name="uni0432" unicode="&#x432;" horiz-adv-x="657" vert-adv-y="993" 
d="M525 297q39 -15 58 -43t19 -80v-24q0 -77 -39 -113.5t-121 -36.5h-346v569h328q83 0 121.5 -36t38.5 -112v-19q0 -70 -59 -105zM464 406q0 37 -17.5 52t-62.5 15h-169v-138h169q45 0 62.5 15t17.5 52v4zM483 166v3q0 38 -18 54t-62 16h-188v-143h188q44 0 62 16t18 54z
" />
    <glyph glyph-name="uni0433" unicode="&#x433;" horiz-adv-x="541" vert-adv-y="993" 
d="M506 569v-96h-291v-473h-120v569h411z" />
    <glyph glyph-name="uni0434" unicode="&#x434;" horiz-adv-x="770" vert-adv-y="993" 
d="M639 96h95v-256h-119v160h-460v-160h-119v256h88q34 72 46 129.5t31 222.5l13 121h425v-473zM322 473l-5 -44q-14 -138 -26 -200t-37 -133h266v377h-198z" />
    <glyph glyph-name="uni0435" unicode="&#x435;" horiz-adv-x="682" vert-adv-y="993" 
d="M597 249h-391v-89q0 -40 18.5 -57t61.5 -17h112q42 0 61 17t19 57v6l118 -11q1 -4 1 -13q0 -78 -39 -115t-121 -37h-191q-81 0 -120 37t-39 115v285q0 77 39 114.5t120 37.5h191q82 0 121 -37.5t39 -114.5v-178zM286 483q-43 0 -61.5 -17.5t-18.5 -57.5v-63h272v63
q0 40 -18.5 57.5t-61.5 17.5h-112z" />
    <glyph glyph-name="uni0436" unicode="&#x436;" horiz-adv-x="983" vert-adv-y="993" 
d="M804 0l-188 248h-65v-248h-119v248h-65l-187 -248h-144l223 297l-209 272h145l174 -225h63v225h119v-225h63l175 225h144l-209 -273l224 -296h-144z" />
    <glyph glyph-name="uni0437" unicode="&#x437;" horiz-adv-x="653" vert-adv-y="993" 
d="M523 296q38 -15 56.5 -42.5t18.5 -79.5v-34q0 -77 -39 -113.5t-121 -36.5h-190q-81 0 -120.5 37t-39.5 115q0 8 1 13l119 11v-6q0 -40 18.5 -57t60.5 -17h111q44 0 62 16.5t18 56.5v7q0 40 -18 56.5t-62 16.5h-105v96h91q44 0 61.5 16t17.5 56v4q0 40 -17.5 56t-61.5 16
h-91q-42 0 -61 -17t-19 -57v-6l-118 11q-1 5 -1 13q0 77 39 114.5t121 37.5h175q80 -2 117 -37.5t37 -110.5v-29q0 -69 -60 -106z" />
    <glyph glyph-name="uni0438" unicode="&#x438;" horiz-adv-x="703" vert-adv-y="993" 
d="M490 569h118v-569h-119v391l-276 -391h-118v569h120v-389z" />
    <glyph glyph-name="uni0439" unicode="&#x439;" horiz-adv-x="703" vert-adv-y="993" 
d="M281 646q-58 0 -84.5 25t-26.5 80v94h96v-68q0 -28 12 -39t42 -11h64q30 0 41.5 11t11.5 39v68h96v-94q0 -55 -26.5 -80t-84.5 -25h-141zM490 569h118v-569h-119v391l-276 -391h-118v569h120v-389z" />
    <glyph glyph-name="uni043A" unicode="&#x43a;" horiz-adv-x="652" vert-adv-y="993" 
d="M472 0l-188 248h-69v-248h-120v569h120v-225h68l174 225h145l-209 -272l223 -297h-144z" />
    <glyph glyph-name="uni043B" unicode="&#x43b;" horiz-adv-x="710" vert-adv-y="993" 
d="M186 569h429v-569h-119v473h-201l-36 -328q-9 -82 -45.5 -118.5t-115.5 -36.5h-62v96h26q42 0 59 16.5t21 61.5z" />
    <glyph glyph-name="uni043C" unicode="&#x43c;" horiz-adv-x="790" vert-adv-y="993" 
d="M577 569h118v-569h-119v388l-156 -231h-49l-156 230v-387h-120v569h118l182 -273z" />
    <glyph glyph-name="uni043D" unicode="&#x43d;" horiz-adv-x="697" vert-adv-y="993" 
d="M483 569h119v-569h-119v243h-268v-243h-120v569h120v-230h268v230z" />
    <glyph glyph-name="uni043E" unicode="&#x43e;" vert-adv-y="993" 
d="M248 -10q-82 0 -121 37t-39 114v286q0 78 39 115t121 37h198q81 0 120 -37t39 -115v-286q0 -77 -39 -114t-120 -37h-198zM287 86h119q43 0 61.5 17.5t18.5 57.5v247q0 40 -18.5 57.5t-61.5 17.5h-119q-43 0 -61 -17.5t-18 -57.5v-247q0 -41 18 -58t61 -17z" />
    <glyph glyph-name="uni043F" unicode="&#x43f;" horiz-adv-x="697" vert-adv-y="993" 
d="M602 569v-569h-119v473h-268v-473h-120v569h507z" />
    <glyph glyph-name="uni0440" unicode="&#x440;" horiz-adv-x="704" vert-adv-y="993" 
d="M456 579q81 0 120 -37t39 -115v-286q0 -77 -39 -114t-120 -37h-125q-76 0 -109 37v-256h-119v690l-8 108h102l9 -51q31 61 125 61h125zM496 161v247q0 40 -18.5 57.5t-61.5 17.5h-114q-43 0 -61.5 -17.5t-18.5 -57.5v-247q0 -40 18.5 -57.5t61.5 -17.5h114
q43 0 61.5 17.5t18.5 57.5z" />
    <glyph glyph-name="uni0441" unicode="&#x441;" horiz-adv-x="673" vert-adv-y="993" 
d="M248 -10q-82 0 -121 37t-39 114v286q0 78 39 115t121 37h185q81 0 120.5 -37t39.5 -115q0 -9 -1 -13l-119 -11v6q0 40 -18.5 57t-61.5 17h-106q-43 0 -61 -17.5t-18 -57.5v-247q0 -41 18 -58t61 -17h106q43 0 61.5 17t18.5 56v7l119 -11q1 -5 1 -14q0 -77 -39.5 -114
t-120.5 -37h-185z" />
    <glyph glyph-name="uni0442" unicode="&#x442;" horiz-adv-x="572" vert-adv-y="993" 
d="M536 569v-96h-191v-473h-119v473h-190v96h500z" />
    <glyph glyph-name="uni0443" unicode="&#x443;" horiz-adv-x="616" vert-adv-y="993" 
d="M457 569h123l-225 -667q-29 -88 -59 -114.5t-103 -26.5h-134v96h96q40 0 54 10.5t29 52.5l26 80h-37l-191 569h123l149 -462z" />
    <glyph glyph-name="uni0444" unicode="&#x444;" horiz-adv-x="1083" vert-adv-y="993" 
d="M835 579q82 0 121 -37t39 -115v-286q0 -77 -39 -114t-121 -37h-125q-76 0 -109 37v-256h-119v256q-33 -37 -109 -37h-125q-82 0 -121 37t-39 114v286q0 78 39 115t121 37h125q76 0 109 -37v222h119v-222q33 37 109 37h125zM402 86q43 0 61.5 17.5t18.5 57.5v247
q0 40 -18.5 57.5t-61.5 17.5h-115q-43 0 -61 -17.5t-18 -57.5v-247q0 -41 18 -58t61 -17h115zM876 161v247q0 40 -18.5 57.5t-61.5 17.5h-115q-43 0 -61.5 -17.5t-18.5 -57.5v-247q0 -40 18.5 -57.5t61.5 -17.5h115q43 0 61.5 17.5t18.5 57.5z" />
    <glyph glyph-name="uni0445" unicode="&#x445;" horiz-adv-x="647" vert-adv-y="993" 
d="M612 0h-141l-147 206l-148 -206h-140l210 290l-205 279h141l142 -198l141 198h141l-204 -279z" />
    <glyph glyph-name="uni0446" unicode="&#x446;" horiz-adv-x="732" vert-adv-y="993" 
d="M602 96h95v-256h-119v160h-483v569h120v-473h268v473h119v-473z" />
    <glyph glyph-name="uni0447" unicode="&#x447;" horiz-adv-x="646" vert-adv-y="993" 
d="M431 569h120v-569h-120v221q-30 -30 -87 -30h-139q-81 0 -120 37t-39 115v226h119v-207q0 -40 18.5 -57.5t61.5 -17.5h107q43 0 61 17t18 58v207z" />
    <glyph glyph-name="uni0448" unicode="&#x448;" horiz-adv-x="980" vert-adv-y="993" 
d="M765 569h119v-569h-789v569h120v-473h215v473h120v-473h215v473z" />
    <glyph glyph-name="uni0449" unicode="&#x449;" horiz-adv-x="1015" vert-adv-y="993" 
d="M884 96h95v-256h-119v160h-765v569h120v-473h215v473h120v-473h215v473h119v-473z" />
    <glyph glyph-name="uni044A" unicode="&#x44a;" horiz-adv-x="733" vert-adv-y="993" 
d="M525 367q82 0 121 -37t39 -114v-65q0 -77 -39 -114t-121 -37h-345v473h-144v96h263v-202h226zM566 171v26q0 40 -18.5 57.5t-61.5 17.5h-187v-176h187q43 0 61.5 17.5t18.5 57.5z" />
    <glyph glyph-name="uni044B" unicode="&#x44b;" horiz-adv-x="894" vert-adv-y="993" 
d="M441 367q81 0 120 -37t39 -114v-65q0 -77 -39 -114t-120 -37h-346v569h120v-202h226zM680 569h119v-569h-119v569zM481 171v26q0 40 -18.5 57.5t-61.5 17.5h-186v-176h186q43 0 61.5 17.5t18.5 57.5z" />
    <glyph glyph-name="uni044C" unicode="&#x44c;" horiz-adv-x="648" vert-adv-y="993" 
d="M441 367q81 0 120 -37t39 -114v-65q0 -77 -39 -114t-120 -37h-346v569h120v-202h226zM481 171v26q0 40 -18.5 57.5t-61.5 17.5h-186v-176h186q43 0 61.5 17.5t18.5 57.5z" />
    <glyph glyph-name="uni044D" unicode="&#x44d;" horiz-adv-x="673" vert-adv-y="993" 
d="M425 579q82 0 121 -37t39 -115v-286q0 -77 -39 -114t-121 -37h-185q-81 0 -120.5 37t-39.5 114q0 9 1 14l119 11v-7q0 -39 18.5 -56t60.5 -17h107q43 0 61 17t18 58v78h-181v95h181v74q0 40 -18 57.5t-61 17.5h-107q-42 0 -60.5 -17t-18.5 -57v-6l-119 11q-1 4 -1 13
q0 78 39.5 115t120.5 37h185z" />
    <glyph glyph-name="uni044E" unicode="&#x44e;" horiz-adv-x="966" vert-adv-y="993" 
d="M718 579q82 0 121 -37t39 -115v-286q0 -77 -39 -114t-121 -37h-197q-82 0 -121 37t-39 114v98h-146v-239h-120v569h120v-235h146v93q0 78 39 115t121 37h197zM759 161v247q0 40 -18.5 57.5t-61.5 17.5h-119q-43 0 -61.5 -17.5t-18.5 -57.5v-247q0 -40 18.5 -57.5
t61.5 -17.5h119q43 0 61.5 17.5t18.5 57.5z" />
    <glyph glyph-name="uni044F" unicode="&#x44f;" horiz-adv-x="662" vert-adv-y="993" 
d="M567 569v-569h-119v206h-110l-161 -206h-141l160 207q-129 13 -129 151v59q0 78 39 115t121 37h340zM266 302h182v171h-182q-43 0 -61.5 -17.5t-18.5 -57.5v-21q0 -40 18.5 -57.5t61.5 -17.5z" />
    <glyph glyph-name="uni0451" unicode="&#x451;" horiz-adv-x="682" vert-adv-y="993" 
d="M226 687q-38 0 -54 11.5t-16 41.5v13q0 31 15.5 42t54.5 11h1q39 0 54.5 -11t15.5 -42v-13q0 -30 -16 -41.5t-54 -11.5h-1zM455 687q-38 0 -54 11.5t-16 41.5v13q0 31 15.5 42t54.5 11h1q39 0 54.5 -11t15.5 -42v-13q0 -30 -16 -41.5t-54 -11.5h-1zM597 249h-391v-89
q0 -40 18.5 -57t61.5 -17h112q42 0 61 17t19 57v6l118 -11q1 -4 1 -13q0 -78 -39 -115t-121 -37h-191q-81 0 -120 37t-39 115v285q0 77 39 114.5t120 37.5h191q82 0 121 -37.5t39 -114.5v-178zM286 483q-43 0 -61.5 -17.5t-18.5 -57.5v-63h272v63q0 40 -18.5 57.5
t-61.5 17.5h-112z" />
    <glyph glyph-name="uni0454" unicode="&#x454;" horiz-adv-x="673" vert-adv-y="993" 
d="M473 166l119 -11q1 -5 1 -14q0 -77 -39.5 -114t-120.5 -37h-185q-82 0 -121 37t-39 114v286q0 78 39 115t121 37h185q81 0 120.5 -37t39.5 -115q0 -9 -1 -13l-119 -11v6q0 40 -18.5 57t-60.5 17h-107q-43 0 -61 -17.5t-18 -57.5v-74h181v-95h-181v-78q0 -41 18 -58
t61 -17h107q42 0 60.5 17t18.5 56v7z" />
    <glyph glyph-name="uni0456" unicode="&#x456;" horiz-adv-x="510" vert-adv-y="993" 
d="M250 687q-45 0 -62.5 11.5t-17.5 41.5v13q0 31 17 42t63 11h1q46 0 63 -11t17 -42v-13q0 -30 -17.5 -41.5t-62.5 -11.5h-1zM332 96h143v-96h-406v96h143v377h-143v96h263v-473z" />
    <glyph glyph-name="uni0457" unicode="&#x457;" horiz-adv-x="510" vert-adv-y="993" 
d="M135 687q-38 0 -54 11.5t-16 41.5v13q0 31 15.5 42t54.5 11h1q39 0 54.5 -11t15.5 -42v-13q0 -30 -16 -41.5t-54 -11.5h-1zM364 687q-38 0 -54 11.5t-16 41.5v13q0 31 15.5 42t54.5 11h1q39 0 54.5 -11t15.5 -42v-13q0 -30 -16 -41.5t-54 -11.5h-1zM332 96h143v-96h-406
v96h143v377h-143v96h263v-473z" />
    <glyph glyph-name="uni045E" unicode="&#x45e;" horiz-adv-x="616" vert-adv-y="993" 
d="M237 646q-58 0 -84.5 25t-26.5 80v94h96v-68q0 -28 12 -39t42 -11h64q30 0 41.5 11t11.5 39v68h96v-94q0 -55 -26.5 -80t-84.5 -25h-141zM457 569h123l-225 -667q-29 -88 -59 -114.5t-103 -26.5h-134v96h96q40 0 54 10.5t29 52.5l26 80h-37l-191 569h123l149 -462z" />
    <glyph glyph-name="uni0490" unicode="&#x490;" horiz-adv-x="634" vert-adv-y="993" 
d="M463 814h125v-213h-358v-601h-125v709h358v105z" />
    <glyph glyph-name="uni0491" unicode="&#x491;" horiz-adv-x="541" vert-adv-y="993" 
d="M386 669h120v-196h-291v-473h-120v569h291v100z" />
    <glyph glyph-name="Wgrave" unicode="&#x1e80;" horiz-adv-x="1098" vert-adv-y="993" 
d="M664 879l-36 -89l-275 120l36 89zM926 709h127l-187 -709h-172l-145 583l-144 -583h-172l-187 709h126l147 -592l146 592h168l147 -592z" />
    <glyph glyph-name="wgrave" unicode="&#x1e81;" horiz-adv-x="933" vert-adv-y="993" 
d="M582 739l-36 -89l-275 120l36 89zM778 569h119l-155 -569h-160l-115 462l-116 -462h-160l-155 569h119l117 -460l116 460h157l117 -460z" />
    <glyph glyph-name="Wacute" unicode="&#x1e82;" horiz-adv-x="1098" vert-adv-y="993" 
d="M744 910l-275 -120l-36 89l275 120zM926 709h127l-187 -709h-172l-145 583l-144 -583h-172l-187 709h126l147 -592l146 592h168l147 -592z" />
    <glyph glyph-name="wacute" unicode="&#x1e83;" horiz-adv-x="933" vert-adv-y="993" 
d="M662 770l-275 -120l-36 89l275 120zM778 569h119l-155 -569h-160l-115 462l-116 -462h-160l-155 569h119l117 -460l116 460h157l117 -460z" />
    <glyph glyph-name="Wdieresis" unicode="&#x1e84;" horiz-adv-x="1098" vert-adv-y="993" 
d="M434 827q-38 0 -54 11.5t-16 41.5v13q0 31 15.5 42t54.5 11h1q39 0 54.5 -11t15.5 -42v-13q0 -30 -16 -41.5t-54 -11.5h-1zM663 827q-38 0 -54 11.5t-16 41.5v13q0 31 15.5 42t54.5 11h1q39 0 54.5 -11t15.5 -42v-13q0 -30 -16 -41.5t-54 -11.5h-1zM926 709h127
l-187 -709h-172l-145 583l-144 -583h-172l-187 709h126l147 -592l146 592h168l147 -592z" />
    <glyph glyph-name="wdieresis" unicode="&#x1e85;" horiz-adv-x="933" vert-adv-y="993" 
d="M351 687q-38 0 -54 11.5t-16 41.5v13q0 31 15.5 42t54.5 11h1q39 0 54.5 -11t15.5 -42v-13q0 -30 -16 -41.5t-54 -11.5h-1zM580 687q-38 0 -54 11.5t-16 41.5v13q0 31 15.5 42t54.5 11h1q39 0 54.5 -11t15.5 -42v-13q0 -30 -16 -41.5t-54 -11.5h-1zM778 569h119
l-155 -569h-160l-115 462l-116 -462h-160l-155 569h119l117 -460l116 460h157l117 -460z" />
    <glyph glyph-name="Ygrave" unicode="&#x1ef2;" horiz-adv-x="749" vert-adv-y="993" 
d="M490 879l-36 -89l-275 120l36 89zM704 709l-267 -463v-246h-125v246l-266 463h139l191 -328l188 328h140z" />
    <glyph glyph-name="ygrave" unicode="&#x1ef3;" horiz-adv-x="616" vert-adv-y="993" 
d="M423 739l-36 -89l-275 120l36 89zM457 569h123l-225 -667q-29 -88 -59 -114.5t-103 -26.5h-134v96h96q40 0 54 10.5t29 52.5l26 80h-37l-191 569h123l149 -462z" />
    <glyph glyph-name="uni2009" unicode="&#x2009;" horiz-adv-x="136" vert-adv-y="993" 
 />
    <glyph glyph-name="endash" unicode="&#x2013;" horiz-adv-x="600" vert-adv-y="993" 
d="M71 275v108h458v-108h-458z" />
    <glyph glyph-name="emdash" unicode="&#x2014;" horiz-adv-x="911" vert-adv-y="993" 
d="M71 275v108h769v-108h-769z" />
    <glyph glyph-name="quoteleft" unicode="&#x2018;" horiz-adv-x="308" vert-adv-y="993" 
d="M173 527q37 -2 50.5 -18t13.5 -54v-11q0 -43 -17 -58t-65 -15h-2q-48 0 -65 15t-17 58v11v1q0 90 32.5 149.5t108.5 113.5l46 -67q-74 -61 -85 -125z" />
    <glyph glyph-name="quoteright" unicode="&#x2019;" horiz-adv-x="308" vert-adv-y="993" 
d="M155 719q48 0 65 -15t17 -58v-11v-1q0 -90 -32.5 -149.5t-108.5 -113.5l-46 67q74 61 85 125q-37 2 -50.5 18t-13.5 54v11q0 43 17 58t65 15h2z" />
    <glyph glyph-name="quotesinglbase" unicode="&#x201a;" horiz-adv-x="308" vert-adv-y="993" 
d="M155 146q48 0 65 -15t17 -57v-12v-1q0 -90 -32.5 -149.5t-108.5 -112.5l-46 66q73 61 85 125q-37 3 -50.5 18.5t-13.5 53.5v12q0 42 17 57t65 15h2z" />
    <glyph glyph-name="quotedblleft" unicode="&#x201c;" horiz-adv-x="553" vert-adv-y="993" 
d="M258 652q-74 -61 -85 -125q37 -2 50.5 -18t13.5 -54v-11q0 -43 -17 -58t-65 -15h-2q-48 0 -65 15t-17 58v11v1q0 90 32.5 149.5t108.5 113.5zM418 527q36 -2 49.5 -17.5t13.5 -54.5v-11q0 -43 -16.5 -58t-64.5 -15h-3q-48 0 -64.5 15t-16.5 58v11v1q0 90 32 149.5
t108 113.5l47 -67q-74 -61 -85 -125z" />
    <glyph glyph-name="quotedblright" unicode="&#x201d;" horiz-adv-x="553" vert-adv-y="993" 
d="M155 719q48 0 65 -15t17 -58v-11v-1q0 -90 -32.5 -149.5t-108.5 -113.5l-46 67q74 61 85 125q-37 2 -50.5 18t-13.5 54v11q0 43 17 58t65 15h2zM400 719q48 0 64.5 -15t16.5 -58v-11v-1q0 -90 -32 -149.5t-108 -113.5l-47 67q74 61 85 125q-36 2 -49.5 17.5t-13.5 54.5
v11q0 43 16.5 58t64.5 15h3z" />
    <glyph glyph-name="quotedblbase" unicode="&#x201e;" horiz-adv-x="553" vert-adv-y="993" 
d="M155 146q48 0 65 -15t17 -57v-12v-1q0 -90 -32.5 -149.5t-108.5 -112.5l-46 66q73 61 85 125q-37 3 -50.5 18.5t-13.5 53.5v12q0 42 17 57t65 15h2zM400 146q48 0 64.5 -15t16.5 -57v-12v-1q0 -90 -32 -149.5t-108 -112.5l-47 66q73 61 85 126q-36 2 -49.5 17.5
t-13.5 53.5v12q0 42 16.5 57t64.5 15h3z" />
    <glyph glyph-name="dagger" unicode="&#x2020;" horiz-adv-x="559" vert-adv-y="993" 
d="M488 484v-107h-146v-606h-125v606h-146v107h146v225h125v-225h146z" />
    <glyph glyph-name="daggerdbl" unicode="&#x2021;" horiz-adv-x="559" vert-adv-y="993" 
d="M488 377h-146v-152h146v-108h-146v-346h-125v346h-146v108h146v152h-146v107h146v225h125v-225h146v-107z" />
    <glyph glyph-name="bullet" unicode="&#x2022;" horiz-adv-x="397" vert-adv-y="993" 
d="M198 212q-76 0 -101.5 22t-25.5 89v15q0 67 25.5 89t101.5 22h1q76 0 101.5 -22t25.5 -89v-15q0 -67 -25.5 -89t-101.5 -22h-1z" />
    <glyph glyph-name="ellipsis" unicode="&#x2026;" horiz-adv-x="871" vert-adv-y="993" 
d="M153 -10q-48 0 -65 15t-17 57v12q0 42 17 57t65 15h2q48 0 65 -15t17 -57v-12q0 -42 -17 -57t-65 -15h-2zM435 -10q-49 0 -65.5 15t-16.5 57v12q0 42 16.5 57t65.5 15h2q48 0 65 -15t17 -57v-12q0 -42 -17 -57t-65 -15h-2zM716 -10q-48 0 -64.5 15t-16.5 57v12
q0 42 16.5 57t64.5 15h2q48 0 65 -15t17 -57v-12q0 -42 -17 -57t-65 -15h-2z" />
    <glyph glyph-name="perthousand" unicode="&#x2030;" horiz-adv-x="1705" vert-adv-y="993" 
d="M187 252q-116 0 -116 112v243q0 112 116 112h165q115 0 115 -112v-243q0 -112 -115 -112h-165zM430 0l260 709h109l-260 -709h-109zM230 332h79q36 0 49 12t13 45v192q0 33 -13 45.5t-49 12.5h-79q-36 0 -49.5 -12.5t-13.5 -45.5v-192q0 -33 13.5 -45t49.5 -12zM877 -10
q-115 0 -115 112v243q0 111 115 111h165q116 0 116 -111v-243q0 -112 -116 -112h-165zM1353 -10q-115 0 -115 112v243q0 111 115 111h165q116 0 116 -111v-243q0 -112 -116 -112h-165zM920 70h78q37 0 50 12t13 45v192q0 33 -13 45.5t-50 12.5h-78q-36 0 -49 -12.5
t-13 -45.5v-192q0 -32 13 -44.5t49 -12.5zM1396 70h79q36 0 49.5 12t13.5 45v192q0 33 -13.5 45.5t-49.5 12.5h-79q-36 0 -49 -12.5t-13 -45.5v-192q0 -32 13 -44.5t49 -12.5z" />
    <glyph glyph-name="guilsinglleft" unicode="&#x2039;" horiz-adv-x="400" vert-adv-y="993" 
d="M329 476l-120 -193l120 -194h-139l-119 193l119 194h139z" />
    <glyph glyph-name="guilsinglright" unicode="&#x203a;" horiz-adv-x="394" vert-adv-y="993" 
d="M204 476l119 -194l-119 -193h-139l120 194l-120 193h139z" />
    <glyph glyph-name="fraction" unicode="&#x2044;" horiz-adv-x="152" vert-adv-y="993" 
d="M-108 0l260 709h109l-261 -709h-108z" />
    <glyph glyph-name="uni2070" unicode="&#x2070;" horiz-adv-x="538" vert-adv-y="993" 
d="M187 325q-116 0 -116 112v243q0 111 116 111h165q115 0 115 -111v-243q0 -112 -115 -112h-165zM229 405h79q36 0 49.5 12t13.5 45v192q0 33 -13.5 45.5t-49.5 12.5h-79q-36 0 -49 -12.5t-13 -45.5v-192q0 -32 13 -44.5t49 -12.5z" />
    <glyph glyph-name="uni2074" unicode="&#x2074;" horiz-adv-x="537" vert-adv-y="993" 
d="M465 505v-79h-83v-91h-96v91h-259v77l75 278h97l-75 -276h162v164h96v-164h83z" />
    <glyph glyph-name="uni2075" unicode="&#x2075;" horiz-adv-x="537" vert-adv-y="993" 
d="M351 617q115 0 115 -113v-67q0 -112 -115 -112h-165q-115 0 -115 112q0 16 1 18l95 12v-4q0 -34 13.5 -46t49.5 -12h76q37 0 50.5 12t13.5 45v23q0 33 -13.5 45t-50.5 12h-73q-31 0 -45 -8.5t-17 -28.5l-91 13l22 263h343v-79h-257l-8 -105q16 20 66 20h105z" />
    <glyph glyph-name="uni2076" unicode="&#x2076;" horiz-adv-x="532" vert-adv-y="993" 
d="M461 661l-95 -11v4q0 33 -13.5 45.5t-49.5 12.5h-73q-36 0 -49.5 -12.5t-13.5 -45.5v-72q10 20 25.5 28.5t45.5 8.5h108q115 0 115 -113v-69q0 -112 -115 -112h-159q-116 0 -116 112v243q0 111 116 111h159q115 0 115 -111v-19zM229 545q-35 0 -48.5 -12t-13.5 -46v-25
q0 -33 13.5 -45t48.5 -12h73q36 0 49.5 12t13.5 45v25q0 33 -13.5 45.5t-48.5 12.5h-74z" />
    <glyph glyph-name="uni2077" unicode="&#x2077;" horiz-adv-x="482" vert-adv-y="993" 
d="M71 781h384v-76l-184 -370h-106l182 367h-276v79z" />
    <glyph glyph-name="uni2078" unicode="&#x2078;" horiz-adv-x="538" vert-adv-y="993" 
d="M407 563q32 -13 45.5 -34.5t13.5 -58.5v-33q0 -112 -115 -112h-164q-116 0 -116 112v33q0 37 13.5 58.5t46.5 34.5q-29 14 -40 33t-11 52v31q0 112 115 112h147q115 0 115 -112v-31q0 -33 -11 -52t-39 -33zM177 657v-6q0 -30 12.5 -40t50.5 -10h58q38 0 50.5 10t12.5 40
v6q0 32 -13 43.5t-50 11.5h-58q-37 0 -50 -11.5t-13 -43.5zM370 461v4q0 32 -14 44t-51 12h-73q-37 0 -51 -12t-14 -44v-4q0 -32 14 -44t51 -12h73q37 0 51 12t14 44z" />
    <glyph glyph-name="uni2079" unicode="&#x2079;" horiz-adv-x="532" vert-adv-y="993" 
d="M346 791q115 0 115 -111v-243q0 -112 -115 -112h-159q-116 0 -116 112q0 15 1 18l95 12v-4q0 -34 13 -46t50 -12h73q35 0 48.5 12t13.5 46v70q-19 -36 -71 -36h-107q-116 0 -116 113v70q0 111 116 111h159zM304 571q35 0 48 12.5t13 45.5v25q0 33 -13 45.5t-48 12.5h-74
q-36 0 -49.5 -12.5t-13.5 -45.5v-24q0 -34 14 -46.5t49 -12.5h74z" />
    <glyph glyph-name="Euro" unicode="&#x20ac;" horiz-adv-x="818" vert-adv-y="993" 
d="M735 530l-125 -15v7q0 50 -21.5 69.5t-76.5 19.5h-120q-55 0 -77 -20t-22 -71v-38h217v-82h-217v-88h217v-83h-217v-41q0 -51 22 -71t77 -20h120q55 0 76.5 20t21.5 70v7l125 -15v-11q0 -91 -45.5 -134.5t-142.5 -43.5h-190q-97 0 -143 43.5t-46 135.5v60h-122v83h122v88
h-122v82h122v57q0 92 46 136t143 44h190q97 0 142.5 -43.5t45.5 -134.5v-11z" />
    <glyph glyph-name="uni2116" unicode="&#x2116;" horiz-adv-x="1343" vert-adv-y="993" 
d="M1088 719q81 0 120 -37t39 -115v-117q0 -77 -39 -114t-120 -37h-158q-81 0 -120 37t-39 114v117q0 78 39 115t120 37h158zM545 205v504h125v-709h-124l-318 506v-506h-125v709h124zM1128 469v79q0 40 -18.5 57.5t-61.5 17.5h-78q-43 0 -61.5 -17.5t-18.5 -57.5v-79
q0 -40 18.5 -57t61.5 -17h78q43 0 61.5 17t18.5 57zM788 101v107h442v-107h-442z" />
    <glyph glyph-name="trademark" unicode="&#x2122;" horiz-adv-x="888" vert-adv-y="993" 
d="M71 636v73h309v-73h-112v-253h-85v253h-112zM722 709h95v-326h-85v209l-95 -142h-23l-95 142v-209h-85v326h95l97 -146z" />
    <glyph glyph-name="oneeighth" unicode="&#x215b;" horiz-adv-x="1189" vert-adv-y="993" 
d="M651 709h109l-261 -709h-108zM96 295h121v262l-102 -68l-44 74l149 98h93v-366h115v-80h-332v80zM1058 228q32 -13 45.5 -34.5t13.5 -58.5v-33q0 -112 -115 -112h-164q-116 0 -116 112v33q0 37 13.5 58.5t46.5 34.5q-29 14 -40 33t-11 52v31q0 112 115 112h147
q115 0 115 -112v-31q0 -33 -11 -52t-39 -33zM828 322v-6q0 -30 12.5 -40t50.5 -10h58q38 0 50.5 10t12.5 40v6q0 32 -13 43.5t-50 11.5h-58q-37 0 -50 -11.5t-13 -43.5zM1021 126v4q0 32 -14 44t-51 12h-73q-37 0 -51 -12t-14 -44v-4q0 -32 14 -44t51 -12h73q37 0 51 12
t14 44z" />
    <glyph glyph-name="threeeighths" unicode="&#x215c;" horiz-adv-x="1228" vert-adv-y="993" 
d="M690 709h109l-261 -709h-108zM467 317q0 -112 -115 -112h-165q-116 0 -116 112q0 15 1 18l95 12v-5q0 -33 13.5 -45t49.5 -12h78q36 0 49.5 12.5t13.5 45.5v2q0 32 -14 44t-51 12h-81v80h73q38 0 51 10t13 40v3q0 33 -13.5 45.5t-50.5 12.5h-65q-36 0 -49.5 -12
t-13.5 -45v-5l-96 11v19q0 111 115 111h154q115 0 115 -112v-31q0 -33 -10.5 -52t-38.5 -33q32 -13 45 -34.5t13 -58.5v-33zM1097 228q32 -13 45.5 -34.5t13.5 -58.5v-33q0 -112 -115 -112h-164q-116 0 -116 112v33q0 37 13.5 58.5t46.5 34.5q-29 14 -40 33t-11 52v31
q0 112 115 112h147q115 0 115 -112v-31q0 -33 -11 -52t-39 -33zM867 322v-6q0 -30 12.5 -40t50.5 -10h58q38 0 50.5 10t12.5 40v6q0 32 -13 43.5t-50 11.5h-58q-37 0 -50 -11.5t-13 -43.5zM1060 126v4q0 32 -14 44t-51 12h-73q-37 0 -51 -12t-14 -44v-4q0 -32 14 -44t51 -12
h73q37 0 51 12t14 44z" />
    <glyph glyph-name="fiveeighths" unicode="&#x215d;" horiz-adv-x="1227" vert-adv-y="993" 
d="M689 709h109l-261 -709h-108zM466 317q0 -112 -115 -112h-165q-115 0 -115 112q0 16 1 18l95 12v-4q0 -34 13.5 -46t49.5 -12h76q37 0 50.5 12t13.5 45v23q0 33 -13.5 45t-50.5 12h-73q-31 0 -45 -8.5t-17 -28.5l-91 13l22 263h343v-79h-257l-8 -105q16 20 66 20h105
q115 0 115 -113v-67zM1096 228q32 -13 45.5 -34.5t13.5 -58.5v-33q0 -112 -115 -112h-164q-116 0 -116 112v33q0 37 13.5 58.5t46.5 34.5q-29 14 -40 33t-11 52v31q0 112 115 112h147q115 0 115 -112v-31q0 -33 -11 -52t-39 -33zM866 322v-6q0 -30 12.5 -40t50.5 -10h58
q38 0 50.5 10t12.5 40v6q0 32 -13 43.5t-50 11.5h-58q-37 0 -50 -11.5t-13 -43.5zM1059 126v4q0 32 -14 44t-51 12h-73q-37 0 -51 -12t-14 -44v-4q0 -32 14 -44t51 -12h73q37 0 51 12t14 44z" />
    <glyph glyph-name="seveneighths" unicode="&#x215e;" horiz-adv-x="1171" vert-adv-y="993" 
d="M634 709h109l-261 -709h-108zM455 661v-76l-184 -370h-106l182 367h-276v79h384zM1041 228q32 -13 45.5 -34.5t13.5 -58.5v-33q0 -112 -115 -112h-164q-116 0 -116 112v33q0 37 13.5 58.5t46.5 34.5q-29 14 -40 33t-11 52v31q0 112 115 112h147q115 0 115 -112v-31
q0 -33 -11 -52t-39 -33zM811 322v-6q0 -30 12.5 -40t50.5 -10h58q38 0 50.5 10t12.5 40v6q0 32 -13 43.5t-50 11.5h-58q-37 0 -50 -11.5t-13 -43.5zM1004 126v4q0 32 -14 44t-51 12h-73q-37 0 -51 -12t-14 -44v-4q0 -32 14 -44t51 -12h73q37 0 51 12t14 44z" />
    <glyph glyph-name="arrowleft" unicode="&#x2190;" horiz-adv-x="861" vert-adv-y="993" 
d="M790 445v-125h-556l172 -275h-127l-208 335v6l208 335h127l-172 -276h556z" />
    <glyph glyph-name="arrowup" unicode="&#x2191;" horiz-adv-x="818" vert-adv-y="993" 
d="M747 510v-126l-276 172v-556h-125v555l-275 -171v126l335 209h6z" />
    <glyph glyph-name="arrowright" unicode="&#x2192;" horiz-adv-x="861" vert-adv-y="993" 
d="M582 721l208 -335v-6l-208 -335h-127l172 275h-556v125h556l-172 276h127z" />
    <glyph glyph-name="arrowdown" unicode="&#x2193;" horiz-adv-x="818" vert-adv-y="993" 
d="M471 153l276 172v-127l-335 -208h-6l-335 208v127l275 -171v555h125v-556z" />
    <glyph glyph-name="uni2196" unicode="&#x2196;" horiz-adv-x="871" vert-adv-y="993" 
d="M800 79l-88 -89l-478 478l-73 -317l-90 90l90 384l4 4l384 90l90 -90l-316 -73z" />
    <glyph glyph-name="uni2197" unicode="&#x2197;" horiz-adv-x="871" vert-adv-y="993" 
d="M800 241l-90 -90l-72 317l-478 -478l-89 89l478 477l-316 73l89 90l384 -90l5 -4z" />
    <glyph glyph-name="uni2198" unicode="&#x2198;" horiz-adv-x="871" vert-adv-y="993" 
d="M710 557l90 -90l-89 -383l-5 -5l-384 -89l-89 89l316 74l-478 477l89 89l478 -478z" />
    <glyph glyph-name="uni2199" unicode="&#x2199;" horiz-adv-x="871" vert-adv-y="993" 
d="M800 630l-477 -477l316 -74l-90 -89l-384 89l-4 5l-90 383l90 90l73 -316l478 478z" />
    <glyph glyph-name="partialdiff" unicode="&#x2202;" horiz-adv-x="689" vert-adv-y="993" 
d="M444 731q124 -21 161.5 -66.5t18.5 -152.5l-65 -371q-14 -77 -59.5 -114t-127.5 -37h-193q-82 0 -114.5 37t-18.5 114l40 229q26 152 187 152h124q78 0 103 -38l12 69q7 38 -8 55t-61 24l-269 46l16 96zM350 86q43 0 64.5 17.5t28.5 57.5l24 137l9 53q7 40 -8.5 57.5
t-58.5 17.5h-114q-43 0 -64.5 -17.5t-28.5 -57.5l-33 -190q-7 -40 8 -57.5t58 -17.5h115z" />
    <glyph glyph-name="emptyset" unicode="&#x2205;" vert-adv-y="993" 
d="M521 568q84 -28 84 -141v-286q0 -77 -39 -114t-120 -37h-198h-15l-26 -51h-65l31 61q-85 29 -85 141v286q0 78 39 115t121 37h198h15l26 51h65zM208 161q0 -39 17 -56l189 378h-8h-119q-43 0 -61 -17.5t-18 -57.5v-247zM486 161v247q0 39 -17 56l-189 -378h7h119
q43 0 61.5 17.5t18.5 57.5z" />
    <glyph glyph-name="product" unicode="&#x220f;" horiz-adv-x="751" vert-adv-y="993" 
d="M705 872v-108h-112v-764h-125v764h-185v-764h-125v764h-112v108h659z" />
    <glyph glyph-name="summation" unicode="&#x2211;" horiz-adv-x="703" vert-adv-y="993" 
d="M604 885v-107h-371l351 -449v-2l-351 -448h371v-108h-533v103l356 454l-356 454v103h533z" />
    <glyph glyph-name="minus" unicode="&#x2212;" horiz-adv-x="642" vert-adv-y="993" 
d="M71 300v108h500v-108h-500z" />
    <glyph glyph-name="radical" unicode="&#x221a;" horiz-adv-x="904" vert-adv-y="993" 
d="M736 764h123l-334 -993h-162l-160 473h-157v96h249l150 -461z" />
    <glyph glyph-name="infinity" unicode="&#x221e;" horiz-adv-x="1022" vert-adv-y="993" 
d="M795 535q80 0 117.5 -36.5t37.5 -115.5v-71q0 -79 -37.5 -115.5t-117.5 -36.5h-150q-45 0 -76.5 14.5t-57.5 49.5q-49 -64 -134 -64h-150q-80 0 -118 36.5t-38 115.5v71q0 79 38 115.5t118 36.5h150q85 0 134 -64q48 64 134 64h150zM338 256q41 0 61.5 19.5t44.5 72.5
q-24 52 -44.5 71.5t-61.5 19.5h-72q-41 0 -58.5 -17t-17.5 -58v-33q0 -41 17.5 -58t58.5 -17h72zM831 331v33q0 41 -17 58t-58 17h-72q-41 0 -61.5 -19.5t-44.5 -72.5q27 -57 47 -74t59 -17h72q41 0 58 17t17 58z" />
    <glyph glyph-name="integral" unicode="&#x222b;" horiz-adv-x="721" vert-adv-y="993" 
d="M557 883h93v-95h-65q-43 0 -64.5 -17.5t-29.5 -57.5l-141 -800q-14 -78 -59 -115t-127 -37h-93v96h65q43 0 64.5 17.5t29.5 57.5l141 800q13 78 58 114.5t128 36.5z" />
    <glyph glyph-name="approxequal" unicode="&#x2248;" horiz-adv-x="600" vert-adv-y="993" 
d="M50 375l83 28q68 23 129 -9l74 -38q63 -32 131 -9l83 28v108l-83 -28q-67 -22 -129 9l-74 38q-64 33 -131 9l-83 -28v-108zM50 151l83 28q66 23 129 -8l74 -38q63 -32 131 -9l83 28v107l-83 -28q-67 -22 -129 9l-74 38q-64 33 -131 9l-83 -28v-108z" />
    <glyph glyph-name="notequal" unicode="&#x2260;" horiz-adv-x="642" vert-adv-y="993" 
d="M571 375h-162l-57 -116h219v-107h-272l-43 -86h-119l43 86h-109v107h162l57 116h-219v108h272l43 86h119l-43 -86h109v-108z" />
    <glyph glyph-name="lessequal" unicode="&#x2264;" horiz-adv-x="612" vert-adv-y="993" 
d="M541 619v-89l-364 -115l364 -115v-89l-470 150v108zM71 71v84h470v-84h-470z" />
    <glyph glyph-name="greaterequal" unicode="&#x2265;" horiz-adv-x="612" vert-adv-y="993" 
d="M71 619l470 -150v-108l-470 -150v89l364 115l-364 115v89zM71 71v84h470v-84h-470z" />
    <glyph glyph-name="lozenge" unicode="&#x25ca;" horiz-adv-x="526" vert-adv-y="993" 
d="M329 709l126 -354v-1l-126 -354h-132l-126 354v1l126 354h132zM343 354v1l-80 227l-80 -227v-1l80 -228z" />
    <glyph glyph-name="I.ss03" horiz-adv-x="522" vert-adv-y="993" 
d="M469 601h-146v-494h146v-107h-416v107h145v494h-145v108h416v-108z" />
    <glyph glyph-name="Iacute.ss03" horiz-adv-x="522" vert-adv-y="993" 
d="M456 910l-275 -120l-36 89l275 120zM469 601h-146v-494h146v-107h-416v107h145v494h-145v108h416v-108z" />
    <glyph glyph-name="Icircumflex.ss03" horiz-adv-x="522" vert-adv-y="993" 
d="M263 887l-191 -88l-36 89l227 100l227 -100l-35 -89zM53 601v108h416v-108h-146v-494h146v-107h-416v107h145v494h-145z" />
    <glyph glyph-name="Idieresis.ss03" horiz-adv-x="522" vert-adv-y="993" 
d="M145 827q-38 0 -54 11.5t-16 41.5v13q0 31 15.5 42t54.5 11h1q39 0 54.5 -11t15.5 -42v-13q0 -30 -16 -41.5t-54 -11.5h-1zM374 827q-38 0 -54 11.5t-16 41.5v13q0 31 15.5 42t54.5 11h1q39 0 54.5 -11t15.5 -42v-13q0 -30 -16 -41.5t-54 -11.5h-1zM469 601h-146v-494
h146v-107h-416v107h145v494h-145v108h416v-108z" />
    <glyph glyph-name="Igrave.ss03" horiz-adv-x="522" vert-adv-y="993" 
d="M376 879l-36 -89l-275 120l36 89zM469 601h-146v-494h146v-107h-416v107h145v494h-145v108h416v-108z" />
    <glyph glyph-name="Imacron.ss03" horiz-adv-x="522" vert-adv-y="993" 
d="M435 938v-95h-349v95h349zM469 601h-146v-494h146v-107h-416v107h145v494h-145v108h416v-108z" />
    <glyph glyph-name="Iogonek.ss03" horiz-adv-x="522" vert-adv-y="993" 
d="M469 601h-146v-494h146v-107q-86 -87 -103.5 -108t-17.5 -36q0 -24 36 -24h85v-79h-130q-55 0 -80 16.5t-25 52.5q0 31 22 60.5t107 117.5h-310v107h145v494h-145v108h416v-108z" />
    <glyph glyph-name="a.ss01" horiz-adv-x="704" vert-adv-y="993" 
d="M601 461v-354l7 -107h-102l-9 50q-16 -31 -44.5 -45.5t-79.5 -14.5h-125q-82 0 -121 37t-39 114v286q0 78 39 115t121 37h125q51 0 79.5 -14.5t44.5 -45.5l9 50h102zM402 86q43 0 61.5 17.5t18.5 57.5v247q0 40 -18.5 57.5t-61.5 17.5h-115q-43 0 -61 -17.5t-18 -57.5
v-247q0 -41 18 -58t61 -17h115z" />
    <glyph glyph-name="aacute.ss01" horiz-adv-x="704" vert-adv-y="993" 
d="M544 770l-275 -120l-36 89l275 120zM601 461v-354l7 -107h-102l-9 50q-16 -31 -44.5 -45.5t-79.5 -14.5h-125q-82 0 -121 37t-39 114v286q0 78 39 115t121 37h125q51 0 79.5 -14.5t44.5 -45.5l9 50h102zM402 86q43 0 61.5 17.5t18.5 57.5v247q0 40 -18.5 57.5t-61.5 17.5
h-115q-43 0 -61 -17.5t-18 -57.5v-247q0 -41 18 -58t61 -17h115z" />
    <glyph glyph-name="abreve.ss01" horiz-adv-x="704" vert-adv-y="993" 
d="M278 646q-58 0 -84.5 25t-26.5 80v94h96v-68q0 -28 12 -39t42 -11h64q30 0 41.5 11t11.5 39v68h96v-94q0 -55 -26.5 -80t-84.5 -25h-141zM601 461v-354l7 -107h-102l-9 50q-16 -31 -44.5 -45.5t-79.5 -14.5h-125q-82 0 -121 37t-39 114v286q0 78 39 115t121 37h125
q51 0 79.5 -14.5t44.5 -45.5l9 50h102zM402 86q43 0 61.5 17.5t18.5 57.5v247q0 40 -18.5 57.5t-61.5 17.5h-115q-43 0 -61 -17.5t-18 -57.5v-247q0 -41 18 -58t61 -17h115z" />
    <glyph glyph-name="acircumflex.ss01" horiz-adv-x="704" vert-adv-y="993" 
d="M351 747l-191 -88l-36 89l227 100l227 -100l-35 -89zM601 461v-354l7 -107h-102l-9 50q-16 -31 -44.5 -45.5t-79.5 -14.5h-125q-82 0 -121 37t-39 114v286q0 78 39 115t121 37h125q51 0 79.5 -14.5t44.5 -45.5l9 50h102zM402 86q43 0 61.5 17.5t18.5 57.5v247
q0 40 -18.5 57.5t-61.5 17.5h-115q-43 0 -61 -17.5t-18 -57.5v-247q0 -41 18 -58t61 -17h115z" />
    <glyph glyph-name="adieresis.ss01" horiz-adv-x="704" vert-adv-y="993" 
d="M233 687q-38 0 -54 11.5t-16 41.5v13q0 31 15.5 42t54.5 11h1q39 0 54.5 -11t15.5 -42v-13q0 -30 -16 -41.5t-54 -11.5h-1zM462 687q-38 0 -54 11.5t-16 41.5v13q0 31 15.5 42t54.5 11h1q39 0 54.5 -11t15.5 -42v-13q0 -30 -16 -41.5t-54 -11.5h-1zM601 461v-354l7 -107
h-102l-9 50q-16 -31 -44.5 -45.5t-79.5 -14.5h-125q-82 0 -121 37t-39 114v286q0 78 39 115t121 37h125q51 0 79.5 -14.5t44.5 -45.5l9 50h102zM402 86q43 0 61.5 17.5t18.5 57.5v247q0 40 -18.5 57.5t-61.5 17.5h-115q-43 0 -61 -17.5t-18 -57.5v-247q0 -41 18 -58t61 -17
h115z" />
    <glyph glyph-name="agrave.ss01" horiz-adv-x="704" vert-adv-y="993" 
d="M464 739l-36 -89l-275 120l36 89zM601 461v-354l7 -107h-102l-9 50q-16 -31 -44.5 -45.5t-79.5 -14.5h-125q-82 0 -121 37t-39 114v286q0 78 39 115t121 37h125q51 0 79.5 -14.5t44.5 -45.5l9 50h102zM402 86q43 0 61.5 17.5t18.5 57.5v247q0 40 -18.5 57.5t-61.5 17.5
h-115q-43 0 -61 -17.5t-18 -57.5v-247q0 -41 18 -58t61 -17h115z" />
    <glyph glyph-name="amacron.ss01" horiz-adv-x="704" vert-adv-y="993" 
d="M523 798v-95h-349v95h349zM601 461v-354l7 -107h-102l-9 50q-16 -31 -44.5 -45.5t-79.5 -14.5h-125q-82 0 -121 37t-39 114v286q0 78 39 115t121 37h125q51 0 79.5 -14.5t44.5 -45.5l9 50h102zM402 86q43 0 61.5 17.5t18.5 57.5v247q0 40 -18.5 57.5t-61.5 17.5h-115
q-43 0 -61 -17.5t-18 -57.5v-247q0 -41 18 -58t61 -17h115z" />
    <glyph glyph-name="aogonek.ss01" horiz-adv-x="704" vert-adv-y="993" 
d="M488 -138q0 -24 36 -24h85v-79h-130q-55 0 -80 16.5t-25 52.5q0 31 22 61t109 119l-8 42q-16 -31 -44.5 -45.5t-79.5 -14.5h-125q-82 0 -121 37t-39 114v286q0 78 39 115t121 37h125q51 0 79.5 -14.5t44.5 -45.5l9 50h102l-7 -108v-354l7 -101h1l-1 -1v-5h-5
q-81 -83 -98 -103t-17 -35zM402 86q43 0 61.5 17.5t18.5 57.5v247q0 40 -18.5 57.5t-61.5 17.5h-115q-43 0 -61 -17.5t-18 -57.5v-247q0 -41 18 -58t61 -17h115z" />
    <glyph glyph-name="aring.ss01" horiz-adv-x="704" vert-adv-y="993" 
d="M341 628q-68 0 -100 28.5t-32 90.5v13q0 62 32 90.5t100 28.5h15q68 0 100 -28.5t32 -90.5v-13q0 -62 -32 -90.5t-100 -28.5h-15zM285 757v-8q0 -32 13.5 -44t47.5 -12h6q34 0 47 12.5t13 43.5v8q0 32 -13 44.5t-47 12.5h-6q-35 0 -48 -12.5t-13 -44.5zM601 461v-354
l7 -107h-102l-9 50q-16 -31 -44.5 -45.5t-79.5 -14.5h-125q-82 0 -121 37t-39 114v286q0 78 39 115t121 37h125q51 0 79.5 -14.5t44.5 -45.5l9 50h102zM402 86q43 0 61.5 17.5t18.5 57.5v247q0 40 -18.5 57.5t-61.5 17.5h-115q-43 0 -61 -17.5t-18 -57.5v-247q0 -41 18 -58
t61 -17h115z" />
    <glyph glyph-name="atilde.ss01" horiz-adv-x="704" vert-adv-y="993" 
d="M441 678q-29 0 -93 23t-91 23q-31 0 -93 -21v96q60 20 93 20q29 0 93 -23t91 -23q24 0 93 21v-96q-60 -20 -93 -20zM601 461v-354l7 -107h-102l-9 50q-16 -31 -44.5 -45.5t-79.5 -14.5h-125q-82 0 -121 37t-39 114v286q0 78 39 115t121 37h125q51 0 79.5 -14.5
t44.5 -45.5l9 50h102zM402 86q43 0 61.5 17.5t18.5 57.5v247q0 40 -18.5 57.5t-61.5 17.5h-115q-43 0 -61 -17.5t-18 -57.5v-247q0 -41 18 -58t61 -17h115z" />
    <glyph glyph-name="ae.ss01" horiz-adv-x="1078" vert-adv-y="993" 
d="M992 249h-391v-89q0 -40 18.5 -57t61.5 -17h112q42 0 60.5 17t18.5 57v6l119 -11q1 -4 1 -13q0 -78 -39 -115t-121 -37h-191q-44 0 -73 10h-61l-9 50q-16 -31 -45 -45.5t-80 -14.5h-125q-81 0 -120.5 37t-39.5 115v285q0 152 160 152h125q94 0 124 -61l10 51h61
q30 10 73 10h191q82 0 121 -37.5t39 -114.5v-178zM402 86q43 0 61.5 17t18.5 57v248q0 40 -18.5 57.5t-61.5 17.5h-115q-42 0 -60.5 -17.5t-18.5 -57.5v-248q0 -40 18.5 -57t60.5 -17h115zM681 483q-43 0 -61.5 -17.5t-18.5 -57.5v-63h271v63q0 41 -18 58t-61 17h-112z" />
    <glyph glyph-name="a.ss02" horiz-adv-x="691" vert-adv-y="993" 
d="M600 0h-102l-9 50q-31 -60 -124 -60h-119q-82 0 -121 37t-39 114v55q0 76 38 111t122 35h188q29 0 40 -7v138h-351v96h470v-462zM394 86q43 0 61.5 16.5t18.5 55.5v84q-8 4 -29 4h-160q-43 0 -61.5 -16.5t-18.5 -55.5v-16q0 -39 18.5 -55.5t61.5 -16.5h109z" />
    <glyph glyph-name="aacute.ss02" horiz-adv-x="691" vert-adv-y="993" 
d="M553 770l-275 -120l-36 89l275 120zM600 0h-102l-9 50q-31 -60 -124 -60h-119q-82 0 -121 37t-39 114v55q0 76 38 111t122 35h188q29 0 40 -7v138h-351v96h470v-462zM394 86q43 0 61.5 16.5t18.5 55.5v84q-8 4 -29 4h-160q-43 0 -61.5 -16.5t-18.5 -55.5v-16
q0 -39 18.5 -55.5t61.5 -16.5h109z" />
    <glyph glyph-name="abreve.ss02" horiz-adv-x="691" vert-adv-y="993" 
d="M287 646q-58 0 -84.5 25t-26.5 80v94h96v-68q0 -28 12 -39t42 -11h64q30 0 41.5 11t11.5 39v68h96v-94q0 -55 -26.5 -80t-84.5 -25h-141zM600 0h-102l-9 50q-31 -60 -124 -60h-119q-82 0 -121 37t-39 114v55q0 76 38 111t122 35h188q29 0 40 -7v138h-351v96h470v-462z
M394 86q43 0 61.5 16.5t18.5 55.5v84q-8 4 -29 4h-160q-43 0 -61.5 -16.5t-18.5 -55.5v-16q0 -39 18.5 -55.5t61.5 -16.5h109z" />
    <glyph glyph-name="acircumflex.ss02" horiz-adv-x="691" vert-adv-y="993" 
d="M360 747l-191 -88l-36 89l227 100l227 -100l-35 -89zM600 0h-102l-9 50q-31 -60 -124 -60h-119q-82 0 -121 37t-39 114v55q0 76 38 111t122 35h188q29 0 40 -7v138h-351v96h470v-462zM394 86q43 0 61.5 16.5t18.5 55.5v84q-8 4 -29 4h-160q-43 0 -61.5 -16.5t-18.5 -55.5
v-16q0 -39 18.5 -55.5t61.5 -16.5h109z" />
    <glyph glyph-name="adieresis.ss02" horiz-adv-x="691" vert-adv-y="993" 
d="M243 687q-38 0 -54 11.5t-16 41.5v13q0 31 15.5 42t54.5 11h1q39 0 54.5 -11t15.5 -42v-13q0 -30 -16 -41.5t-54 -11.5h-1zM472 687q-38 0 -54 11.5t-16 41.5v13q0 31 15.5 42t54.5 11h1q39 0 54.5 -11t15.5 -42v-13q0 -30 -16 -41.5t-54 -11.5h-1zM600 0h-102l-9 50
q-31 -60 -124 -60h-119q-82 0 -121 37t-39 114v55q0 76 38 111t122 35h188q29 0 40 -7v138h-351v96h470v-462zM394 86q43 0 61.5 16.5t18.5 55.5v84q-8 4 -29 4h-160q-43 0 -61.5 -16.5t-18.5 -55.5v-16q0 -39 18.5 -55.5t61.5 -16.5h109z" />
    <glyph glyph-name="agrave.ss02" horiz-adv-x="691" vert-adv-y="993" 
d="M473 739l-36 -89l-275 120l36 89zM600 0h-102l-9 50q-31 -60 -124 -60h-119q-82 0 -121 37t-39 114v55q0 76 38 111t122 35h188q29 0 40 -7v138h-351v96h470v-462zM394 86q43 0 61.5 16.5t18.5 55.5v84q-8 4 -29 4h-160q-43 0 -61.5 -16.5t-18.5 -55.5v-16
q0 -39 18.5 -55.5t61.5 -16.5h109z" />
    <glyph glyph-name="amacron.ss02" horiz-adv-x="691" vert-adv-y="993" 
d="M532 798v-95h-349v95h349zM600 0h-102l-9 50q-31 -60 -124 -60h-119q-82 0 -121 37t-39 114v55q0 76 38 111t122 35h188q29 0 40 -7v138h-351v96h470v-462zM394 86q43 0 61.5 16.5t18.5 55.5v84q-8 4 -29 4h-160q-43 0 -61.5 -16.5t-18.5 -55.5v-16q0 -39 18.5 -55.5
t61.5 -16.5h109z" />
    <glyph glyph-name="aogonek.ss02" horiz-adv-x="691" vert-adv-y="993" 
d="M479 -144q0 -24 36 -24h85v-79h-130q-55 0 -80 16.5t-25 52.5q0 30 22 60t110 121l-8 47q-31 -60 -124 -60h-119q-82 0 -121 37t-39 114v55q0 76 38 111t122 35h188q29 0 40 -7v138h-351v96h470v-462l7 -107q-86 -87 -103.5 -108t-17.5 -36zM394 86q43 0 61.5 16.5
t18.5 55.5v84q-8 4 -29 4h-160q-43 0 -61.5 -16.5t-18.5 -55.5v-16q0 -39 18.5 -55.5t61.5 -16.5h109z" />
    <glyph glyph-name="aring.ss02" horiz-adv-x="691" vert-adv-y="993" 
d="M350 628q-68 0 -100 28.5t-32 90.5v13q0 62 32 90.5t100 28.5h15q68 0 100 -28.5t32 -90.5v-13q0 -62 -32 -90.5t-100 -28.5h-15zM294 757v-8q0 -32 13.5 -44t47.5 -12h6q34 0 47 12.5t13 43.5v8q0 32 -13 44.5t-47 12.5h-6q-35 0 -48 -12.5t-13 -44.5zM600 0h-102l-9 50
q-31 -60 -124 -60h-119q-82 0 -121 37t-39 114v55q0 76 38 111t122 35h188q29 0 40 -7v138h-351v96h470v-462zM394 86q43 0 61.5 16.5t18.5 55.5v84q-8 4 -29 4h-160q-43 0 -61.5 -16.5t-18.5 -55.5v-16q0 -39 18.5 -55.5t61.5 -16.5h109z" />
    <glyph glyph-name="atilde.ss02" horiz-adv-x="691" vert-adv-y="993" 
d="M450 678q-29 0 -93 23t-91 23q-31 0 -93 -21v96q60 20 93 20q29 0 93 -23t91 -23q24 0 93 21v-96q-60 -20 -93 -20zM600 0h-102l-9 50q-31 -60 -124 -60h-119q-82 0 -121 37t-39 114v55q0 76 38 111t122 35h188q29 0 40 -7v138h-351v96h470v-462zM394 86q43 0 61.5 16.5
t18.5 55.5v84q-8 4 -29 4h-160q-43 0 -61.5 -16.5t-18.5 -55.5v-16q0 -39 18.5 -55.5t61.5 -16.5h109z" />
    <glyph glyph-name="ae.ss02" horiz-adv-x="1069" vert-adv-y="993" 
d="M984 249h-391v-89q0 -40 18.5 -57t61.5 -17h112q42 0 61 17t19 57v6l118 -11q1 -4 1 -13q0 -78 -39 -115t-121 -37h-191q-44 0 -73 10h-61l-9 52q-31 -62 -125 -62h-119q-82 0 -121 37t-39 115v55q0 75 38.5 110t121.5 35h188q29 0 40 -7v138h-351v96h437q30 10 73 10
h191q82 0 121 -37.5t39 -114.5v-178zM673 483q-43 0 -61.5 -17.5t-18.5 -57.5v-63h272v63q0 40 -18.5 57.5t-61.5 17.5h-112zM394 86q44 0 62 16.5t18 55.5v84q-8 4 -29 4h-160q-43 0 -61 -16.5t-18 -55.5v-16q0 -39 18 -55.5t61 -16.5h109z" />
    <glyph glyph-name="uni0406.ss03" horiz-adv-x="522" vert-adv-y="993" 
d="M469 601h-146v-494h146v-107h-416v107h145v494h-145v108h416v-108z" />
    <glyph glyph-name="uni0407.ss03" horiz-adv-x="522" vert-adv-y="993" 
d="M145 827q-38 0 -54 11.5t-16 41.5v13q0 31 15.5 42t54.5 11h1q39 0 54.5 -11t15.5 -42v-13q0 -30 -16 -41.5t-54 -11.5h-1zM374 827q-38 0 -54 11.5t-16 41.5v13q0 31 15.5 42t54.5 11h1q39 0 54.5 -11t15.5 -42v-13q0 -30 -16 -41.5t-54 -11.5h-1zM469 601h-146v-494
h146v-107h-416v107h145v494h-145v108h416v-108z" />
    <glyph glyph-name="uni0430.ss01" horiz-adv-x="704" vert-adv-y="993" 
d="M601 461v-354l7 -107h-102l-9 50q-16 -31 -44.5 -45.5t-79.5 -14.5h-125q-82 0 -121 37t-39 114v286q0 78 39 115t121 37h125q51 0 79.5 -14.5t44.5 -45.5l9 50h102zM402 86q43 0 61.5 17.5t18.5 57.5v247q0 40 -18.5 57.5t-61.5 17.5h-115q-43 0 -61 -17.5t-18 -57.5
v-247q0 -41 18 -58t61 -17h115z" />
    <glyph glyph-name="uni0430.ss02" horiz-adv-x="691" vert-adv-y="993" 
d="M600 0h-102l-9 50q-31 -60 -124 -60h-119q-82 0 -121 37t-39 114v55q0 76 38 111t122 35h188q29 0 40 -7v138h-351v96h470v-462zM394 86q43 0 61.5 16.5t18.5 55.5v84q-8 4 -29 4h-160q-43 0 -61.5 -16.5t-18.5 -55.5v-16q0 -39 18.5 -55.5t61.5 -16.5h109z" />
    <glyph glyph-name="zero.subs" horiz-adv-x="538" vert-adv-y="993" 
d="M187 -145q-116 0 -116 112v243q0 111 116 111h165q115 0 115 -111v-243q0 -112 -115 -112h-165zM229 -65h79q36 0 49.5 12t13.5 45v192q0 33 -13.5 45.5t-49.5 12.5h-79q-36 0 -49 -12.5t-13 -45.5v-192q0 -32 13 -44.5t49 -12.5z" />
    <glyph glyph-name="one.subs" horiz-adv-x="499" vert-adv-y="993" 
d="M313 -55h115v-80h-332v80h121v262l-102 -68l-44 74l149 98h93v-366z" />
    <glyph glyph-name="two.subs" horiz-adv-x="538" vert-adv-y="993" 
d="M185 -55h282v-80h-396v126q0 45 22 66t87 39l117 32q46 12 57.5 20.5t11.5 28.5v7q0 33 -13.5 45.5t-49.5 12.5h-70q-37 0 -50 -12.5t-13 -46.5v-4l-96 12v19q0 111 114 111h159q115 0 115 -112v-52q0 -50 -24.5 -71t-108.5 -44l-95 -26q-31 -8 -40 -17t-9 -33v-21z" />
    <glyph glyph-name="three.subs" horiz-adv-x="538" vert-adv-y="993" 
d="M409 93q32 -13 45 -34.5t13 -58.5v-33q0 -112 -115 -112h-165q-116 0 -116 112q0 15 1 18l95 12v-5q0 -33 13.5 -45t49.5 -12h78q36 0 49.5 12.5t13.5 45.5v2q0 32 -14 44t-51 12h-81v80h73q38 0 51 10t13 40v3q0 33 -13.5 45.5t-50.5 12.5h-65q-36 0 -49.5 -12
t-13.5 -45v-5l-96 11v19q0 111 115 111h154q115 0 115 -112v-31q0 -33 -10.5 -52t-38.5 -33z" />
    <glyph glyph-name="four.subs" horiz-adv-x="537" vert-adv-y="993" 
d="M465 35v-79h-83v-91h-96v91h-259v77l75 278h97l-75 -276h162v164h96v-164h83z" />
    <glyph glyph-name="five.subs" horiz-adv-x="537" vert-adv-y="993" 
d="M351 147q115 0 115 -113v-67q0 -112 -115 -112h-165q-115 0 -115 112q0 16 1 18l95 12v-4q0 -34 13.5 -46t49.5 -12h76q37 0 50.5 12t13.5 45v23q0 33 -13.5 45t-50.5 12h-73q-31 0 -45 -8.5t-17 -28.5l-91 13l22 263h343v-79h-257l-8 -105q16 20 66 20h105z" />
    <glyph glyph-name="six.subs" horiz-adv-x="532" vert-adv-y="993" 
d="M461 191l-95 -11v4q0 33 -13.5 45.5t-49.5 12.5h-73q-36 0 -49.5 -12.5t-13.5 -45.5v-72q10 20 25.5 28.5t45.5 8.5h108q115 0 115 -113v-69q0 -112 -115 -112h-159q-116 0 -116 112v243q0 111 116 111h159q115 0 115 -111v-19zM229 75q-35 0 -48.5 -12t-13.5 -46v-25
q0 -33 13.5 -45t48.5 -12h73q36 0 49.5 12t13.5 45v25q0 33 -13.5 45.5t-48.5 12.5h-74z" />
    <glyph glyph-name="seven.subs" horiz-adv-x="482" vert-adv-y="993" 
d="M71 311h384v-76l-184 -370h-106l182 367h-276v79z" />
    <glyph glyph-name="eight.subs" horiz-adv-x="538" vert-adv-y="993" 
d="M407 93q32 -13 45.5 -34.5t13.5 -58.5v-33q0 -112 -115 -112h-164q-116 0 -116 112v33q0 37 13.5 58.5t46.5 34.5q-29 14 -40 33t-11 52v31q0 112 115 112h147q115 0 115 -112v-31q0 -33 -11 -52t-39 -33zM177 187v-6q0 -30 12.5 -40t50.5 -10h58q38 0 50.5 10t12.5 40v6
q0 32 -13 43.5t-50 11.5h-58q-37 0 -50 -11.5t-13 -43.5zM370 -9v4q0 32 -14 44t-51 12h-73q-37 0 -51 -12t-14 -44v-4q0 -32 14 -44t51 -12h73q37 0 51 12t14 44z" />
    <glyph glyph-name="nine.subs" horiz-adv-x="532" vert-adv-y="993" 
d="M346 321q115 0 115 -111v-243q0 -112 -115 -112h-159q-116 0 -116 112q0 15 1 18l95 12v-4q0 -34 13 -46t50 -12h73q35 0 48.5 12t13.5 46v70q-19 -36 -71 -36h-107q-116 0 -116 113v70q0 111 116 111h159zM304 101q35 0 48 12.5t13 45.5v25q0 33 -13 45.5t-48 12.5h-74
q-36 0 -49.5 -12.5t-13.5 -45.5v-24q0 -34 14 -46.5t49 -12.5h74z" />
    <glyph glyph-name="zero.zero.subs" horiz-adv-x="532" vert-adv-y="993" 
d="M352 321q115 0 115 -111v-243q0 -112 -115 -112h-165q-116 0 -116 112v243q0 111 116 111h165zM167 184v-192v-11l165 259q-14 2 -24 2h-79q-36 0 -49 -12.5t-13 -45.5zM371 -8v192v10l-165 -258q7 -1 23 -1h79q36 0 49.5 12t13.5 45z" />
    <glyph glyph-name="zero.zero" horiz-adv-x="764" vert-adv-y="993" 
d="M477 719q97 0 142.5 -44t45.5 -136v-370q0 -92 -45.5 -135.5t-142.5 -43.5h-190q-97 0 -143 43.5t-46 135.5v370q0 92 46 136t143 44h190zM223 520v-332q0 -12 2 -28l281 440q-21 11 -64 11h-120q-55 0 -77 -20t-22 -71zM540 188v332q0 18 -1 26l-280 -438q21 -11 63 -11
h120q55 0 76.5 20t21.5 71z" />
    <glyph glyph-name="zero.dnom" horiz-adv-x="538" vert-adv-y="993" 
d="M187 -10q-116 0 -116 112v243q0 111 116 111h165q115 0 115 -111v-243q0 -112 -115 -112h-165zM229 70h79q36 0 49.5 12t13.5 45v192q0 33 -13.5 45.5t-49.5 12.5h-79q-36 0 -49 -12.5t-13 -45.5v-192q0 -32 13 -44.5t49 -12.5z" />
    <glyph glyph-name="one.dnom" horiz-adv-x="499" vert-adv-y="993" 
d="M313 80h115v-80h-332v80h121v262l-102 -68l-44 74l149 98h93v-366z" />
    <glyph glyph-name="two.dnom" horiz-adv-x="538" vert-adv-y="993" 
d="M185 80h282v-80h-396v126q0 45 22 66t87 39l117 32q46 12 57.5 20.5t11.5 28.5v7q0 33 -13.5 45.5t-49.5 12.5h-70q-37 0 -50 -12.5t-13 -46.5v-4l-96 12v19q0 111 114 111h159q115 0 115 -112v-52q0 -50 -24.5 -71t-108.5 -44l-95 -26q-31 -8 -40 -17t-9 -33v-21z" />
    <glyph glyph-name="three.dnom" horiz-adv-x="538" vert-adv-y="993" 
d="M409 228q32 -13 45 -34.5t13 -58.5v-33q0 -112 -115 -112h-165q-116 0 -116 112q0 15 1 18l95 12v-5q0 -33 13.5 -45t49.5 -12h78q36 0 49.5 12.5t13.5 45.5v2q0 32 -14 44t-51 12h-81v80h73q38 0 51 10t13 40v3q0 33 -13.5 45.5t-50.5 12.5h-65q-36 0 -49.5 -12
t-13.5 -45v-5l-96 11v19q0 111 115 111h154q115 0 115 -112v-31q0 -33 -10.5 -52t-38.5 -33z" />
    <glyph glyph-name="four.dnom" horiz-adv-x="537" vert-adv-y="993" 
d="M465 170v-79h-83v-91h-96v91h-259v77l75 278h97l-75 -276h162v164h96v-164h83z" />
    <glyph glyph-name="five.dnom" horiz-adv-x="537" vert-adv-y="993" 
d="M351 282q115 0 115 -113v-67q0 -112 -115 -112h-165q-115 0 -115 112q0 16 1 18l95 12v-4q0 -34 13.5 -46t49.5 -12h76q37 0 50.5 12t13.5 45v23q0 33 -13.5 45t-50.5 12h-73q-31 0 -45 -8.5t-17 -28.5l-91 13l22 263h343v-79h-257l-8 -105q16 20 66 20h105z" />
    <glyph glyph-name="six.dnom" horiz-adv-x="532" vert-adv-y="993" 
d="M461 326l-95 -11v4q0 33 -13.5 45.5t-49.5 12.5h-73q-36 0 -49.5 -12.5t-13.5 -45.5v-72q10 20 25.5 28.5t45.5 8.5h108q115 0 115 -113v-69q0 -112 -115 -112h-159q-116 0 -116 112v243q0 111 116 111h159q115 0 115 -111v-19zM229 210q-35 0 -48.5 -12t-13.5 -46v-25
q0 -33 13.5 -45t48.5 -12h73q36 0 49.5 12t13.5 45v25q0 33 -13.5 45.5t-48.5 12.5h-74z" />
    <glyph glyph-name="seven.dnom" horiz-adv-x="482" vert-adv-y="993" 
d="M71 446h384v-76l-184 -370h-106l182 367h-276v79z" />
    <glyph glyph-name="eight.dnom" horiz-adv-x="538" vert-adv-y="993" 
d="M407 228q32 -13 45.5 -34.5t13.5 -58.5v-33q0 -112 -115 -112h-164q-116 0 -116 112v33q0 37 13.5 58.5t46.5 34.5q-29 14 -40 33t-11 52v31q0 112 115 112h147q115 0 115 -112v-31q0 -33 -11 -52t-39 -33zM177 322v-6q0 -30 12.5 -40t50.5 -10h58q38 0 50.5 10t12.5 40
v6q0 32 -13 43.5t-50 11.5h-58q-37 0 -50 -11.5t-13 -43.5zM370 126v4q0 32 -14 44t-51 12h-73q-37 0 -51 -12t-14 -44v-4q0 -32 14 -44t51 -12h73q37 0 51 12t14 44z" />
    <glyph glyph-name="nine.dnom" horiz-adv-x="532" vert-adv-y="993" 
d="M346 456q115 0 115 -111v-243q0 -112 -115 -112h-159q-116 0 -116 112q0 15 1 18l95 12v-4q0 -34 13 -46t50 -12h73q35 0 48.5 12t13.5 46v70q-19 -36 -71 -36h-107q-116 0 -116 113v70q0 111 116 111h159zM304 236q35 0 48 12.5t13 45.5v25q0 33 -13 45.5t-48 12.5h-74
q-36 0 -49.5 -12.5t-13.5 -45.5v-24q0 -34 14 -46.5t49 -12.5h74z" />
    <glyph glyph-name="zero.numr" horiz-adv-x="538" vert-adv-y="993" 
d="M187 205q-116 0 -116 112v243q0 111 116 111h165q115 0 115 -111v-243q0 -112 -115 -112h-165zM229 285h79q36 0 49.5 12t13.5 45v192q0 33 -13.5 45.5t-49.5 12.5h-79q-36 0 -49 -12.5t-13 -45.5v-192q0 -32 13 -44.5t49 -12.5z" />
    <glyph glyph-name="one.numr" horiz-adv-x="499" vert-adv-y="993" 
d="M313 295h115v-80h-332v80h121v262l-102 -68l-44 74l149 98h93v-366z" />
    <glyph glyph-name="two.numr" horiz-adv-x="538" vert-adv-y="993" 
d="M185 295h282v-80h-396v126q0 45 22 66t87 39l117 32q46 12 57.5 20.5t11.5 28.5v7q0 33 -13.5 45.5t-49.5 12.5h-70q-37 0 -50 -12.5t-13 -46.5v-4l-96 12v19q0 111 114 111h159q115 0 115 -112v-52q0 -50 -24.5 -71t-108.5 -44l-95 -26q-31 -8 -40 -17t-9 -33v-21z" />
    <glyph glyph-name="three.numr" horiz-adv-x="538" vert-adv-y="993" 
d="M409 443q32 -13 45 -34.5t13 -58.5v-33q0 -112 -115 -112h-165q-116 0 -116 112q0 15 1 18l95 12v-5q0 -33 13.5 -45t49.5 -12h78q36 0 49.5 12.5t13.5 45.5v2q0 32 -14 44t-51 12h-81v80h73q38 0 51 10t13 40v3q0 33 -13.5 45.5t-50.5 12.5h-65q-36 0 -49.5 -12
t-13.5 -45v-5l-96 11v19q0 111 115 111h154q115 0 115 -112v-31q0 -33 -10.5 -52t-38.5 -33z" />
    <glyph glyph-name="four.numr" horiz-adv-x="537" vert-adv-y="993" 
d="M465 385v-79h-83v-91h-96v91h-259v77l75 278h97l-75 -276h162v164h96v-164h83z" />
    <glyph glyph-name="five.numr" horiz-adv-x="537" vert-adv-y="993" 
d="M351 497q115 0 115 -113v-67q0 -112 -115 -112h-165q-115 0 -115 112q0 16 1 18l95 12v-4q0 -34 13.5 -46t49.5 -12h76q37 0 50.5 12t13.5 45v23q0 33 -13.5 45t-50.5 12h-73q-31 0 -45 -8.5t-17 -28.5l-91 13l22 263h343v-79h-257l-8 -105q16 20 66 20h105z" />
    <glyph glyph-name="six.numr" horiz-adv-x="532" vert-adv-y="993" 
d="M461 541l-95 -11v4q0 33 -13.5 45.5t-49.5 12.5h-73q-36 0 -49.5 -12.5t-13.5 -45.5v-72q10 20 25.5 28.5t45.5 8.5h108q115 0 115 -113v-69q0 -112 -115 -112h-159q-116 0 -116 112v243q0 111 116 111h159q115 0 115 -111v-19zM229 425q-35 0 -48.5 -12t-13.5 -46v-25
q0 -33 13.5 -45t48.5 -12h73q36 0 49.5 12t13.5 45v25q0 33 -13.5 45.5t-48.5 12.5h-74z" />
    <glyph glyph-name="seven.numr" horiz-adv-x="482" vert-adv-y="993" 
d="M71 661h384v-76l-184 -370h-106l182 367h-276v79z" />
    <glyph glyph-name="eight.numr" horiz-adv-x="538" vert-adv-y="993" 
d="M407 443q32 -13 45.5 -34.5t13.5 -58.5v-33q0 -112 -115 -112h-164q-116 0 -116 112v33q0 37 13.5 58.5t46.5 34.5q-29 14 -40 33t-11 52v31q0 112 115 112h147q115 0 115 -112v-31q0 -33 -11 -52t-39 -33zM177 537v-6q0 -30 12.5 -40t50.5 -10h58q38 0 50.5 10t12.5 40
v6q0 32 -13 43.5t-50 11.5h-58q-37 0 -50 -11.5t-13 -43.5zM370 341v4q0 32 -14 44t-51 12h-73q-37 0 -51 -12t-14 -44v-4q0 -32 14 -44t51 -12h73q37 0 51 12t14 44z" />
    <glyph glyph-name="nine.numr" horiz-adv-x="532" vert-adv-y="993" 
d="M346 671q115 0 115 -111v-243q0 -112 -115 -112h-159q-116 0 -116 112q0 15 1 18l95 12v-4q0 -34 13 -46t50 -12h73q35 0 48.5 12t13.5 46v70q-19 -36 -71 -36h-107q-116 0 -116 113v70q0 111 116 111h159zM304 451q35 0 48 12.5t13 45.5v25q0 33 -13 45.5t-48 12.5h-74
q-36 0 -49.5 -12.5t-13.5 -45.5v-24q0 -34 14 -46.5t49 -12.5h74z" />
    <glyph glyph-name="zero.dnom.zero.dnom" horiz-adv-x="532" vert-adv-y="993" 
d="M352 456q115 0 115 -111v-243q0 -112 -115 -112h-165q-116 0 -116 112v243q0 111 116 111h165zM167 319v-192v-11l165 259q-14 2 -24 2h-79q-36 0 -49 -12.5t-13 -45.5zM371 127v192v10l-165 -258q7 -1 23 -1h79q36 0 49.5 12t13.5 45z" />
    <glyph glyph-name="zero.numr.zero.numr" horiz-adv-x="532" vert-adv-y="993" 
d="M352 671q115 0 115 -111v-243q0 -112 -115 -112h-165q-116 0 -116 112v243q0 111 116 111h165zM167 534v-192v-11l165 259q-14 2 -24 2h-79q-36 0 -49 -12.5t-13 -45.5zM371 342v192v10l-165 -258q7 -1 23 -1h79q36 0 49.5 12t13.5 45z" />
    <glyph glyph-name="zero.numr.zerosuperior" horiz-adv-x="532" vert-adv-y="993" 
d="M352 791q115 0 115 -111v-243q0 -112 -115 -112h-165q-116 0 -116 112v243q0 111 116 111h165zM167 654v-192v-11l165 259q-14 2 -24 2h-79q-36 0 -49 -12.5t-13 -45.5zM371 462v192v10l-165 -258q7 -1 23 -1h79q36 0 49.5 12t13.5 45z" />
    <glyph glyph-name="arrowup.ss01" horiz-adv-x="881" vert-adv-y="993" 
d="M226 -10q-83 0 -119 36t-36 119v419q0 83 36 119t119 36h428q83 0 119 -36t36 -119v-419q0 -83 -36 -119t-119 -36h-428zM373 115h134v313l162 -101v127l-226 141h-5l-227 -141v-127l162 101v-313z" />
    <glyph glyph-name="uni2197.ss01" horiz-adv-x="881" vert-adv-y="993" 
d="M226 -10q-83 0 -119 36t-36 119v419q0 83 36 119t119 36h428q83 0 119 -36t36 -119v-419q0 -83 -36 -119t-119 -36h-428zM216 225l94 -95l222 222l43 -186l90 89l-61 260l-3 3l-260 61l-90 -90l186 -43z" />
    <glyph glyph-name="arrowright.ss01" horiz-adv-x="881" vert-adv-y="993" 
d="M226 -10q-83 0 -119 36t-36 119v419q0 83 36 119t119 36h428q83 0 119 -36t36 -119v-419q0 -83 -36 -119t-119 -36h-428zM196 433v-133h313l-101 -162h127l141 226v4l-141 227h-127l101 -162h-313z" />
    <glyph glyph-name="uni2198.ss01" horiz-adv-x="881" vert-adv-y="993" 
d="M226 719h428q83 0 119 -36t36 -119v-419q0 -83 -36 -119t-119 -36h-428q-83 0 -119 36t-36 119v419q0 83 36 119t119 36zM216 484l221 -221l-186 -43l90 -90l260 61l3 3l61 260l-90 89l-43 -186l-222 221z" />
    <glyph glyph-name="arrowdown.ss01" horiz-adv-x="881" vert-adv-y="993" 
d="M226 719h428q83 0 119 -36t36 -119v-419q0 -83 -36 -119t-119 -36h-428q-83 0 -119 36t-36 119v419q0 83 36 119t119 36zM373 594v-314l-162 102v-127l227 -141h5l226 141v127l-162 -102v314h-134z" />
    <glyph glyph-name="uni2199.ss01" horiz-adv-x="881" vert-adv-y="993" 
d="M654 719q83 0 119 -36t36 -119v-419q0 -83 -36 -119t-119 -36h-428q-83 0 -119 36t-36 119v419q0 83 36 119t119 36h428zM665 484l-95 94l-221 -221l-44 186l-89 -89l60 -260l4 -3l260 -61l89 90l-185 43z" />
    <glyph glyph-name="arrowleft.ss01" horiz-adv-x="881" vert-adv-y="993" 
d="M654 -10h-428q-83 0 -119 36t-36 119v419q0 83 36 119t119 36h428q83 0 119 -36t36 -119v-419q0 -83 -36 -119t-119 -36zM684 433h-312l100 162h-126l-141 -227v-4l141 -226h126l-101 162h313v133z" />
    <glyph glyph-name="uni2196.ss01" horiz-adv-x="881" vert-adv-y="993" 
d="M654 -10h-428q-83 0 -119 36t-36 119v419q0 83 36 119t119 36h428q83 0 119 -36t36 -119v-419q0 -83 -36 -119t-119 -36zM665 225l-221 221l185 43l-89 90l-260 -61l-4 -3l-60 -260l89 -89l44 186l221 -222z" />
    <glyph glyph-name="brevecombcy" horiz-adv-x="0" vert-adv-y="993" 
d="M-157 845h96v-94q0 -55 -26.5 -80t-84.5 -25h-141q-58 0 -84.5 25t-26.5 80v94h96v-68q0 -28 12 -39t42 -11h64q30 0 41.5 11t11.5 39v68z" />
    </font>
</defs>
</svg>
