<?xml version="1.0" encoding="utf-8"?>
<!-- Generator: Adobe Illustrator 21.0.0, SVG Export Plug-In . SVG Version: 6.00 Build 0)  -->
<svg version="1.1" id="Capa_1" xmlns="http://www.w3.org/2000/svg" xmlns:xlink="http://www.w3.org/1999/xlink" x="0px" y="0px"
	 viewBox="0 0 511 511" style="enable-background:new 0 0 511 511;" xml:space="preserve">
	<style>
	 	.st {
	 		fill: #ededed;
	 	}
	 </style>
<g>
	<path class="st" d="M495.5,186h-480C7,186,0,193,0,201.5v40c0,82.6,51.2,156.8,128,186.3v13.7c0,13,10.5,23.5,23.5,23.5h208
		c13,0,23.5-10.5,23.5-23.5v-13.7c76.8-29.5,128-103.7,128-186.3v-40C511,193,504,186,495.5,186z M359.5,450h-208
		c-4.7,0-8.5-3.8-8.5-8.5V433h225v8.5C368,446.2,364.2,450,359.5,450z M496,241.5c0,78-49.4,147.9-123,174c-1.4,0.5-2.6,1.4-3.5,2.5
		H141.5c-0.9-1.1-2-2-3.5-2.5c-73.6-26-123-95.9-123-174v-40c0-0.3,0.2-0.5,0.5-0.5h480c0.3,0,0.5,0.2,0.5,0.5V241.5z"/>
	<path class="st" d="M63.3,310.1c-2.5-4.9-4.7-10.1-6.7-15.3c-1.5-3.9-5.8-5.8-9.7-4.4s-5.8,5.8-4.4,9.7c2.1,5.7,4.6,11.3,7.3,16.8
		c1.3,2.6,4,4.1,6.7,4.1c1.1,0,2.3-0.3,3.4-0.8C63.7,318.3,65.2,313.8,63.3,310.1z"/>
	<path class="st" d="M471.5,218c-4.1,0-7.5,3.4-7.5,7.5v16c0,4.1,3.4,7.5,7.5,7.5s7.5-3.4,7.5-7.5v-16C479,221.4,475.6,218,471.5,218z"/>
	<path class="st" d="M148.7,385.3c-28.4-10.1-53.1-28.2-71.2-52.4c-2.5-3.3-7.2-4-10.5-1.5s-4,7.2-1.5,10.5c19.9,26.6,47,46.5,78.2,57.6
		c0.8,0.3,1.7,0.4,2.5,0.4c3.1,0,6-1.9,7.1-5C154.6,391,152.6,386.7,148.7,385.3z"/>
	<path class="st" d="M469.8,266.2c-4.1-0.8-8,1.8-8.9,5.8c-6.6,32.2-23.9,62-48.6,83.9c-3.1,2.7-3.4,7.5-0.7,10.6c1.5,1.7,3.5,2.5,5.6,2.5
		c1.8,0,3.5-0.6,5-1.9c27.2-24,46.1-56.7,53.4-92.1C476.4,270.9,473.8,267,469.8,266.2z"/>
</g>
<g>
	<g>
		<path class="st" d="M264.6,119.6c5.9-5.9,9.2-13.7,9.2-22.1s-3.2-16.2-9.2-22.1l-9.5-9.5c-3.1-3.1-4.8-7.1-4.8-11.5s1.7-8.4,4.8-11.5
			c2.9-2.9,2.9-7.7,0-10.6s-7.7-2.9-10.6,0c-5.9,5.9-9.2,13.7-9.2,22.1s3.2,16.2,9.2,22.1L254,86c3.1,3.1,4.8,7.1,4.8,11.5
			s-1.7,8.4-4.8,11.5l-9.5,9.5c-5.9,5.9-9.2,13.7-9.2,22.1c0,8.3,3.2,16.2,9.2,22.1c1.5,1.5,3.4,2.2,5.3,2.2s3.8-0.7,5.3-2.2
			c2.9-2.9,2.9-7.7,0-10.6c-3.1-3.1-4.8-7.1-4.8-11.5s1.7-8.4,4.8-11.5L264.6,119.6z"/>
	</g>
</g>
<g>
	<g>
		<path class="st" d="M358.4,119.6c5.9-5.9,9.2-13.7,9.2-22.1c0-8.3-3.2-16.2-9.2-22.1c-2.9-2.9-7.7-2.9-10.6,0c-2.9,2.9-2.9,7.7,0,10.6
			c3.1,3.1,4.8,7.1,4.8,11.5s-1.7,8.4-4.8,11.5l-9.5,9.5c-5.9,5.9-9.2,13.7-9.2,22.1c0,8.3,3.2,16.2,9.2,22.1
			c1.5,1.5,3.4,2.2,5.3,2.2s3.8-0.7,5.3-2.2c2.9-2.9,2.9-7.7,0-10.6c-3.1-3.1-4.8-7.1-4.8-11.5s1.7-8.4,4.8-11.5L358.4,119.6z"/>
	</g>
</g>
<g>
	<g>
		<path class="st" d="M171.8,119.6c5.9-5.9,9.2-13.7,9.2-22.1c0-8.3-3.2-16.2-9.2-22.1c-2.9-2.9-7.7-2.9-10.6,0s-2.9,7.7,0,10.6
			c3.1,3.1,4.8,7.1,4.8,11.5s-1.7,8.4-4.8,11.5l-9.5,9.5c-5.9,5.9-9.2,13.7-9.2,22.1c0,8.3,3.2,16.2,9.2,22.1
			c1.5,1.5,3.4,2.2,5.3,2.2s3.8-0.7,5.3-2.2c2.9-2.9,2.9-7.7,0-10.6c-3.1-3.1-4.8-7.1-4.8-11.5s1.7-8.4,4.8-11.5L171.8,119.6z"/>
	</g>
</g>
</svg>
