<?xml version="1.0" encoding="utf-8"?>
<!-- Generator: Adobe Illustrator 21.0.0, SVG Export Plug-In . SVG Version: 6.00 Build 0)  -->
<svg version="1.1" id="Слой_1" xmlns="http://www.w3.org/2000/svg" xmlns:xlink="http://www.w3.org/1999/xlink" x="0px" y="0px"
	 viewBox="0 0 500 500" style="enable-background:new 0 0 500 500;" xml:space="preserve" width="38px">
<style type="text/css">
	.st0{fill:#7ab800;}
</style>
<path class="st0" d="M19.1,35h0.5h461.2c10.6,0,19.1,8.6,19.1,19.2v0.4v386.4c0,10.8-8.5,19.2-19.1,19.2h-0.6H19.1
	C8.5,460.4,0,451.9,0,441.1v-0.5V54.2C0,43.6,8.5,35,19.1,35L19.1,35z M148.3,96.8L148.3,96.8c10.6,0,19.2,8.7,19.2,19.2
	c0,10.6-8.6,19.2-19.2,19.2c-10.5,0-19.2-8.6-19.2-19.2C129.1,105.6,137.8,96.8,148.3,96.8L148.3,96.8z M351.5,96.8L351.5,96.8
	c10.5,0,19.2,8.7,19.2,19.2c0,10.6-8.7,19.2-19.2,19.2c-10.6,0-19.2-8.6-19.2-19.2C332.3,105.6,340.9,96.8,351.5,96.8L351.5,96.8z
	 M210.3,82.6L210.3,82.6h0.3h78.9c6.4,0,11.6,5.2,11.6,11.5v0.3v45.9c0,6.3-5.2,11.5-11.6,11.5h-0.3h-78.9
	c-6.3,0-11.3-5.2-11.3-11.5v-0.3V94.1C199,87.8,204,82.6,210.3,82.6L210.3,82.6z M278.1,105.7L278.1,105.7h-56.2v22.9h56.2V105.7
	L278.1,105.7z M68.5,195.9L68.5,195.9h0.3h362.7c6.6,0,11.6,5.2,11.6,11.6v0.3v191.7c0,6.6-5,11.6-11.6,11.6h-0.3H68.5
	c-6.6,0-11.6-5-11.6-11.6v-0.3V207.5C56.9,201.1,62,195.9,68.5,195.9L68.5,195.9z M419.9,218.8L419.9,218.8H79.8v169.1h340.1V218.8
	L419.9,218.8z M68.5,183.6L68.5,183.6c-6.6,0-11.6-5.2-11.6-11.5c0-6.4,5-11.5,11.6-11.5h363c6.6,0,11.6,5,11.6,11.5
	c0,6.3-5,11.5-11.6,11.5H68.5L68.5,183.6z M461.8,73.5L461.8,73.5H38.5v348.4h423.3V73.5L461.8,73.5z"/>
</svg>
