<?xml version="1.0" encoding="utf-8"?>
<!-- Generator: Adobe Illustrator 21.0.0, SVG Export Plug-In . SVG Version: 6.00 Build 0)  -->
<svg version="1.1" id="Слой_1" xmlns="http://www.w3.org/2000/svg" xmlns:xlink="http://www.w3.org/1999/xlink" x="0px" y="0px"
	 viewBox="0 0 500 500" style="enable-background:new 0 0 500 500;" xml:space="preserve">
<style type="text/css">
	.st0{fill:#7ab800;}
</style>
<path class="st0" d="M209.1,420c-64-19.5-110.9-76.4-113.8-145.5c-3.2-81.5,41.1-132.1,89.9-186.2c23.3-26.1,46.6-51.8,62.3-78.8
	c5.2-9.1,16.7-12,25.6-6.8c2.9,1.6,5.2,4.1,6.8,6.8l0.1,0.4c15.9,27,39.1,52.8,62.3,78.4c48.8,54.4,93.2,104.9,89.9,186.2
	c-2.8,69.1-50,126.1-114,145.5c-13.9,4.4-28.5,6.7-43.1,7.6v0.5c0,39.1-32.8,71.9-72.2,71.9c-6.3,0-11.1-4.9-11.1-11.1
	c0-6.4,4.8-11.6,11.1-11.6c27.1,0,49.5-22.4,49.5-49.2v-0.5C237.8,426.6,223.4,424.4,209.1,420L209.1,420z M182.3,268L182.3,268
	c-4.3-4.7-4.3-11.7,0-16c4.4-4.5,11.7-4.5,16,0l54.2,54.2V134.2c0-6.3,5.1-11.3,11.3-11.3c6.1,0,11.3,5.1,11.3,11.3v119.3l54.2-54.2
	c4.4-4.3,11.5-4.3,16,0c4.1,4.4,4.1,11.5,0,16l-70.2,70.2v104.4c10.9-0.8,22.1-2.8,32.3-5.9c48.9-14.9,85.4-58.1,87.4-111.1
	c2.8-68.7-38.8-113.4-80.4-159.9c-17.6-19.5-35.4-39.2-50.6-60c-15.1,20.8-32.9,40.7-50.6,60c-41.6,46.6-83.2,91.2-80.6,159.9
	c2.1,53,38.5,96.2,87.5,111.1c10.4,3.1,21.2,5.1,32.3,5.6v-51.8L182.3,268L182.3,268z"/>
</svg>
