<?xml version="1.0" encoding="utf-8"?>
<!-- Generator: Adobe Illustrator 21.0.0, SVG Export Plug-In . SVG Version: 6.00 Build 0)  -->
<svg version="1.1" id="Слой_1" xmlns="http://www.w3.org/2000/svg" xmlns:xlink="http://www.w3.org/1999/xlink" x="0px" y="0px"
	 viewBox="0 0 500 500" style="enable-background:new 0 0 500 500;" xml:space="preserve" width="38px">
<style type="text/css">
	.st0{fill:#7ab800;}
</style>
<path class="st0" d="M94.9,44.9h311.6c24.8,0,47.3,10.2,63.3,26.2c16.3,16.1,26.2,38.6,26.2,63.3v235c0,24.6-9.9,47.1-26.2,63.3
	l-1.1,0.9c-16,15.7-38,25.3-62.2,25.3H94.9c-24.5,0-46.7-10-63-26.2v-0.1l-0.5-0.1c-16-16.3-26-38.6-26-63v-235
	c0-24.8,10.2-47,26.5-63.3l0.3-0.3C48.4,54.9,70.7,44.9,94.9,44.9L94.9,44.9z M360.3,144.1L360.3,144.1c0-6.4,5-11.6,11.1-11.6
	c6.3,0,11.4,5.2,11.4,11.6v2.5H405h0.3c6.2,0,11.1,5.1,11.1,11.3v67v0.3c0,6.2-4.9,11.4-11.1,11.4h-22.5v123.5
	c0,6.2-5.1,11.4-11.4,11.4c-6.2,0-11.1-5.2-11.1-11.4V236.6h-21.9h-0.3c-6.4,0-11.6-5.2-11.6-11.4v-67.1v-0.3
	c0-6.2,5.2-11.3,11.6-11.3h22.2V144.1L360.3,144.1z M349.2,169.2L349.2,169.2v44.8c14.9,0,29.9,0,44.6,0v-44.8
	C379,169.2,364,169.2,349.2,169.2L349.2,169.2z M239.4,144.1L239.4,144.1c0-6.4,5.2-11.6,11.4-11.6c6.2,0,11.1,5.2,11.1,11.6v123.3
	H284h0.3c6.3,0,11.5,5.2,11.5,11.4v67v0.1c0,6.3-5.2,11.4-11.5,11.4h-22.3v2.8c0,6.2-5,11.4-11.1,11.4c-6.2,0-11.4-5.2-11.4-11.4
	v-2.8h-22.1h-0.3c-6.3,0-11.2-5.1-11.2-11.4V279v-0.3c0-6.2,4.9-11.4,11.2-11.4h22.4V144.1L239.4,144.1z M228.6,290.1L228.6,290.1
	v44.4c14.6,0,29.6,0,44.4,0v-44.4C258.2,290.1,243.2,290.1,228.6,290.1L228.6,290.1z M118.8,144.1L118.8,144.1
	c0-6.4,4.8-11.6,11.1-11.6c6.2,0,11.4,5.2,11.4,11.6v63h21.9h0.3c6.4,0,11.4,5,11.4,11.3v66.9v0.4c0,6.2-4.9,11.4-11.4,11.4h-22.2
	v63c0,6.2-5.2,11.4-11.4,11.4c-6.3,0-11.1-5.2-11.1-11.4v-63H96.6h-0.3c-6.2,0-11.4-5.2-11.4-11.4v-66.9v-0.4
	c0-6.3,5.2-11.3,11.4-11.3h22.5V144.1L118.8,144.1z M107.6,229.9L107.6,229.9v44.4c15,0,29.9,0,44.6,0v-44.4
	C137.4,229.9,122.6,229.9,107.6,229.9L107.6,229.9z M406.4,82.8L406.4,82.8H94.9c-14,0-26.9,5.8-36.5,15.1l0,0
	c-9.4,9.6-15.3,22.5-15.3,36.5v235c0,14.3,5.9,27.2,15.3,36.8c9.6,9.4,22.5,15,36.5,15h311.6c14.1,0,26.5-5.3,35.9-14.4l0.7-0.5
	c9.4-9.6,15.4-22.5,15.4-36.8v-235c0-14.1-6-26.9-15.4-36.5C433.6,88.5,420.8,82.8,406.4,82.8L406.4,82.8z"/>
</svg>
