<?xml version="1.0" encoding="utf-8"?>
<!-- Generator: Adobe Illustrator 21.0.0, SVG Export Plug-In . SVG Version: 6.00 Build 0)  -->
<svg version="1.1" id="Слой_1" xmlns="http://www.w3.org/2000/svg" xmlns:xlink="http://www.w3.org/1999/xlink" x="0px" y="0px"
	 viewBox="0 0 300 300" style="enable-background:new 0 0 300 300;" xml:space="preserve" width="60px">
<style type="text/css">
	.st0{fill:#d5e8c4;}
</style>
<path class="st0" d="M101.8,87L101.8,87h75.7c1.8,0,3.2,1.4,3.2,3.2v0v57.7c0,1.7-1.4,3.2-3.2,3.2h-0.1h-75.7
	c-1.7,0-3.2-1.5-3.2-3.2v-0.1V90.2C98.7,88.4,100.1,87,101.8,87L101.8,87z M174.4,96.1L174.4,96.1L141,129.4c-0.7,0.8-1.9,0.8-2.7,0
	L105,96.1v48.7h69.4V96.1L174.4,96.1z M171.8,93.3L171.8,93.3h-64.2l32.1,32.1L171.8,93.3L171.8,93.3z"/>
</svg>
