<?xml version="1.0" encoding="utf-8"?>
<!-- Generator: Adobe Illustrator 21.0.0, SVG Export Plug-In . SVG Version: 6.00 Build 0)  -->
<svg version="1.1" id="Слой_1" xmlns="http://www.w3.org/2000/svg" xmlns:xlink="http://www.w3.org/1999/xlink" x="0px" y="0px"
	 viewBox="0 0 500 500" style="enable-background:new 0 0 500 500;" xml:space="preserve" width="34px">
<style type="text/css">
	.st0{fill:#7ab800;}
</style>
<path class="st0" d="M367.5,359.5H144c-6.3,0-11.6,5.2-11.6,11.5c0,6.6,5.3,11.6,11.6,11.6h223.5c6.3,0,11.7-5,11.7-11.6
	C379.2,364.6,373.8,359.5,367.5,359.5L367.5,359.5z M132.4,208.7L132.4,208.7c0,6.4,5.3,11.6,11.6,11.6h223.5
	c6.3,0,11.7-5.2,11.7-11.6c0-6.4-5.5-11.6-11.7-11.6H144C137.7,197.1,132.4,202.2,132.4,208.7L132.4,208.7z M469,144.7L469,144.7
	L329.7,5.7c-3.5-3.5-8-5.7-13.7-5.7H88.6C74.2,0,61.3,5.9,52,15.3c-9.3,9.3-15.1,22.1-15.1,36.2v397c0,14.2,5.9,27,15.1,36.3h0.3
	c9.3,9.3,22,15.3,36.3,15.3h334.3c13.8,0,26.6-5.7,36-14.9l0.3-0.4h0.1c9.4-9.4,15.1-22.4,15.1-36.3V158.3
	C474.5,153.4,472.4,148.5,469,144.7L469,144.7z M327.6,58L327.6,58l89,88.7h-68.4c-5.6,0-10.8-2.3-14.3-6l-0.5-0.5
	c-3.7-3.7-5.7-8.6-5.7-14V58L327.6,58z M436,448.4L436,448.4c0,3.5-1.5,6.8-3.8,9.1l0,0c-2.3,2.3-5.6,3.8-9.3,3.8H88.6
	c-3.5,0-6.8-1.5-9.3-3.8l0,0c-2.5-2.3-3.8-5.6-3.8-9.1v-397c0-3.4,1.4-6.7,3.8-9.2c2.5-2.4,5.7-3.8,9.3-3.8h216.2v87.6
	c0,11.7,4.5,22.4,12,30.3l0.8,0.7c7.8,7.8,18.7,12.8,30.7,12.8H436V448.4L436,448.4z M367.5,278.4L367.5,278.4H144
	c-6.3,0-11.6,5.2-11.6,11.5c0,6.3,5.3,11.6,11.6,11.6h223.5c6.3,0,11.7-5.3,11.7-11.6C379.2,283.6,373.8,278.4,367.5,278.4
	L367.5,278.4z"/>
</svg>
