<?xml version="1.0" encoding="utf-8"?>
<svg version="1.1" id="Слой_1" xmlns="http://www.w3.org/2000/svg" xmlns:xlink="http://www.w3.org/1999/xlink" x="0px" y="0px"
	 viewBox="0 0 300 300" style="enable-background:new 0 0 300 300;" xml:space="preserve" width="50px">
<style type="text/css">
	.st0{fill:#d2e7c0;}
</style>
<path class="st0" d="M110.7,59.5l14.2,18.3l0.2,0.3c0.7,0.9,1.2,1.9,1.5,2.9c0.3,1.2,0.3,2.4,0.2,3.6c-0.2,1.2-0.6,2.3-1.2,3.4
	l-0.1,0.2c-0.6,0.9-1.4,1.8-2.3,2.4l-0.3,0.1l-6.9,5c-0.4,1-0.9,3.2,0.9,5.9c3,4.4,6.4,8.4,10.2,12.1l0,0l0,0
	c3.7,3.7,7.8,7.1,12.2,10.1c2.7,1.9,4.9,1.4,5.9,1l5.2-7.1h-0.1c0.8-1,1.6-1.8,2.7-2.5h0c1.1-0.6,2.2-1,3.4-1.2h0.1
	c1.2-0.2,2.4-0.1,3.5,0.2l0.2,0.1c1,0.3,2.1,0.8,3,1.5l0,0l18.3,14.2l0.3,0.2c0.9,0.8,1.6,1.7,2.2,2.8h0.1c0.6,1.1,0.9,2.4,0.9,3.7
	c0.1,1.4-0.2,2.6-0.6,3.8c-0.5,1.2-1.2,2.3-2.2,3.2c-1.2,1.1-2.6,2.2-4.4,3.3l-0.3,0.1c-1.6,1-3.7,1.9-5.9,2.7
	c-10,3.4-20.8,2.8-31.1-0.7c-10.9-3.6-21.3-10.4-29.9-19c-8.6-8.6-15.4-19-19-29.9c-3.4-10.3-4-21.1-0.7-31.1
	c0.8-2.4,1.8-4.4,2.8-6.2h0h0c1-1.8,2.2-3.2,3.3-4.4c0.9-1,2-1.8,3.2-2.2l0.3-0.1c1.1-0.4,2.3-0.6,3.5-0.6c1.4,0,2.6,0.4,3.8,1
	l0.2,0.1L110.7,59.5L110.7,59.5z M119.1,82.3L119.1,82.3l-14.2-18.3l0,0c-0.1-0.2-0.3-0.3-0.4-0.4l-0.1,0c-0.2-0.1-0.4-0.2-0.7-0.2
	c-0.2,0-0.4,0-0.6,0.1l-0.1,0.1c-0.2,0.1-0.4,0.2-0.6,0.4c-0.7,0.8-1.5,1.9-2.3,3.2c-0.8,1.3-1.5,2.8-2.1,4.7
	c-2.8,8.4-2.3,17.6,0.7,26.4c3.3,9.8,9.4,19.2,17.2,27c7.8,7.8,17.3,14,27,17.2c8.9,2.9,18,3.5,26.4,0.7c1.8-0.6,3.3-1.3,4.5-2.1
	l0.2-0.1c1.3-0.8,2.3-1.6,3.2-2.4c0.2-0.2,0.3-0.3,0.4-0.6v0l0,0c0.1-0.2,0.1-0.4,0.1-0.7c0-0.3-0.1-0.5-0.2-0.7l0,0
	c-0.1-0.1-0.2-0.3-0.3-0.4l-0.1-0.1l-18.3-14.2h0l0-0.1c-0.1-0.1-0.3-0.2-0.4-0.3H158c-0.2-0.1-0.4-0.1-0.6-0.1h-0.1
	c-0.2,0.1-0.4,0.1-0.6,0.2l0,0l0,0c-0.2,0.1-0.3,0.3-0.4,0.4h-0.1l-5.6,7.6c-0.3,0.5-0.7,0.9-1.2,1.2c0,0-6.5,4.7-14.5-0.9
	c-4.8-3.4-9.1-7-13.1-11v0c-4-4-7.7-8.4-11-13.1c-5.6-8-0.9-14.5-0.9-14.5c0.3-0.4,0.6-0.8,1-1.1l7.5-5.5l0.3-0.2
	c0.2-0.1,0.3-0.3,0.4-0.4l0.1-0.1c0.1-0.2,0.2-0.4,0.2-0.6c0.1-0.2,0-0.5,0-0.7c-0.1-0.2-0.1-0.3-0.2-0.4L119.1,82.3L119.1,82.3z
	 M110.7,59.5L110.7,59.5L110.7,59.5L110.7,59.5L110.7,59.5z M110.7,59.5L110.7,59.5L110.7,59.5L110.7,59.5L110.7,59.5z"/>
</svg>
