<?xml version="1.0" encoding="utf-8"?>
<!-- Generator: Adobe Illustrator 21.0.0, SVG Export Plug-In . SVG Version: 6.00 Build 0)  -->
<svg version="1.1" id="Слой_1" xmlns="http://www.w3.org/2000/svg" xmlns:xlink="http://www.w3.org/1999/xlink" x="0px" y="0px"
	 viewBox="0 0 500 500" style="enable-background:new 0 0 500 500;" xml:space="preserve" width="36px">
<style type="text/css">
	.st0{fill:#7ab800;}
</style>
<path class="st0" d="M250.9,393.6c10.5,0,19.4,8.7,19.4,19.4c0,10.5-8.9,19.2-19.4,19.2c-10.6,0-19.2-8.7-19.2-19.2
	C231.7,402.4,240.3,393.6,250.9,393.6L250.9,393.6z M112.6,78.8L112.6,78.8c10.6,0,19.4,8.7,19.4,19.2c0,10.6-8.7,19.2-19.4,19.2
	c-10.6,0-19.1-8.6-19.1-19.2C93.5,87.5,102,78.8,112.6,78.8L112.6,78.8z M388.3,78.8L388.3,78.8c10.5,0,19.1,8.7,19.1,19.2
	c0,10.6-8.6,19.2-19.1,19.2c-10.6,0-19.4-8.6-19.4-19.2C369,87.5,377.7,78.8,388.3,78.8L388.3,78.8z M250.9,363L250.9,363
	c29.7-24,53.9-54.7,72-88.5c19.6-36.4,32.2-77.3,37.1-118.2c-3.7-3.5-7-6.8-10.5-10.9h-0.1c-3.3-3.7-6.5-7.4-9.7-11l-177.4-0.1
	c-3,4-6.3,7.6-9.8,11.2c-3.5,4.1-7.1,7.4-10.6,10.9c5.1,40.9,17.7,81.5,37.4,118.1C197.2,308.3,221.4,338.7,250.9,363L250.9,363z
	 M343.2,285.4L343.2,285.4c-21.1,39-49.5,74-85.1,101.2l-0.3,0.3c-4,3-9.8,3.1-13.8,0c-35.7-27.3-64.4-62.3-85.4-101.6
	c-21.9-40.6-35.5-86-40.5-132c-0.5-3.8,0.9-7.9,4-10.6c4.8-4.1,9.1-8.3,13.4-12.5l0,0c4.1-4.6,7.8-9.1,11.4-14.2
	c2.2-2.7,5.7-4.8,9.4-4.8h189.1c3.3,0,6.8,1.5,9,4.5c3.8,5,7.9,9.8,11.7,14.5h0.1c4,4.2,8.6,8.4,13.2,12.5h-0.1
	c2.9,2.3,4.5,6,4.1,10.1C378.8,199.1,365.1,244.6,343.2,285.4L343.2,285.4z M250.9,459.2L250.9,459.2
	c126.5-65.2,198.8-204.8,198.8-344.6v-12.1c-29.4-9.3-52.1-33.8-58.6-63.8H111c-6.8,29.9-29.3,54.5-58.8,63.8l-0.1,12.1
	C52.1,254.4,124.6,394.1,250.9,459.2L250.9,459.2z M259.6,497.8L259.6,497.8c-5.2,2.7-11.5,3-17,0.3
	C98.3,428.7,13.6,271.9,13.6,114.7c0-3.5,0.1-8,0.5-14.3c0-5.1,0.3-9.6,0.5-13.9c0-9.3,7.4-17.3,16.9-18.3c24.1-3,42.8-23.7,43-48.3
	v-0.4C74.6,9,83.5,0.1,93.8,0.1h313.6h0.5c10.6,0,19.4,8.9,19.4,19.4c0,24.4,18.3,45.5,43.1,48.7c9,0.9,16.4,8.2,16.8,17.7
	c0.3,4.4,0.5,9,0.5,14.5c0.3,6.3,0.3,10.8,0.3,14.3C488,271.7,403.6,428.4,259.6,497.8L259.6,497.8z"/>
</svg>
