<?xml version="1.0" encoding="utf-8"?>
<!-- Generator: Adobe Illustrator 21.0.0, SVG Export Plug-In . SVG Version: 6.00 Build 0)  -->
<svg version="1.1" id="Слой_1" xmlns="http://www.w3.org/2000/svg" xmlns:xlink="http://www.w3.org/1999/xlink" x="0px" y="0px"
	 viewBox="0 0 500 500" style="enable-background:new 0 0 500 500;" xml:space="preserve" width="34px">
<style type="text/css">
	.st0{fill:#7ab800;}
</style>
<path class="st0" d="M231,137.7c0-10.5,8.6-19.1,19.2-19.1c10.5,0,19.4,8.6,19.4,19.1v92.7c0,10.5-8.9,19.4-19.4,19.4
	c-10.6,0-19.2-8.9-19.2-19.4V137.7L231,137.7z M250.2,0L250.2,0c68.9,0,131.3,28.1,176.6,73.3l0,0h0.1
	c45.3,45.3,73.2,107.7,73.2,176.7c0,69-28,131.3-73.2,176.7h-0.1l0,0l0,0C381.5,472,319.1,500,250.2,500c-69,0-131.2-28-176.6-73.2
	h-0.3C28.2,381.4,0.4,319.1,0.4,250.1c0-69,27.8-131.4,72.9-176.7l0,0h0.3C119,28.1,181.4,0,250.2,0L250.2,0z M399.7,100.5
	L399.7,100.5c-38.2-38.3-90.8-61.9-149.4-61.9c-58.5,0-111.4,23.6-149.6,61.9l0,0c-38,38.3-61.9,91.1-61.9,149.6
	c0,58.3,23.9,111.3,61.9,149.4l0,0c38.2,38.3,91.1,61.9,149.6,61.9c58.6,0,111.3-23.6,149.4-61.9h0.3c38-38.2,61.9-91.1,61.9-149.4
	c0-58.5-23.9-111.3-61.9-149.6H399.7L399.7,100.5z M315.9,184.3L315.9,184.3c-7.4-7.6-7.4-19.6,0-27.3c7.5-7.5,19.8-7.5,27.1,0
	c6,5.9,11.6,12.4,16.1,19.5c4.8,7,8.7,14.3,12,22.4c3.5,8,6.1,16.4,7.8,25c1.9,8.7,2.6,17.5,2.6,26.2c0,8.4-0.7,17.3-2.6,26.2
	c-1.6,8.4-4.2,16.9-7.8,24.8c-3.3,8.2-7.2,15.5-12,22.4c-4.5,7.1-10.1,13.6-16.1,19.5c-5.6,6-12.4,11.3-19.5,16.1
	c-6.7,4.5-14.3,8.6-22.1,12.1c-8.2,3.3-16.4,6-25.2,7.6c-8.7,1.9-17.3,2.6-26.1,2.6c-8.6,0-17.5-0.7-26-2.6
	c-8.7-1.6-17-4.4-25.1-7.6c-8-3.5-15.4-7.6-22.2-12.1c-7.1-4.8-13.8-10.1-19.6-16.1c-5.7-5.9-11.3-12.4-15.8-19.5
	c-4.8-6.8-8.9-14.2-12.1-22.4c-3.5-7.9-6-16.4-7.8-24.8c-1.8-8.9-2.7-17.7-2.7-26.2c0-8.7,1-17.5,2.7-26.2c1.8-8.6,4.2-16.9,7.8-25
	c3.3-8.1,7.4-15.4,12.1-22.4c4.5-7.1,10.1-13.6,15.8-19.5c7.6-7.5,19.9-7.5,27.3,0c7.5,7.6,7.5,19.6,0,27.3
	c-4.4,4.2-8.2,8.7-11.6,13.8c-3.3,5-6.1,10.4-8.3,15.7c-2.6,5.5-4.4,11.4-5.6,17.6c-1,5.9-1.8,12.1-1.8,18.7
	c0,6.5,0.8,12.8,1.8,18.5c1.2,6.1,3,12,5.6,17.7c2.2,5.2,5.1,10.5,8.3,15.8c3.4,4.6,7.2,9.6,11.6,13.6c4.2,4.4,9,8,13.8,11.4
	c5.3,3.3,10.4,6.3,15.7,8.5c5.7,2.4,11.7,4.4,17.6,5.7c5.9,1,12,1.5,18.7,1.5c6.5,0,12.8-0.5,18.8-1.5c6-1.4,11.9-3.3,17.3-5.7
	c5.6-2.2,10.6-5.2,16-8.5c4.8-3.4,9.5-7.1,13.6-11.4c4.2-4.1,8.2-9,11.5-13.6c3.5-5.3,6.3-10.6,8.6-15.8c2.3-5.7,4.2-11.6,5.6-17.7
	c1-5.7,1.5-12,1.5-18.5c0-6.5-0.5-12.8-1.5-18.7c-1.4-6.1-3.3-12.1-5.6-17.6c-2.3-5.3-5-10.6-8.6-15.7
	C324.1,193.1,320.2,188.6,315.9,184.3L315.9,184.3z"/>
</svg>
